SplineFontDB: 3.0
FontName: OxygenSans-Bold
FullName: OxygenSans Bold
FamilyName: OxygenSans
Weight: Bold
Copyright: Copyright 2009-2012 vernon adams.
Version: 1.001;PS (version unavailable);hotconv 1.0.57;makeotf.lib2.0.21895 DEVELOPMENT
ItalicAngle: 0
UnderlinePosition: 0
UnderlineWidth: 0
Ascent: 1548
Descent: 500
UFOAscent: 1548
UFODescent: -500
LayerCount: 2
Layer: 0 0 "Back"  1
Layer: 1 0 "Fore"  0
OS2Version: 0
OS2_WeightWidthSlopeOnly: 0
OS2_UseTypoMetrics: 0
CreationTime: 1353013679
ModificationTime: 1353013802
PfmFamily: 0
TTFWeight: 700
TTFWidth: 5
LineGap: 0
VLineGap: 0
Panose: 0 0 0 0 0 0 0 0 0 0
OS2TypoAscent: 1548
OS2TypoAOffset: 0
OS2TypoDescent: 500
OS2TypoDOffset: 0
OS2TypoLinegap: 0
OS2WinAscent: 1901
OS2WinAOffset: 0
OS2WinDescent: 483
OS2WinDOffset: 0
HheadAscent: 0
HheadAOffset: 1
HheadDescent: 0
HheadDOffset: 1
OS2SubXSize: 1331
OS2SubYSize: 1228
OS2SubXOff: 0
OS2SubYOff: 153
OS2SupXSize: 1331
OS2SupYSize: 1228
OS2SupXOff: 0
OS2SupYOff: 716
OS2StrikeYSize: 50
OS2StrikeYPos: 610
OS2Vendor: 'newt'
OS2CodePages: 2000019f.00000000
OS2UnicodeRanges: 0000008f.00000000.00000000.00000000
MarkAttachClasses: 1
DEI: 91125
LangName: 1033 "" "" "" "1.001;newt;OxygenSans-Bold" "" "Version 1.001;PS (version unavailable);hotconv 1.0.57;makeotf.lib2.0.21895 DEVELOPMENT" "" "" "" "Vernon Adams" "" "" "" "" "http://scripts.sil.org/OFL" 
PickledData: "(dp1
S'com.typemytype.robofont.compileSettings.autohint'
p2
I01
sS'com.typemytype.robofont.compileSettings.decompose'
p3
I01
sS'com.typemytype.robofont.foreground.layerStrokeColor'
p4
(F0.5
F0
F0.5
F0.69999999999999996
tp5
sS'com.typemytype.robofont.guides'
p6
((dp7
S'angle'
p8
I0
sS'name'
p9
NsS'magnetic'
p10
I5
sS'isGlobal'
p11
I1
sS'y'
I1357
sS'x'
I790
s(dp12
g8
I0
sg9
Nsg10
I5
sg11
I1
sS'y'
I-18
sS'x'
I789
stp13
sS'com.typemytype.robofont.compileSettings.releaseMode'
p14
I00
sS'com.typemytype.robofont.shouldAddPointsInSplineConversion'
p15
I00
sS'com.typemytype.robofont.b.layerStrokeColor'
p16
(F1
F0.75
F0

StartChar: .notdef
Encoding: 65536 -1 0
Width: 1024
VWidth: 0
Flags: W
LayerCount: 2
Fore
SplineSet
204 -398 m 1
 204 1399 l 1
 820 1399 l 1
 820 -398 l 1
 204 -398 l 1
102 -500 m 1
 922 -500 l 1
 922 1501 l 1
 102 1501 l 1
 102 -500 l 1
EndSplineSet
EndChar

StartChar: A
Encoding: 65 65 1
Width: 1427
VWidth: 0
GlyphClass: 2
Flags: W
PickledData: "(dp1
S'com.typemytype.robofont.layerData'
p2
(dp3
s."
LayerCount: 2
Fore
SplineSet
90 0 m 1
 378 0 l 1
 498 365 l 1
 924 365 l 1
 1051 0 l 1
 1337 0 l 1
 883 1336 l 1
 545 1336 l 1
 90 0 l 1
556 555 m 1
 718 1093 l 1
 868 555 l 1
 556 555 l 1
EndSplineSet
EndChar

StartChar: AE
Encoding: 198 198 2
Width: 1781
VWidth: 0
GlyphClass: 2
Flags: W
LayerCount: 2
Fore
SplineSet
928 538 m 1
 887 1087 l 1
 589 538 l 1
 928 538 l 1
1141 1161 m 1
 1168 785 l 1
 1655 785 l 1
 1655 592 l 1
 1188 592 l 1
 1221 194 l 1
 1723 194 l 1
 1709 0 l 1
 971 0 l 1
 944 334 l 1
 495 334 l 1
 316 0 l 1
 23 0 l 1
 781 1355 l 1
 1692 1355 l 1
 1676 1161 l 1
 1141 1161 l 1
EndSplineSet
EndChar

StartChar: Alpha
Encoding: 913 913 9
Width: 1194
VWidth: 0
GlyphClass: 2
Flags: W
LayerCount: 2
Fore
SplineSet
941 0 m 1
 814 368 l 1
 414 368 l 1
 294 0 l 1
 -7 0 l 1
 449 1342 l 1
 781 1342 l 1
 1230 0 l 1
 941 0 l 1
476 577 m 1
 754 577 l 1
 734 642 648 950 616 1054 c 1
 585 957 498 647 476 577 c 1
EndSplineSet
EndChar

StartChar: Alphatonos
Encoding: 902 902 10
Width: 407
VWidth: 0
GlyphClass: 2
Flags: W
LayerCount: 2
Fore
SplineSet
215 483 m 0
 131 483 87 547 87 610 c 0
 87 673 131 737 215 737 c 0
 300 737 342 673 342 610 c 0
 342 547 300 483 215 483 c 0
EndSplineSet
EndChar

StartChar: B
Encoding: 66 66 16
Width: 1366
VWidth: 0
GlyphClass: 2
Flags: W
PickledData: "(dp1
S'com.typemytype.robofont.layerData'
p2
(dp3
s."
LayerCount: 2
Fore
SplineSet
490 793 m 1
 490 1126 l 1
 635 1126 l 2
 821 1126 908 1093 908 956 c 0
 908 834 834 793 683 793 c 2
 490 793 l 1
490 216 m 1
 490 604 l 1
 680 604 l 2
 865 604 948 554 948 412 c 0
 948 270 863 216 686 216 c 2
 490 216 l 1
202 0 m 1
 738 0 l 2
 1039 0 1236 133 1236 393 c 0
 1236 551 1144 665 1001 715 c 1
 1145 783 1188 919 1188 1000 c 0
 1188 1254 999 1336 669 1336 c 2
 202 1336 l 1
 202 0 l 1
EndSplineSet
EndChar

StartChar: Beta
Encoding: 914 914 17
Width: 1169
VWidth: 0
GlyphClass: 2
Flags: W
LayerCount: 2
Fore
SplineSet
406 1122 m 1
 406 793 l 1
 599 793 l 2
 750 793 824 834 824 956 c 0
 824 1093 737 1122 551 1122 c 2
 406 1122 l 1
406 604 m 1
 406 220 l 1
 602 220 l 2
 779 220 864 270 864 412 c 0
 864 554 781 604 596 604 c 2
 406 604 l 1
118 0 m 1
 118 1342 l 1
 585 1342 l 2
 915 1342 1104 1254 1104 1000 c 0
 1104 919 1061 783 917 715 c 1
 1060 665 1152 551 1152 393 c 0
 1152 133 955 0 654 0 c 2
 118 0 l 1
EndSplineSet
EndChar

StartChar: C
Encoding: 67 67 18
Width: 1253
VWidth: 0
GlyphClass: 2
Flags: W
PickledData: "(dp1
S'com.typemytype.robofont.layerData'
p2
(dp3
s."
LayerCount: 2
Fore
SplineSet
788 -18 m 0
 933 -18 1025 13 1149 75 c 1
 1094 293 l 1
 994 236 902 210 803 213 c 0
 568 220 420 380 420 671 c 0
 420 963 598 1110 765 1123 c 0
 883 1132 996 1088 1092 1033 c 1
 1175 1247 l 1
 1053 1318 918 1357 779 1357 c 0
 404 1357 132 1114 132 677 c 0
 132 236 406 -18 788 -18 c 0
EndSplineSet
EndChar

StartChar: Chi
Encoding: 935 935 24
Width: 1174
VWidth: 0
GlyphClass: 2
Flags: W
LayerCount: 2
Fore
SplineSet
800 682 m 1
 1236 1342 l 1
 955 1342 l 1
 648 856 l 1
 349 1342 l 1
 54 1342 l 1
 481 687 l 1
 22 0 l 1
 308 0 l 1
 636 508 l 1
 956 0 l 1
 1258 0 l 1
 800 682 l 1
EndSplineSet
EndChar

StartChar: D
Encoding: 68 68 25
Width: 1486
VWidth: 0
GlyphClass: 2
Flags: W
PickledData: "(dp1
S'com.typemytype.robofont.layerData'
p2
(dp3
s."
LayerCount: 2
Fore
SplineSet
202 0 m 1
 202 1336 l 1
 600 1336 l 2
 1049 1336 1354 1130 1354 676 c 0
 1354 238 1066 0 623 0 c 2
 202 0 l 1
490 1126 m 1
 490 216 l 1
 637 216 l 2
 927 216 1067 377 1067 671 c 0
 1067 992 919 1126 611 1126 c 2
 490 1126 l 1
EndSplineSet
EndChar

StartChar: Delta
Encoding: 916 916 27
Width: 1110
VWidth: 0
GlyphClass: 2
Flags: W
LayerCount: 2
Fore
SplineSet
872 187 m 1
 566 1131 l 1
 265 187 l 1
 872 187 l 1
-16 0 m 1
 455 1375 l 1
 675 1375 l 1
 1146 0 l 1
 -16 0 l 1
EndSplineSet
EndChar

StartChar: E
Encoding: 69 69 28
Width: 1164
VWidth: 0
GlyphClass: 2
Flags: W
PickledData: "(dp1
S'com.typemytype.robofont.layerData'
p2
(dp3
s."
LayerCount: 2
Fore
SplineSet
490 1126 m 1
 490 805 l 1
 994 805 l 1
 994 595 l 1
 490 595 l 1
 490 216 l 1
 1042 216 l 1
 1025 0 l 1
 202 0 l 1
 202 1336 l 1
 1032 1336 l 1
 1021 1126 l 1
 490 1126 l 1
EndSplineSet
EndChar

StartChar: Eng
Encoding: 330 330 37
Width: 1246
VWidth: 0
GlyphClass: 2
Flags: W
LayerCount: 2
Fore
SplineSet
738 -305 m 0
 732 -305 692 -305 657 -301 c 1
 637 -75 l 1
 677 -78 737 -79 742 -79 c 0
 901 -79 928 -27 928 139 c 2
 928 864 l 2
 928 1077 869 1155 722 1155 c 0
 616 1155 463 1099 384 963 c 1
 384 0 l 1
 96 0 l 1
 96 1342 l 1
 352 1342 l 1
 374 1195 l 1
 467 1297 640 1363 782 1363 c 0
 1071 1363 1216 1177 1216 874 c 2
 1216 143 l 2
 1216 -148 1082 -305 738 -305 c 0
EndSplineSet
EndChar

StartChar: Epsilon
Encoding: 917 917 39
Width: 1009
VWidth: 0
GlyphClass: 2
Flags: W
LayerCount: 2
Fore
SplineSet
416 1122 m 1
 416 805 l 1
 920 805 l 1
 920 595 l 1
 416 595 l 1
 416 220 l 1
 968 220 l 1
 961 0 l 1
 128 0 l 1
 128 1342 l 1
 958 1342 l 1
 947 1122 l 1
 416 1122 l 1
EndSplineSet
EndChar

StartChar: Epsilontonos
Encoding: 904 904 40
Width: 407
VWidth: 0
GlyphClass: 2
Flags: W
LayerCount: 2
Fore
SplineSet
215 483 m 0
 131 483 87 547 87 610 c 0
 87 673 131 737 215 737 c 0
 300 737 342 673 342 610 c 0
 342 547 300 483 215 483 c 0
EndSplineSet
EndChar

StartChar: Eta
Encoding: 919 919 41
Width: 1337
VWidth: 0
GlyphClass: 2
Flags: W
LayerCount: 2
Fore
SplineSet
962 804 m 1
 962 1342 l 1
 1250 1342 l 1
 1250 0 l 1
 962 0 l 1
 962 578 l 1
 418 578 l 1
 418 0 l 1
 130 0 l 1
 130 1342 l 1
 418 1342 l 1
 418 804 l 1
 962 804 l 1
EndSplineSet
EndChar

StartChar: Etatonos
Encoding: 905 905 42
Width: 407
VWidth: 0
GlyphClass: 2
Flags: W
LayerCount: 2
Fore
SplineSet
215 483 m 0
 131 483 87 547 87 610 c 0
 87 673 131 737 215 737 c 0
 300 737 342 673 342 610 c 0
 342 547 300 483 215 483 c 0
EndSplineSet
EndChar

StartChar: Eth
Encoding: 208 208 43
Width: 1340
VWidth: 0
GlyphClass: 2
Flags: W
LayerCount: 2
Fore
SplineSet
110 768 m 1
 110 1340 l 1
 467 1340 l 2
 948 1340 1288 1163 1288 668 c 0
 1288 230 984 1 549 1 c 2
 110 1 l 1
 110 586 l 1
 -1 586 l 1
 -1 768 l 1
 110 768 l 1
367 590 m 1
 367 211 l 1
 565 211 l 2
 862 211 1027 372 1027 669 c 0
 1027 1025 842 1135 484 1135 c 2
 367 1135 l 1
 367 772 l 1
 542 772 l 1
 542 590 l 1
 367 590 l 1
EndSplineSet
EndChar

StartChar: Euro
Encoding: 8364 8364 44
Width: 1061
VWidth: 0
GlyphClass: 2
Flags: W
LayerCount: 2
Fore
SplineSet
993 89 m 1
 908 29 812 -8 686 -8 c 0
 376 -8 232 216 190 467 c 1
 64 467 l 1
 90 642 l 1
 172 642 l 1
 172 683 l 1
 159 686 91 695 89 713 c 1
 83 854 l 1
 170 878 l 1
 214 1060 358 1218 589 1220 c 1
 692 1288 810 1309 943 1247 c 1
 978 1239 961 1123 967 1094 c 0
 967 1092 968 1090 968 1089 c 2
 970 1084 l 1
 953 1076 l 1
 950 1080 l 1
 947 1086 l 1
 902 1145 839 1141 773 1141 c 2
 772 1141 l 1
 657 1155 538 1090 499 966 c 1
 552 957 791 930 796 874 c 1
 901 728 l 1
 502 704 l 1
 492 701 417 699 392 696 c 1
 392 642 l 1
 886 642 l 1
 862 467 l 1
 412 467 l 1
 449 288 561 182 710 182 c 0
 799 182 893 218 981 289 c 1
 998 301 l 1
 998 91 l 1
 993 89 l 1
EndSplineSet
EndChar

StartChar: F
Encoding: 70 70 45
Width: 1147
VWidth: 0
GlyphClass: 2
Flags: W
PickledData: "(dp1
S'com.typemytype.robofont.layerData'
p2
(dp3
s."
LayerCount: 2
Fore
SplineSet
490 1116 m 1
 490 765 l 1
 986 765 l 1
 986 556 l 1
 490 556 l 1
 490 0 l 1
 202 0 l 1
 202 1336 l 1
 1031 1336 l 1
 1019 1116 l 1
 490 1116 l 1
EndSplineSet
EndChar

StartChar: G
Encoding: 71 71 46
Width: 1391
VWidth: 0
GlyphClass: 2
Flags: W
PickledData: "(dp1
S'com.typemytype.robofont.layerData'
p2
(dp3
s."
LayerCount: 2
Fore
SplineSet
778 -18 m 0
 961 -18 1093 17 1241 82 c 1
 1241 727 l 1
 725 727 l 1
 725 519 l 1
 994 519 l 1
 994 245 l 1
 931 222 868 213 789 213 c 0
 534 213 420 383 420 670 c 0
 420 964 547 1139 809 1129 c 0
 933 1124 1037 1090 1134 1042 c 1
 1223 1253 l 1
 1095 1317 968 1357 804 1357 c 0
 382 1357 132 1105 132 672 c 0
 132 248 378 -18 778 -18 c 0
EndSplineSet
EndChar

StartChar: H
Encoding: 72 72 52
Width: 1547
VWidth: 0
GlyphClass: 2
Flags: W
PickledData: "(dp1
S'com.typemytype.robofont.layerData'
p2
(dp3
s."
LayerCount: 2
Fore
SplineSet
490 793 m 1
 490 1336 l 1
 202 1336 l 1
 202 0 l 1
 490 0 l 1
 490 578 l 1
 1057 578 l 1
 1057 0 l 1
 1345 0 l 1
 1345 1336 l 1
 1057 1336 l 1
 1057 793 l 1
 490 793 l 1
EndSplineSet
EndChar

StartChar: Hbar
Encoding: 294 294 53
Width: 1311
VWidth: 0
GlyphClass: 2
Flags: W
LayerCount: 2
Fore
SplineSet
367 788 m 1
 962 788 l 1
 962 1068 l 1
 367 1068 l 1
 367 788 l 1
110 1205 m 1
 110 1335 l 1
 367 1335 l 1
 367 1205 l 1
 962 1205 l 1
 962 1335 l 1
 1220 1335 l 1
 1220 1205 l 1
 1295 1205 l 1
 1295 1068 l 1
 1220 1068 l 1
 1220 0 l 1
 962 0 l 1
 962 595 l 1
 367 595 l 1
 367 0 l 1
 110 0 l 1
 110 1068 l 1
 35 1068 l 1
 35 1205 l 1
 110 1205 l 1
EndSplineSet
EndChar

StartChar: I
Encoding: 73 73 55
Width: 692
VWidth: 0
GlyphClass: 2
Flags: W
PickledData: "(dp1
S'com.typemytype.robofont.layerData'
p2
(dp3
s."
LayerCount: 2
Fore
SplineSet
202 0 m 1
 202 1336 l 1
 490 1336 l 1
 490 0 l 1
 202 0 l 1
EndSplineSet
EndChar

StartChar: IJ
Encoding: 306 306 56
Width: 1083
VWidth: 0
GlyphClass: 2
Flags: W
LayerCount: 2
Fore
SplineSet
501 -285 m 1
 489 -75 l 1
 528 -82 569 -84 592 -84 c 0
 724 -84 751 -21 751 126 c 2
 751 1342 l 1
 1039 1342 l 1
 1039 144 l 2
 1039 -153 910 -293 594 -293 c 0
 564 -293 532 -292 501 -285 c 1
130 0 m 1
 130 1342 l 1
 418 1342 l 1
 418 0 l 1
 130 0 l 1
EndSplineSet
EndChar

StartChar: Iota
Encoding: 921 921 65
Width: 527
VWidth: 0
GlyphClass: 2
Flags: W
LayerCount: 2
Fore
SplineSet
130 0 m 1
 130 1342 l 1
 418 1342 l 1
 418 0 l 1
 130 0 l 1
EndSplineSet
EndChar

StartChar: Iotadieresis
Encoding: 938 938 66
Width: 527
VWidth: 0
GlyphClass: 2
Flags: W
LayerCount: 2
Fore
SplineSet
130 0 m 1
 130 1342 l 1
 418 1342 l 1
 418 0 l 1
 130 0 l 1
529 1699 m 1
 529 1454 l 1
 336 1454 l 1
 336 1699 l 1
 529 1699 l 1
154 1699 m 1
 154 1454 l 1
 -40 1454 l 1
 -40 1699 l 1
 154 1699 l 1
EndSplineSet
EndChar

StartChar: Iotatonos
Encoding: 906 906 67
Width: 407
VWidth: 0
GlyphClass: 2
Flags: W
LayerCount: 2
Fore
SplineSet
215 483 m 0
 131 483 87 547 87 610 c 0
 87 673 131 737 215 737 c 0
 300 737 342 673 342 610 c 0
 342 547 300 483 215 483 c 0
EndSplineSet
EndChar

StartChar: J
Encoding: 74 74 69
Width: 780
VWidth: 0
GlyphClass: 2
Flags: W
PickledData: "(dp1
S'com.typemytype.robofont.layerData'
p2
(dp3
s."
LayerCount: 2
Fore
SplineSet
40 -285 m 1
 401 -282 578 -153 578 144 c 2
 578 1336 l 1
 290 1336 l 1
 290 126 l 2
 290 -21 207 -69 28 -75 c 1
 40 -285 l 1
EndSplineSet
EndChar

StartChar: K
Encoding: 75 75 71
Width: 1361
VWidth: 0
GlyphClass: 2
Flags: W
PickledData: "(dp1
S'com.typemytype.robofont.layerData'
p2
(dp3
s."
LayerCount: 2
Fore
SplineSet
958 1336 m 1
 1290 1336 l 1
 798 732 l 1
 1300 0 l 1
 974 0 l 1
 561 611 l 1
 490 537 l 1
 490 0 l 1
 202 0 l 1
 202 1336 l 1
 490 1336 l 1
 490 775 l 1
 958 1336 l 1
EndSplineSet
EndChar

StartChar: Kappa
Encoding: 922 922 72
Width: 1179
VWidth: 0
GlyphClass: 2
Flags: W
LayerCount: 2
Fore
SplineSet
416 516 m 1
 416 0 l 1
 128 0 l 1
 128 1342 l 1
 416 1342 l 1
 416 765 l 1
 532 918 771 1195 882 1334 c 1
 884 1342 l 1
 1196 1342 l 1
 700 737 l 1
 1226 0 l 1
 919 0 l 1
 503 589 l 1
 474 565 446 541 416 516 c 1
EndSplineSet
EndChar

StartChar: L
Encoding: 76 76 74
Width: 1103
VWidth: 0
GlyphClass: 2
Flags: W
PickledData: "(dp1
S'com.typemytype.robofont.layerData'
p2
(dp3
s."
LayerCount: 2
Fore
SplineSet
1023 216 m 1
 1009 0 l 1
 202 0 l 1
 202 1336 l 1
 490 1336 l 1
 490 216 l 1
 1023 216 l 1
EndSplineSet
EndChar

StartChar: Lambda
Encoding: 923 923 76
Width: 1110
VWidth: 0
GlyphClass: 2
Flags: W
LayerCount: 2
Fore
SplineSet
964 0 m 1
 565 1155 l 1
 170 0 l 1
 -17 0 l 1
 476 1370 l 1
 652 1370 l 1
 1146 0 l 1
 964 0 l 1
EndSplineSet
EndChar

StartChar: Ldot
Encoding: 319 319 79
Width: 937
VWidth: 0
GlyphClass: 2
Flags: W
LayerCount: 2
Fore
SplineSet
128 0 m 1
 128 1342 l 1
 416 1342 l 1
 416 213 l 1
 953 213 l 1
 946 0 l 1
 128 0 l 1
EndSplineSet
EndChar

StartChar: Lslash
Encoding: 321 321 80
Width: 885
VWidth: 0
GlyphClass: 2
Flags: W
LayerCount: 2
Fore
SplineSet
649 1029 m 1
 649 845 l 1
 366 678 l 1
 366 203 l 1
 913 203 l 1
 898 0 l 1
 111 0 l 1
 111 524 l 1
 -24 443 l 1
 -24 634 l 1
 111 714 l 1
 111 1340 l 1
 366 1340 l 1
 366 869 l 1
 646 1032 l 1
 649 1029 l 1
EndSplineSet
EndChar

StartChar: M
Encoding: 77 77 81
Width: 1748
VWidth: 0
GlyphClass: 2
Flags: W
PickledData: "(dp1
S'com.typemytype.robofont.layerData'
p2
(dp3
s."
LayerCount: 2
Fore
SplineSet
1265 1336 m 1
 1546 1336 l 1
 1546 0 l 1
 1280 0 l 1
 1280 487 l 1
 1295 880 l 1
 970 136 l 1
 769 136 l 1
 453 886 l 1
 468 484 l 1
 468 0 l 1
 202 0 l 1
 202 1336 l 1
 488 1336 l 1
 874 421 l 1
 1265 1336 l 1
EndSplineSet
EndChar

StartChar: Mu
Encoding: 924 924 82
Width: 1621
VWidth: 0
GlyphClass: 2
Flags: W
LayerCount: 2
Fore
SplineSet
1223 1342 m 1
 1522 1342 l 1
 1522 0 l 1
 1278 0 l 1
 1278 658 l 1
 1284 968 l 1
 1271 929 l 1
 940 89 l 1
 720 89 l 1
 396 934 l 1
 382 974 l 1
 388 655 l 1
 388 0 l 1
 152 0 l 1
 152 1342 l 1
 453 1342 l 1
 837 407 l 1
 1223 1342 l 1
EndSplineSet
EndChar

StartChar: N
Encoding: 78 78 83
Width: 1541
VWidth: 0
GlyphClass: 2
Flags: W
PickledData: "(dp1
S'com.typemytype.robofont.layerData'
p2
(dp3
s."
LayerCount: 2
Fore
SplineSet
1087 350 m 1
 1087 350 1068 787 1068 795 c 2
 1068 1336 l 1
 1339 1336 l 1
 1339 0 l 1
 1036 0 l 1
 451 961 l 1
 451 961 479 430 479 409 c 2
 479 0 l 1
 202 0 l 1
 202 1336 l 1
 494 1336 l 1
 1087 350 l 1
EndSplineSet
EndChar

StartChar: Nu
Encoding: 925 925 88
Width: 1367
VWidth: 0
GlyphClass: 2
Flags: W
LayerCount: 2
Fore
SplineSet
1015 384 m 1
 1014 461 996 793 996 801 c 2
 996 1342 l 1
 1282 1342 l 1
 1282 0 l 1
 975 0 l 1
 387 945 l 1
 387 945 415 430 415 409 c 2
 415 0 l 1
 130 0 l 1
 130 1342 l 1
 426 1342 l 1
 1015 384 l 1
EndSplineSet
EndChar

StartChar: O
Encoding: 79 79 89
Width: 1566
VWidth: 0
GlyphClass: 2
Flags: W
PickledData: "(dp1
S'com.typemytype.robofont.guides'
p2
(tsS'com.typemytype.robofont.layerData'
p3
(dp4
sS'com.fontlab.hintData'
p5
(dp6
S'vhints'
p7
((dp8
S'position'
p9
I116
sS'width'
p10
I288
s(dp11
g9
I1130
sg10
I288
stp12
sS'hhints'
p13
((dp14
g9
I-16
sg10
I228
s(dp15
g9
I1129
sg10
I230
stp16
ss."
HStem: -16 228 1129 230
VStem: 116 288 1130 288
LayerCount: 2
Fore
SplineSet
784 1127 m 0
 557 1127 420 946 420 667 c 0
 420 393 556 210 784 210 c 0
 1012 210 1146 393 1146 667 c 0
 1146 946 1011 1127 784 1127 c 0
784 -18 m 0
 391 -18 132 237 132 669 c 0
 132 1105 393 1357 784 1357 c 0
 1175 1357 1434 1105 1434 669 c 0
 1434 237 1177 -18 784 -18 c 0
EndSplineSet
EndChar

StartChar: OE
Encoding: 338 338 90
Width: 1922
VWidth: 0
GlyphClass: 2
Flags: W
LayerCount: 2
Fore
SplineSet
725 187 m 0
 863 187 969 235 1030 289 c 1
 1030 1048 l 1
 966 1111 863 1160 722 1160 c 0
 461 1160 320 928 318 672 c 1
 318 415 451 188 725 187 c 0
727 -17 m 0
 338 -17 65 274 65 676 c 1
 68 1073 349 1363 722 1363 c 0
 844 1363 945 1332 1030 1278 c 1
 1030 1338 l 1
 1879 1338 l 1
 1861 1133 l 1
 1277 1133 l 1
 1277 798 l 1
 1835 798 l 1
 1835 596 l 1
 1277 596 l 1
 1277 208 l 1
 1905 208 l 1
 1887 4 l 1
 1030 4 l 1
 1030 67 l 1
 954 19 842 -17 727 -17 c 0
EndSplineSet
EndChar

StartChar: Omegatonos
Encoding: 911 911 99
Width: 407
VWidth: 0
GlyphClass: 2
Flags: W
LayerCount: 2
Fore
SplineSet
215 483 m 0
 131 483 87 547 87 610 c 0
 87 673 131 737 215 737 c 0
 300 737 342 673 342 610 c 0
 342 547 300 483 215 483 c 0
EndSplineSet
EndChar

StartChar: Omicron
Encoding: 927 927 100
Width: 1431
VWidth: 0
GlyphClass: 2
Flags: W
LayerCount: 2
Fore
SplineSet
738 212 m 0
 986 212 1100 395 1100 669 c 0
 1100 948 985 1129 739 1129 c 0
 492 1129 378 948 378 669 c 0
 378 395 490 212 738 212 c 0
737 -16 m 0
 344 -16 90 239 90 671 c 0
 90 1107 347 1359 738 1359 c 0
 1129 1359 1388 1105 1388 671 c 0
 1388 241 1129 -16 737 -16 c 0
EndSplineSet
EndChar

StartChar: Omicrontonos
Encoding: 908 908 101
Width: 407
VWidth: 0
GlyphClass: 2
Flags: W
LayerCount: 2
Fore
SplineSet
215 483 m 0
 131 483 87 547 87 610 c 0
 87 673 131 737 215 737 c 0
 300 737 342 673 342 610 c 0
 342 547 300 483 215 483 c 0
EndSplineSet
EndChar

StartChar: Oslash
Encoding: 216 216 102
Width: 1435
VWidth: 0
GlyphClass: 2
Flags: W
LayerCount: 2
Fore
SplineSet
728 194 m 0
 995 194 1128 386 1128 666 c 0
 1128 840 1077 982 971 1065 c 1
 601 212 l 1
 636 201 681 194 728 194 c 0
496 278 m 1
 866 1137 l 1
 828 1150 779 1158 728 1158 c 0
 461 1158 329 959 329 682 c 0
 329 502 384 359 496 278 c 1
429 -179 m 1
 324 -134 l 1
 405 54 l 1
 196 161 65 381 65 678 c 0
 65 1115 342 1377 729 1377 c 0
 810 1377 883 1366 954 1344 c 1
 1034 1530 l 1
 1145 1486 l 1
 1065 1296 l 1
 1264 1186 1388 972 1388 676 c 0
 1388 247 1116 -18 725 -18 c 0
 650 -18 579 -9 512 10 c 1
 429 -179 l 1
EndSplineSet
EndChar

StartChar: P
Encoding: 80 80 105
Width: 1277
VWidth: 0
GlyphClass: 2
Flags: W
PickledData: "(dp1
S'com.typemytype.robofont.layerData'
p2
(dp3
s."
LayerCount: 2
Fore
SplineSet
647 677 m 0
 892 677 906 798 906 911 c 0
 906 1053 835 1126 674 1126 c 2
 490 1126 l 1
 490 678 l 1
 518 677 601 677 647 677 c 0
202 0 m 1
 202 1336 l 1
 673 1336 l 2
 972 1336 1194 1205 1194 919 c 0
 1194 677 1062 482 673 482 c 0
 621 482 557 483 490 489 c 1
 490 0 l 1
 202 0 l 1
EndSplineSet
EndChar

StartChar: Phi
Encoding: 934 934 106
Width: 1462
VWidth: 0
GlyphClass: 2
Flags: W
LayerCount: 2
Fore
SplineSet
824 1081 m 1
 824 317 l 1
 1087 346 1206 505 1206 706 c 0
 1206 910 1081 1055 824 1081 c 1
649 317 m 1
 649 1081 l 1
 398 1054 271 913 271 706 c 0
 271 508 385 347 649 317 c 1
824 0 m 1
 649 0 l 1
 649 154 l 1
 282 186 84 411 84 706 c 0
 84 1004 290 1214 649 1244 c 1
 649 1370 l 1
 824 1370 l 1
 824 1244 l 1
 1182 1215 1394 1007 1394 706 c 0
 1394 412 1197 185 824 154 c 1
 824 0 l 1
EndSplineSet
EndChar

StartChar: Pi
Encoding: 928 928 107
Width: 1288
VWidth: 0
GlyphClass: 2
Flags: W
LayerCount: 2
Fore
SplineSet
1001 0 m 1
 1001 1215 l 1
 302 1215 l 1
 302 0 l 1
 125 0 l 1
 125 1370 l 1
 1178 1370 l 1
 1178 0 l 1
 1001 0 l 1
EndSplineSet
EndChar

StartChar: Psi
Encoding: 936 936 108
Width: 407
VWidth: 0
GlyphClass: 2
Flags: W
LayerCount: 2
Fore
SplineSet
215 483 m 0
 131 483 87 547 87 610 c 0
 87 673 131 737 215 737 c 0
 300 737 342 673 342 610 c 0
 342 547 300 483 215 483 c 0
EndSplineSet
EndChar

StartChar: Q
Encoding: 81 81 109
Width: 1562
VWidth: 0
GlyphClass: 2
Flags: W
PickledData: "(dp1
S'com.typemytype.robofont.layerData'
p2
(dp3
s."
LayerCount: 2
Fore
SplineSet
780 213 m 0
 1028 213 1142 393 1142 669 c 0
 1142 949 1027 1129 781 1129 c 0
 534 1129 420 947 420 669 c 0
 420 395 532 213 780 213 c 0
1329 -313 m 1
 1160 -460 l 1
 1050 -382 915 -158 838 -16 c 1
 819 -17 799 -18 779 -18 c 0
 386 -18 132 239 132 671 c 0
 132 1107 389 1357 780 1357 c 0
 1171 1357 1430 1105 1430 671 c 0
 1430 363 1297 143 1077 43 c 1
 1122 -32 1218 -202 1329 -313 c 1
EndSplineSet
EndChar

StartChar: R
Encoding: 82 82 110
Width: 1406
VWidth: 0
GlyphClass: 2
Flags: W
PickledData: "(dp1
S'com.typemytype.robofont.layerData'
p2
(dp3
s."
LayerCount: 2
Fore
SplineSet
202 0 m 1
 202 1336 l 1
 721 1336 l 2
 1027 1336 1258 1258 1258 947 c 0
 1258 770 1148 646 1001 587 c 1
 1038 539 1075 465 1111 391 c 1
 1308 0 l 1
 1005 0 l 1
 842 331 l 1
 812 395 757 501 742 530 c 1
 725 531 703 531 670 531 c 2
 490 531 l 1
 490 0 l 1
 202 0 l 1
724 742 m 2
 905 742 970 804 970 943 c 0
 970 1064 898 1126 734 1126 c 2
 490 1126 l 1
 490 742 l 1
 724 742 l 2
EndSplineSet
EndChar

StartChar: Rho
Encoding: 929 929 114
Width: 1075
VWidth: 0
GlyphClass: 2
Flags: W
LayerCount: 2
Fore
SplineSet
573 677 m 0
 818 677 832 798 832 911 c 0
 832 1053 761 1122 600 1122 c 2
 416 1122 l 1
 416 678 l 1
 444 677 527 677 573 677 c 0
128 0 m 1
 128 1342 l 1
 599 1342 l 2
 898 1342 1120 1205 1120 919 c 0
 1120 677 988 482 599 482 c 0
 547 482 483 483 416 489 c 1
 416 0 l 1
 128 0 l 1
EndSplineSet
EndChar

StartChar: S
Encoding: 83 83 115
Width: 1182
VWidth: 0
GlyphClass: 2
Flags: W
PickledData: "(dp1
S'com.typemytype.robofont.layerData'
p2
(dp3
s."
LayerCount: 2
Fore
SplineSet
570 -18 m 0
 859 -18 1063 119 1063 381 c 0
 1063 598 958 705 723 783 c 1
 515 853 l 2
 454 873 417 915 417 980 c 0
 417 1087 491 1128 624 1128 c 0
 743 1128 870 1075 962 1035 c 1
 1044 1251 l 1
 923 1320 773 1358 613 1358 c 0
 345 1358 148 1227 148 975 c 0
 148 785 252 670 414 617 c 2
 638 544 l 2
 735 512 790 464 790 385 c 0
 790 262 721 210 580 210 c 0
 448 210 285 253 208 303 c 1
 125 87 l 1
 241 21 394 -18 570 -18 c 0
EndSplineSet
EndChar

StartChar: Sigma
Encoding: 931 931 121
Width: 1009
VWidth: 0
GlyphClass: 2
Flags: W
LayerCount: 2
Fore
SplineSet
416 1122 m 1
 416 805 l 1
 920 805 l 1
 920 595 l 1
 416 595 l 1
 416 220 l 1
 968 220 l 1
 961 0 l 1
 128 0 l 1
 128 1342 l 1
 958 1342 l 1
 947 1122 l 1
 416 1122 l 1
EndSplineSet
EndChar

StartChar: T
Encoding: 84 84 122
Width: 1164
VWidth: 0
GlyphClass: 2
Flags: W
PickledData: "(dp1
S'com.typemytype.robofont.layerData'
p2
(dp3
s."
LayerCount: 2
Fore
SplineSet
1099 1336 m 1
 1099 1126 l 1
 728 1126 l 1
 728 0 l 1
 440 0 l 1
 440 1126 l 1
 65 1126 l 1
 65 1336 l 1
 1099 1336 l 1
EndSplineSet
EndChar

StartChar: Tau
Encoding: 932 932 123
Width: 997
VWidth: 0
GlyphClass: 2
Flags: W
LayerCount: 2
Fore
SplineSet
1073 1342 m 1
 1073 1122 l 1
 704 1122 l 1
 704 0 l 1
 416 0 l 1
 416 1122 l 1
 49 1122 l 1
 49 1342 l 1
 1073 1342 l 1
EndSplineSet
EndChar

StartChar: Theta
Encoding: 920 920 126
Width: 407
VWidth: 0
GlyphClass: 2
Flags: W
LayerCount: 2
Fore
SplineSet
215 483 m 0
 131 483 87 547 87 610 c 0
 87 673 131 737 215 737 c 0
 300 737 342 673 342 610 c 0
 342 547 300 483 215 483 c 0
EndSplineSet
EndChar

StartChar: Thorn
Encoding: 222 222 127
Width: 1164
VWidth: 0
GlyphClass: 2
Flags: W
LayerCount: 2
Fore
SplineSet
370 946 m 1
 371 505 l 1
 657 505 l 2
 826 505 921 585 921 725 c 0
 921 882 823 946 632 946 c 2
 370 946 l 1
370 1326 m 1
 370 1126 l 1
 613 1126 l 2
 908 1126 1140 1016 1140 720 c 0
 1140 454 924 310 645 310 c 0
 643 310 423 311 370 311 c 1
 370 16 l 1
 153 16 l 1
 153 1326 l 1
 370 1326 l 1
EndSplineSet
EndChar

StartChar: U
Encoding: 85 85 128
Width: 1440
VWidth: 0
GlyphClass: 2
Flags: W
PickledData: "(dp1
S'com.typemytype.robofont.layerData'
p2
(dp3
s."
LayerCount: 2
Fore
SplineSet
720 -18 m 0
 372 -18 169 170 169 485 c 2
 169 1336 l 1
 457 1336 l 1
 457 504 l 2
 457 309 544 213 720 213 c 0
 902 213 983 310 983 505 c 2
 983 1336 l 1
 1271 1336 l 1
 1271 484 l 2
 1271 172 1067 -18 720 -18 c 0
EndSplineSet
EndChar

StartChar: Upsilon
Encoding: 933 933 138
Width: 1101
VWidth: 0
GlyphClass: 2
Flags: W
LayerCount: 2
Fore
SplineSet
584 786 m 1
 886 1342 l 1
 1169 1342 l 1
 714 536 l 1
 714 0 l 1
 454 0 l 1
 454 532 l 1
 0 1342 l 1
 283 1342 l 1
 584 786 l 1
EndSplineSet
EndChar

StartChar: Upsilondieresis
Encoding: 939 939 139
Width: 1101
VWidth: 0
GlyphClass: 2
Flags: W
LayerCount: 2
Fore
SplineSet
584 786 m 1
 886 1342 l 1
 1169 1342 l 1
 714 536 l 1
 714 0 l 1
 454 0 l 1
 454 532 l 1
 0 1342 l 1
 283 1342 l 1
 584 786 l 1
848 1699 m 1
 848 1454 l 1
 655 1454 l 1
 655 1699 l 1
 848 1699 l 1
473 1699 m 1
 473 1454 l 1
 279 1454 l 1
 279 1699 l 1
 473 1699 l 1
EndSplineSet
EndChar

StartChar: Upsilontonos
Encoding: 910 910 140
Width: 407
VWidth: 0
GlyphClass: 2
Flags: W
LayerCount: 2
Fore
SplineSet
215 483 m 0
 131 483 87 547 87 610 c 0
 87 673 131 737 215 737 c 0
 300 737 342 673 342 610 c 0
 342 547 300 483 215 483 c 0
EndSplineSet
EndChar

StartChar: V
Encoding: 86 86 143
Width: 1292
VWidth: 0
GlyphClass: 2
Flags: W
PickledData: "(dp1
S'com.typemytype.robofont.layerData'
p2
(dp3
s."
LayerCount: 2
Fore
SplineSet
813.5 0 m 1
 1257 1336 l 1
 951 1336 l 1
 733.5 608 l 1
 653.5 328 l 1
 571.5 607 l 1
 351 1336 l 1
 43 1336 l 1
 485.5 0 l 1
 813.5 0 l 1
EndSplineSet
EndChar

StartChar: W
Encoding: 87 87 144
Width: 1956
VWidth: 0
GlyphClass: 2
Flags: W
PickledData: "(dp1
S'com.typemytype.robofont.layerData'
p2
(dp3
s."
LayerCount: 2
Fore
SplineSet
851 1330 m 1
 1110 1330 l 1
 1376 373 l 1
 1620 1336 l 1
 1901 1336 l 1
 1518 0 l 1
 1246 0 l 1
 981 963 l 1
 695 0 l 1
 425 0 l 1
 59 1336 l 1
 341 1336 l 1
 572 376 l 1
 851 1330 l 1
EndSplineSet
EndChar

StartChar: X
Encoding: 88 88 149
Width: 1256
VWidth: 0
GlyphClass: 2
Flags: W
PickledData: "(dp1
S'com.typemytype.robofont.layerData'
p2
(dp3
s."
LayerCount: 2
Fore
SplineSet
788 682 m 1
 1224 1336 l 1
 933 1336 l 1
 636 880 l 1
 347 1336 l 1
 42 1336 l 1
 469 687 l 1
 10 0 l 1
 306 0 l 1
 624 456 l 1
 934 0 l 1
 1246 0 l 1
 788 682 l 1
EndSplineSet
EndChar

StartChar: Xi
Encoding: 926 926 150
Width: 407
VWidth: 0
GlyphClass: 2
Flags: W
LayerCount: 2
Fore
SplineSet
215 483 m 0
 131 483 87 547 87 610 c 0
 87 673 131 737 215 737 c 0
 300 737 342 673 342 610 c 0
 342 547 300 483 215 483 c 0
EndSplineSet
EndChar

StartChar: Y
Encoding: 89 89 151
Width: 1231
VWidth: 0
GlyphClass: 2
Flags: W
PickledData: "(dp1
S'com.typemytype.robofont.layerData'
p2
(dp3
s."
LayerCount: 2
Fore
SplineSet
623 749 m 1
 910 1336 l 1
 1208 1336 l 1
 764 499 l 1
 764 0 l 1
 482 0 l 1
 482 495 l 1
 39 1336 l 1
 342 1336 l 1
 623 749 l 1
EndSplineSet
EndChar

StartChar: Z
Encoding: 90 90 156
Width: 1202
VWidth: 0
GlyphClass: 2
Flags: W
PickledData: "(dp1
S'com.typemytype.robofont.layerData'
p2
(dp3
s."
LayerCount: 2
Fore
SplineSet
140 1336 m 1
 140 1126 l 1
 722 1126 l 1
 133 172 l 1
 133 0 l 1
 1071 0 l 1
 1071 216 l 1
 503 216 l 1
 1062 1150 l 1
 1062 1336 l 1
 140 1336 l 1
EndSplineSet
EndChar

StartChar: Zeta
Encoding: 918 918 160
Width: 1060
VWidth: 0
GlyphClass: 2
Flags: W
LayerCount: 2
Fore
SplineSet
93 1342 m 1
 1054 1342 l 1
 1054 1150 l 1
 395 220 l 1
 1060 220 l 1
 1058 0 l 1
 70 0 l 1
 70 172 l 1
 742 1122 l 1
 92 1122 l 1
 93 1342 l 1
EndSplineSet
EndChar

StartChar: a
Encoding: 97 97 161
Width: 1137
VWidth: 0
GlyphClass: 2
Flags: W
PickledData: "(dp1
S'com.fontlab.hintData'
p2
(dp3
S'vhints'
p4
((dp5
S'position'
p6
I104
sS'width'
p7
I256
s(dp8
g6
I681
sg7
I256
s(dp9
g6
I747
sg7
I190
stp10
sS'hhints'
p11
((dp12
g6
I-18
sg7
I180
s(dp13
g6
I852
sg7
I189
stp14
ssS'com.typemytype.robofont.layerData'
p15
(dp16
s."
HStem: -18 180<482 535.5> 852 189<528.5 623>
VStem: 104 256 681 256 747 190
LayerCount: 2
Fore
SplineSet
524 162 m 0
 440 162 401 208 401 287 c 0
 401 404 471 458 643 473 c 1
 643 473 702 480 722 482 c 1
 722 281 l 1
 705 243 632 162 524 162 c 0
464 -18 m 0
 607 -18 690 60 753 153 c 1
 762 118 785 12 788 0 c 1
 978 0 l 1
 978 660 l 2
 978 927 863 1041 598 1041 c 0
 451 1041 304 1004 183 953 c 1
 189 940 238 790 243 776 c 1
 344 817 485 852 572 852 c 0
 674 852 723 807 723 689 c 2
 723 641 l 1
 658 633 613 628 553 621 c 0
 300 595 145 508 145 284 c 0
 145 77 288 -18 464 -18 c 0
EndSplineSet
EndChar

StartChar: acute
Encoding: 180 180 165
Width: 541
VWidth: 0
GlyphClass: 2
Flags: W
LayerCount: 2
Fore
SplineSet
163 1081 m 1
 323 1442 l 1
 615 1442 l 1
 320 1081 l 1
 163 1081 l 1
EndSplineSet
EndChar

StartChar: ae
Encoding: 230 230 167
Width: 1478
VWidth: 0
GlyphClass: 2
Flags: W
LayerCount: 2
Fore
SplineSet
849 614 m 1
 868 805 976 859 1071 859 c 0
 1189 859 1215 757 1215 665 c 2
 1215 646 l 1
 849 614 l 1
402 153 m 0
 325 153 287 196 287 281 c 0
 287 369 367 392 543 412 c 1
 544 412 l 2
 546 412 595 418 613 421 c 1
 617 358 639 283 650 256 c 1
 573 197 489 153 402 153 c 0
368 -19 m 0
 536 -19 661 45 744 119 c 1
 816 32 918 -18 1079 -18 c 0
 1242 -18 1339 22 1418 79 c 1
 1424 84 l 1
 1352 247 l 1
 1342 240 l 1
 1299 206 1207 168 1095 168 c 1
 939 170 858 270 848 451 c 1
 951 458 1261 483 1293 485 c 0
 1381 488 1442 509 1442 573 c 0
 1442 822 1339 1049 1073 1049 c 0
 936 1049 823 983 757 901 c 1
 714 1000 604 1051 459 1049 c 1
 306 1045 205 1014 119 973 c 1
 112 969 l 1
 160 788 l 1
 170 792 l 2
 221 812 342 861 453 861 c 1
 578 855 608 802 608 687 c 2
 608 591 l 1
 542 584 l 1
 253 552 59 526 59 297 c 0
 59 119 178 -19 368 -19 c 0
EndSplineSet
EndChar

StartChar: afii10017
Encoding: 1040 1040 169
Width: 1194
VWidth: 0
GlyphClass: 2
Flags: W
LayerCount: 2
Fore
SplineSet
414 368 m 1
 294 0 l 1
 -7 0 l 1
 449 1342 l 1
 781 1342 l 1
 1230 0 l 1
 941 0 l 1
 814 368 l 1
 414 368 l 1
476 577 m 1
 754 577 l 1
 734 642 648 950 616 1054 c 1
 585 957 498 647 476 577 c 1
EndSplineSet
EndChar

StartChar: afii10018
Encoding: 1041 1041 170
Width: 1142
VWidth: 0
GlyphClass: 2
Flags: W
LayerCount: 2
Fore
SplineSet
1101 399 m 0
 1101 115 872 0 595 0 c 2
 110 0 l 1
 110 1335 l 1
 1003 1335 l 1
 1003 1131 l 1
 369 1131 l 1
 368 799 l 1
 618 799 l 2
 883 799 1101 688 1101 399 c 0
368 600 m 1
 368 203 l 1
 608 203 l 2
 758 203 847 265 847 402 c 0
 847 537 757 600 607 600 c 2
 368 600 l 1
EndSplineSet
EndChar

StartChar: afii10020
Encoding: 1043 1043 171
Width: 1283
VWidth: 0
GlyphClass: 2
Flags: W
LayerCount: 2
Fore
SplineSet
938 1133 m 1
 959 1335 l 1
 110 1335 l 1
 110 0 l 1
 368 0 l 1
 368 1133 l 1
 938 1133 l 1
EndSplineSet
EndChar

StartChar: afii10023
Encoding: 1025 1025 172
Width: 1108
VWidth: 0
GlyphClass: 2
Flags: W
LayerCount: 2
Fore
SplineSet
504 1449 m 1
 310 1449 l 1
 310 1694 l 1
 504 1694 l 1
 504 1449 l 1
879 1449 m 1
 686 1449 l 1
 686 1694 l 1
 879 1694 l 1
 879 1449 l 1
EndSplineSet
EndChar

StartChar: afii10025
Encoding: 1047 1047 173
Width: 1097
VWidth: 0
GlyphClass: 2
Flags: W
LayerCount: 2
Fore
SplineSet
114 131 m 1
 139 172 174 250 197 296 c 2
 202 306 l 1
 212 299 l 1
 292 245 418 191 561 191 c 0
 774 191 833 273 833 392 c 0
 833 499 709 583 575 583 c 2
 399 583 l 1
 399 788 l 1
 577 788 l 2
 697 788 791 870 791 970 c 1
 789 1062 702 1152 561 1152 c 0
 417 1152 323 1115 250 1062 c 1
 241 1056 l 1
 145 1233 l 1
 152 1238 l 1
 261 1328 398 1365 567 1365 c 0
 811 1365 1030 1209 1030 1000 c 0
 1030 825 971 736 882 688 c 1
 988 630 1062 511 1062 383 c 0
 1062 138 896 -17 559 -17 c 0
 385 -17 203 29 114 118 c 1
 109 124 l 1
 114 131 l 1
EndSplineSet
EndChar

StartChar: afii10026
Encoding: 1048 1048 174
Width: 1295
VWidth: 0
GlyphClass: 2
Flags: W
LayerCount: 2
Fore
SplineSet
349 426 m 1
 349 1335 l 1
 110 1335 l 1
 110 0 l 1
 335 0 l 1
 969 838 l 1
 969 0 l 1
 1207 0 l 1
 1207 1335 l 1
 979 1335 l 1
 976 1329 l 2
 969 1317 958 1240 956 1231 c 1
 900 1147 453 570 349 426 c 1
EndSplineSet
EndChar

StartChar: afii10028
Encoding: 1050 1050 176
Width: 1179
VWidth: 0
GlyphClass: 2
Flags: W
LayerCount: 2
Fore
SplineSet
416 516 m 1
 416 0 l 1
 128 0 l 1
 128 1342 l 1
 416 1342 l 1
 416 765 l 1
 532 918 771 1195 882 1334 c 1
 884 1342 l 1
 1196 1342 l 1
 700 737 l 1
 1226 0 l 1
 919 0 l 1
 503 589 l 1
 474 565 446 541 416 516 c 1
EndSplineSet
EndChar

StartChar: afii10030
Encoding: 1052 1052 177
Width: 1621
VWidth: 0
GlyphClass: 2
Flags: W
LayerCount: 2
Fore
SplineSet
152 1342 m 1
 453 1342 l 1
 837 407 l 1
 1223 1342 l 1
 1522 1342 l 1
 1522 0 l 1
 1278 0 l 1
 1278 658 l 1
 1284 968 l 1
 1271 929 l 1
 940 89 l 1
 720 89 l 1
 396 934 l 1
 382 974 l 1
 388 655 l 1
 388 0 l 1
 152 0 l 1
 152 1342 l 1
EndSplineSet
EndChar

StartChar: afii10031
Encoding: 1053 1053 178
Width: 1337
VWidth: 0
GlyphClass: 2
Flags: W
LayerCount: 2
Fore
SplineSet
130 0 m 1
 130 1342 l 1
 418 1342 l 1
 418 804 l 1
 962 804 l 1
 962 1342 l 1
 1250 1342 l 1
 1250 0 l 1
 962 0 l 1
 962 578 l 1
 418 578 l 1
 418 0 l 1
 130 0 l 1
EndSplineSet
EndChar

StartChar: afii10033
Encoding: 1055 1055 179
Width: 1278
VWidth: 0
GlyphClass: 2
Flags: W
LayerCount: 2
Fore
SplineSet
368 1141 m 1
 932 1141 l 1
 932 0 l 1
 1191 0 l 1
 1191 1335 l 1
 110 1335 l 1
 110 0 l 1
 368 0 l 1
 368 1141 l 1
EndSplineSet
EndChar

StartChar: afii10035
Encoding: 1057 1057 180
Width: 1141
VWidth: 0
GlyphClass: 2
Flags: W
LayerCount: 2
Fore
SplineSet
1124 1249 m 1
 1041 1048 l 1
 953 1097 880 1129 762 1129 c 0
 543 1129 378 963 378 671 c 0
 378 380 515 213 772 213 c 0
 871 213 968 238 1062 293 c 1
 1098 75 l 1
 974 13 876 -16 731 -16 c 0
 354 -16 90 240 90 677 c 0
 90 1091 360 1358 735 1358 c 0
 874 1358 1005 1328 1124 1249 c 1
EndSplineSet
EndChar

StartChar: afii10036
Encoding: 1058 1058 181
Width: 997
VWidth: 0
GlyphClass: 2
Flags: W
LayerCount: 2
Fore
SplineSet
49 1122 m 1
 49 1342 l 1
 1073 1342 l 1
 1073 1122 l 1
 704 1122 l 1
 704 0 l 1
 416 0 l 1
 416 1122 l 1
 49 1122 l 1
EndSplineSet
EndChar

StartChar: afii10038
Encoding: 1060 1060 182
Width: 1597
VWidth: 0
GlyphClass: 2
Flags: W
LayerCount: 2
Fore
SplineSet
931 1006 m 1
 931 358 l 1
 1175 369 1298 516 1298 687 c 0
 1298 850 1179 995 931 1006 c 1
683 358 m 1
 683 1006 l 1
 442 994 319 851 319 687 c 0
 319 517 439 370 683 358 c 1
931 0 m 1
 685 0 l 1
 683 145 l 1
 327 157 65 377 65 690 c 0
 65 994 323 1207 683 1219 c 1
 685 1335 l 1
 931 1335 l 1
 931 1219 l 1
 1285 1209 1551 1000 1551 690 c 0
 1551 374 1289 156 931 145 c 1
 931 0 l 1
EndSplineSet
EndChar

StartChar: afii10039
Encoding: 1061 1061 183
Width: 1174
VWidth: 0
GlyphClass: 2
Flags: W
LayerCount: 2
Fore
SplineSet
22 0 m 1
 481 687 l 1
 54 1342 l 1
 349 1342 l 1
 648 856 l 1
 955 1342 l 1
 1236 1342 l 1
 800 682 l 1
 1258 0 l 1
 956 0 l 1
 636 508 l 1
 308 0 l 1
 22 0 l 1
EndSplineSet
EndChar

StartChar: afii10040
Encoding: 1062 1062 184
Width: 1357
VWidth: 0
GlyphClass: 2
Flags: W
LayerCount: 2
Fore
SplineSet
1349 -303 m 1
 1349 112 l 1
 1219 112 l 1
 1219 1335 l 1
 961 1335 l 1
 961 194 l 1
 368 194 l 1
 368 1335 l 1
 110 1335 l 1
 110 0 l 1
 1119 0 l 1
 1120 -303 l 1
 1349 -303 l 1
EndSplineSet
EndChar

StartChar: afii10041
Encoding: 1063 1063 185
Width: 1598
VWidth: 0
GlyphClass: 2
Flags: W
LayerCount: 2
Fore
SplineSet
1178 16 m 1
 943 16 l 1
 942 537 l 1
 891 517 729 507 701 507 c 0
 388 507 152 567 152 899 c 2
 152 1326 l 1
 372 1326 l 1
 372 919 l 2
 372 745 464 710 674 710 c 0
 700 710 908 734 943 747 c 1
 943 1326 l 1
 1178 1326 l 1
 1178 16 l 1
EndSplineSet
EndChar

StartChar: afii10042
Encoding: 1064 1064 186
Width: 1617
VWidth: 0
GlyphClass: 2
Flags: W
LayerCount: 2
Fore
SplineSet
707 194 m 1
 707 1335 l 1
 964 1335 l 1
 964 194 l 1
 1271 194 l 1
 1271 1335 l 1
 1530 1335 l 1
 1530 0 l 1
 110 0 l 1
 110 1335 l 1
 368 1335 l 1
 368 194 l 1
 707 194 l 1
EndSplineSet
EndChar

StartChar: afii10043
Encoding: 1065 1065 187
Width: 1670
VWidth: 0
GlyphClass: 2
Flags: W
LayerCount: 2
Fore
SplineSet
707 194 m 1
 707 1335 l 1
 964 1335 l 1
 964 194 l 1
 1272 194 l 1
 1272 1335 l 1
 1530 1335 l 1
 1530 112 l 1
 1658 112 l 1
 1658 -303 l 1
 1429 -303 l 1
 1428 0 l 1
 110 0 l 1
 110 1335 l 1
 368 1335 l 1
 368 194 l 1
 707 194 l 1
EndSplineSet
EndChar

StartChar: afii10044
Encoding: 1066 1066 188
Width: 1362
VWidth: 0
GlyphClass: 2
Flags: W
LayerCount: 2
Fore
SplineSet
568 660 m 1
 568 219 l 1
 822 219 l 2
 1011 219 1096 304 1096 442 c 0
 1096 573 992 660 813 660 c 2
 568 660 l 1
568 1326 m 1
 568 859 l 1
 794 859 l 2
 1076 859 1313 742 1313 449 c 0
 1313 158 1142 16 803 16 c 2
 338 16 l 1
 338 1125 l 1
 33 1125 l 1
 33 1326 l 1
 568 1326 l 1
EndSplineSet
EndChar

StartChar: afii10046
Encoding: 1068 1068 189
Width: 1135
VWidth: 0
GlyphClass: 2
Flags: W
LayerCount: 2
Fore
SplineSet
379 219 m 1
 612 219 l 2
 793 219 882 304 882 442 c 0
 882 576 793 660 610 660 c 2
 379 660 l 1
 379 219 l 1
379 859 m 1
 592 859 l 2
 885 859 1102 716 1102 441 c 0
 1102 167 896 16 596 16 c 2
 153 16 l 1
 153 1326 l 1
 379 1326 l 1
 379 859 l 1
EndSplineSet
EndChar

StartChar: afii10047
Encoding: 1069 1069 190
Width: 1226
VWidth: 0
GlyphClass: 2
Flags: W
LayerCount: 2
Fore
SplineSet
165 300 m 1
 175 293 l 1
 270 229 385 187 494 187 c 0
 705 187 859 330 895 583 c 1
 305 583 l 1
 305 786 l 1
 891 786 l 1
 850 1004 707 1160 494 1160 c 0
 384 1160 272 1117 174 1048 c 1
 165 1041 l 1
 83 1236 l 1
 89 1240 l 1
 217 1323 363 1363 507 1363 c 0
 862 1363 1152 1090 1152 677 c 0
 1152 265 872 -17 511 -17 c 0
 369 -17 225 24 90 103 c 1
 83 108 l 1
 165 300 l 1
EndSplineSet
EndChar

StartChar: afii10048
Encoding: 1070 1070 191
Width: 1472
VWidth: 0
GlyphClass: 2
Flags: W
LayerCount: 2
Fore
SplineSet
1174 187 m 0
 1419 187 1524 406 1524 676 c 0
 1524 941 1417 1160 1172 1160 c 0
 930 1160 823 942 823 676 c 0
 823 605 934 187 1174 187 c 0
1175 -17 m 0
 812 -17 612 253 580 587 c 1
 379 587 l 1
 379 10 l 1
 153 10 l 1
 153 1331 l 1
 379 1331 l 1
 379 791 l 1
 583 791 l 1
 623 1113 822 1363 1173 1363 c 0
 1561 1363 1764 1056 1764 670 c 0
 1764 290 1562 -17 1175 -17 c 0
EndSplineSet
EndChar

StartChar: afii10049
Encoding: 1071 1071 192
Width: 1158
VWidth: 0
GlyphClass: 2
Flags: W
LayerCount: 2
Fore
SplineSet
296 600 m 1
 155 660 69 773 69 952 c 0
 69 1253 267 1335 576 1335 c 2
 1068 1335 l 1
 1068 0 l 1
 809 0 l 1
 809 541 l 1
 637 541 l 2
 582 541 549 542 530 541 c 1
 517 514 444 372 421 325 c 2
 268 0 l 1
 -8 0 l 1
 -2 13 l 2
 8 34 168 364 185 399 c 0
 226 483 256 549 296 600 c 1
556 1127 m 2
 389 1127 311 1071 311 945 c 0
 311 807 376 746 562 746 c 2
 809 746 l 1
 809 1127 l 1
 556 1127 l 2
EndSplineSet
EndChar

StartChar: afii10053
Encoding: 1028 1028 193
Width: 1226
VWidth: 0
GlyphClass: 2
Flags: W
LayerCount: 2
Fore
SplineSet
1145 1240 m 1
 1152 1236 l 1
 1070 1041 l 1
 1060 1048 l 2
 963 1117 851 1160 742 1160 c 0
 530 1160 384 1008 343 786 c 1
 929 786 l 1
 929 583 l 1
 340 583 l 1
 375 334 529 187 741 187 c 0
 850 187 964 229 1059 293 c 1
 1069 300 l 1
 1152 108 l 1
 1145 103 l 1
 1010 24 866 -17 724 -17 c 0
 364 -17 83 265 83 677 c 0
 83 1090 371 1363 729 1363 c 0
 872 1363 1018 1323 1145 1240 c 1
EndSplineSet
EndChar

StartChar: afii10054
Encoding: 1029 1029 194
Width: 1036
VWidth: 0
GlyphClass: 2
Flags: W
LayerCount: 2
Fore
SplineSet
505 -17 m 0
 329 -17 184 16 68 82 c 1
 133 300 l 1
 215 251 383 210 515 210 c 0
 656 210 725 262 725 385 c 0
 725 464 670 512 573 544 c 2
 349 617 l 2
 187 670 83 785 83 975 c 0
 83 1227 280 1358 548 1358 c 0
 708 1358 842 1324 963 1255 c 1
 882 1048 l 1
 790 1088 678 1128 559 1128 c 0
 426 1128 352 1087 352 980 c 0
 352 915 389 873 450 853 c 2
 658 783 l 1
 893 705 998 598 998 381 c 0
 998 119 794 -17 505 -17 c 0
EndSplineSet
EndChar

StartChar: afii10056
Encoding: 1031 1031 195
Width: 516
VWidth: 0
GlyphClass: 2
Flags: W
LayerCount: 2
Fore
SplineSet
157 1445 m 1
 -37 1445 l 1
 -37 1690 l 1
 157 1690 l 1
 157 1445 l 1
532 1445 m 1
 339 1445 l 1
 339 1690 l 1
 532 1690 l 1
 532 1445 l 1
EndSplineSet
EndChar

StartChar: afii10057
Encoding: 1032 1032 196
Width: 556
VWidth: 0
GlyphClass: 2
Flags: W
LayerCount: 2
Fore
SplineSet
-26 -285 m 1
 -38 -75 l 1
 1 -82 42 -84 65 -84 c 0
 197 -84 224 -21 224 126 c 2
 224 1342 l 1
 512 1342 l 1
 512 144 l 2
 512 -153 383 -293 67 -293 c 0
 37 -293 5 -292 -26 -285 c 1
EndSplineSet
EndChar

StartChar: afii10058
Encoding: 1033 1033 197
Width: 1654
VWidth: 0
GlyphClass: 2
Flags: W
LayerCount: 2
Fore
SplineSet
1024 611 m 1
 1024 216 l 1
 1172 216 l 2
 1353 216 1466 280 1466 415 c 0
 1466 548 1352 611 1172 611 c 2
 1024 611 l 1
48 -17 m 1
 48 174 l 1
 125 176 l 2
 264 179 282 227 282 364 c 2
 280 1326 l 1
 1006 1326 l 1
 1006 811 l 1
 1153 811 l 2
 1441 811 1688 698 1688 405 c 0
 1688 120 1457 5 1158 5 c 2
 800 5 l 1
 772 1117 l 1
 517 1117 l 1
 528 402 l 1
 528 113 443 -17 107 -17 c 2
 48 -17 l 1
EndSplineSet
EndChar

StartChar: afii10062
Encoding: 1038 1038 199
Width: 1141
VWidth: 0
GlyphClass: 2
Flags: W
LayerCount: 2
Fore
SplineSet
462 1702 m 1
 462 1693 l 2
 462 1632 488 1608 562 1608 c 0
 636 1608 663 1632 663 1693 c 2
 663 1702 l 1
 832 1702 l 1
 832 1693 l 2
 832 1527 715 1450 562 1450 c 0
 410 1450 294 1528 294 1693 c 2
 294 1702 l 1
 462 1702 l 1
EndSplineSet
EndChar

StartChar: afii10066
Encoding: 1073 1073 201
Width: 953
VWidth: 0
GlyphClass: 2
Flags: W
LayerCount: 2
Fore
SplineSet
506 180 m 0
 352 180 307 336 307 495 c 1
 344 534 450 586 521 586 c 0
 634 586 722 536 722 389 c 0
 722 248 620 180 506 180 c 0
512 -17 m 0
 773 -17 962 136 962 402 c 0
 962 655 795 797 556 797 c 0
 528 797 381 775 352 741 c 1
 365 775 451 1001 813 1001 c 1
 761 1216 l 1
 344 1216 64 931 64 480 c 0
 64 138 242 -17 512 -17 c 0
EndSplineSet
EndChar

StartChar: afii10067
Encoding: 1074 1074 202
Width: 976
VWidth: 0
GlyphClass: 2
Flags: W
LayerCount: 2
Fore
SplineSet
336 814 m 1
 336 604 l 1
 577 604 l 2
 656 604 694 659 694 711 c 0
 694 766 658 814 577 814 c 2
 336 814 l 1
336 433 m 1
 336 187 l 1
 585 187 l 2
 677 187 722 246 722 311 c 1
 721 372 676 433 585 433 c 2
 336 433 l 1
89 0 m 1
 89 1016 l 1
 559 1016 l 2
 769 1016 915 923 915 734 c 0
 915 649 874 572 789 532 c 1
 886 496 941 394 942 299 c 1
 942 98 790 0 577 0 c 2
 89 0 l 1
EndSplineSet
EndChar

StartChar: afii10068
Encoding: 1075 1075 203
Width: 649
VWidth: 0
GlyphClass: 2
Flags: W
LayerCount: 2
Fore
SplineSet
625 819 m 1
 625 1016 l 1
 89 1016 l 1
 89 0 l 1
 336 0 l 1
 336 819 l 1
 625 819 l 1
EndSplineSet
EndChar

StartChar: afii10069
Encoding: 1076 1076 204
Width: 1064
VWidth: 0
GlyphClass: 2
Flags: W
LayerCount: 2
Fore
SplineSet
711 810 m 1
 474 810 l 1
 473 771 471 676 468 647 c 1
 454 425 410 271 381 197 c 1
 711 197 l 1
 711 810 l 1
29 -302 m 1
 29 194 l 1
 106 194 l 1
 165 299 224 521 226 741 c 1
 233 1016 l 1
 956 1016 l 1
 956 194 l 1
 1064 194 l 1
 1064 -302 l 1
 848 -302 l 1
 833 0 l 1
 257 0 l 1
 249 -302 l 1
 29 -302 l 1
EndSplineSet
EndChar

StartChar: afii10070
Encoding: 1077 1077 205
Width: 1030
VWidth: 0
GlyphClass: 2
Flags: W
PickledData: "(dp1
S'com.typemytype.robofont.layerData'
p2
(dp3
s."
LayerCount: 2
Fore
SplineSet
515 1016 m 0
EndSplineSet
Refer: 298 101 N 1 0 0 1 0 0 2
Refer: 298 101 N 1 0 0 1 0 0 2
Refer: 298 101 N 1 0 0 1 0 0 2
Refer: 298 101 N 1 0 0 1 0 0 2
Refer: 298 101 N 1 0 0 1 0 0 2
Refer: 298 101 N 1 0 0 1 0 0 2
Refer: 298 101 N 1 0 0 1 0 0 2
Refer: 298 101 N 1 0 0 1 0 0 2
EndChar

StartChar: afii10072
Encoding: 1078 1078 207
Width: 1385
VWidth: 0
GlyphClass: 2
Flags: W
LayerCount: 2
Fore
SplineSet
592 603 m 1
 592 1016 l 1
 823 1016 l 1
 823 603 l 1
 1095 1016 l 1
 1387 1016 l 1
 1013 512 l 1
 1404 0 l 1
 1120 0 l 1
 823 415 l 1
 823 0 l 1
 592 0 l 1
 592 415 l 1
 294 0 l 1
 11 0 l 1
 401 512 l 1
 28 1016 l 1
 319 1016 l 1
 592 603 l 1
EndSplineSet
EndChar

StartChar: afii10073
Encoding: 1079 1079 208
Width: 874
VWidth: 0
GlyphClass: 2
Flags: W
LayerCount: 2
Fore
SplineSet
839 286 m 1
 837 386 776 481 687 521 c 1
 775 562 813 647 813 736 c 0
 813 918 635 1006 410 1006 c 0
 291 1006 144 987 62 928 c 1
 120 759 l 1
 174 797 276 823 408 823 c 0
 539 823 593 782 593 706 c 0
 593 647 551 596 458 596 c 2
 253 596 l 1
 253 419 l 1
 458 419 l 2
 563 419 620 368 620 305 c 0
 620 219 570 169 431 169 c 0
 304 169 183 200 118 243 c 1
 67 79 l 1
 147 16 273 -18 424 -18 c 0
 656 -18 839 68 839 286 c 1
EndSplineSet
EndChar

StartChar: afii10074
Encoding: 1080 1080 209
Width: 1037
VWidth: 0
GlyphClass: 2
Flags: W
LayerCount: 2
Fore
SplineSet
322 376 m 1
 322 1016 l 1
 89 1016 l 1
 89 0 l 1
 302 0 l 1
 739 558 l 1
 739 0 l 1
 969 0 l 1
 969 1016 l 1
 739 1016 l 1
 739 906 l 1
 322 376 l 1
EndSplineSet
EndChar

StartChar: afii10076
Encoding: 1082 1082 211
Width: 987
VWidth: 0
GlyphClass: 2
Flags: W
LayerCount: 2
Fore
SplineSet
89 1016 m 1
 89 0 l 1
 336 0 l 1
 336 373 l 1
 713 0 l 1
 1034 0 l 1
 512 515 l 1
 545 549 988 1015 988 1015 c 1
 691 1017 l 1
 691 1017 385 686 336 634 c 1
 336 1016 l 1
 89 1016 l 1
EndSplineSet
EndChar

StartChar: afii10077
Encoding: 1083 1083 212
Width: 1075
VWidth: 0
GlyphClass: 2
Flags: W
LayerCount: 2
Fore
SplineSet
758 1 m 1
 758 811 l 1
 395 811 l 1
 395 360 l 2
 395 94 267 -16 20 -24 c 0
 11 -25 10 181 10 181 c 1
 141 193 151 219 151 387 c 2
 151 1016 l 1
 1004 1016 l 1
 1004 1 l 1
 758 1 l 1
EndSplineSet
EndChar

StartChar: afii10078
Encoding: 1084 1084 213
Width: 1139
VWidth: 0
GlyphClass: 2
Flags: W
LayerCount: 2
Fore
SplineSet
850 1016 m 1
 1071 1016 l 1
 1071 0 l 1
 841 0 l 1
 841 628 l 1
 634 309 l 1
 527 309 l 1
 322 627 l 1
 322 0 l 1
 89 0 l 1
 89 1016 l 1
 311 1016 l 1
 580 600 l 1
 850 1016 l 1
EndSplineSet
EndChar

StartChar: afii10079
Encoding: 1085 1085 214
Width: 1047
VWidth: 0
GlyphClass: 2
Flags: W
LayerCount: 2
Fore
SplineSet
732 641 m 1
 732 1016 l 1
 978 1016 l 1
 978 0 l 1
 732 0 l 1
 732 449 l 1
 336 449 l 1
 336 0 l 1
 89 0 l 1
 89 1016 l 1
 336 1016 l 1
 336 641 l 1
 732 641 l 1
EndSplineSet
EndChar

StartChar: afii10081
Encoding: 1087 1087 216
Width: 1056
VWidth: 0
GlyphClass: 2
Flags: W
LayerCount: 2
Fore
SplineSet
732 0 m 1
 732 821 l 1
 343 821 l 1
 343 0 l 1
 97 0 l 1
 97 1016 l 1
 979 1016 l 1
 979 0 l 1
 732 0 l 1
EndSplineSet
EndChar

StartChar: afii10082
Encoding: 1088 1088 217
Width: 1101
VWidth: 0
GlyphClass: 2
Flags: W
LayerCount: 2
Fore
SplineSet
607 179 m 0
 733 179 817 291 817 515 c 0
 817 746 730 844 603 844 c 0
 467 844 384 755 382 530 c 1
 382 277 463 179 607 179 c 0
130 1017 m 1
 349 1017 l 1
 371 906 l 1
 430 976 548 1041 676 1041 c 0
 924 1041 1070 806 1070 513 c 0
 1070 207 915 -18 655 -18 c 0
 540 -18 446 28 379 99 c 1
 382 54 384 13 384 -15 c 2
 384 -395 l 1
 130 -408 l 1
 130 1017 l 1
EndSplineSet
EndChar

StartChar: afii10084
Encoding: 1090 1090 219
Width: 784
VWidth: 0
GlyphClass: 2
Flags: W
LayerCount: 2
Fore
SplineSet
797 1016 m 1
 797 837 l 1
 523 837 l 1
 523 0 l 1
 284 0 l 1
 284 837 l 1
 3 837 l 1
 3 1016 l 1
 797 1016 l 1
EndSplineSet
EndChar

StartChar: afii10085
Encoding: 1091 1091 220
Width: 971
VWidth: 0
GlyphClass: 2
Flags: W
LayerCount: 2
Fore
SplineSet
63 -365 m 1
 36 -172 l 1
 36 -172 314 -183 378 46 c 1
 -12 1016 l 1
 248 1016 l 1
 502 350 l 1
 726 1016 l 1
 991 1016 l 1
 600 -33 l 1
 500 -296 63 -365 63 -365 c 1
EndSplineSet
EndChar

StartChar: afii10086
Encoding: 1092 1092 221
Width: 1303
VWidth: 0
GlyphClass: 2
Flags: W
LayerCount: 2
Fore
SplineSet
870 196 m 0
 974 196 1027 353 1027 506 c 0
 1027 660 960 824 858 824 c 0
 850 824 805 825 785 821 c 1
 785 200 l 1
 804 197 863 196 870 196 c 0
453 196 m 0
 462 196 517 196 540 199 c 1
 540 820 l 1
 524 822 474 823 467 823 c 0
 364 823 297 659 297 505 c 0
 297 351 350 196 453 196 c 0
785 -165 m 1
 540 -165 l 1
 540 17 l 1
 516 14 457 13 449 13 c 0
 207 13 70 274 70 511 c 0
 70 751 222 1007 465 1007 c 0
 474 1007 516 1006 540 1003 c 1
 540 1156 l 1
 785 1156 l 1
 785 1003 l 1
 805 1005 852 1007 860 1007 c 0
 1103 1007 1255 750 1255 510 c 0
 1255 272 1116 13 875 13 c 0
 866 13 812 14 785 17 c 1
 785 -165 l 1
EndSplineSet
EndChar

StartChar: afii10088
Encoding: 1094 1094 223
Width: 1059
VWidth: 0
GlyphClass: 2
Flags: W
LayerCount: 2
Fore
SplineSet
1052 -302 m 1
 1052 114 l 1
 943 114 l 1
 943 1016 l 1
 697 1016 l 1
 697 193 l 1
 339 193 l 1
 339 1016 l 1
 92 1016 l 1
 92 0 l 1
 826 0 l 1
 845 -302 l 1
 1052 -302 l 1
EndSplineSet
EndChar

StartChar: afii10089
Encoding: 1095 1095 224
Width: 1028
VWidth: 0
GlyphClass: 2
Flags: W
LayerCount: 2
Fore
SplineSet
959 0 m 1
 712 0 l 1
 712 429 l 1
 660 378 575 342 451 342 c 1
 173 345 52 508 52 758 c 2
 52 1016 l 1
 298 1016 l 1
 298 802 l 2
 298 666 319 541 493 541 c 0
 639 541 706 626 712 678 c 1
 712 1016 l 1
 959 1016 l 1
 959 0 l 1
EndSplineSet
EndChar

StartChar: afii10090
Encoding: 1096 1096 225
Width: 1301
VWidth: 0
GlyphClass: 2
Flags: W
LayerCount: 2
Fore
SplineSet
546 195 m 1
 546 1016 l 1
 777 1016 l 1
 777 195 l 1
 1002 195 l 1
 1002 1016 l 1
 1233 1016 l 1
 1233 0 l 1
 89 0 l 1
 89 1016 l 1
 322 1016 l 1
 322 195 l 1
 546 195 l 1
EndSplineSet
EndChar

StartChar: afii10091
Encoding: 1097 1097 226
Width: 1356
VWidth: 0
GlyphClass: 2
Flags: W
LayerCount: 2
Fore
SplineSet
1131 -295 m 1
 1342 -295 l 1
 1342 113 l 1
 1233 113 l 1
 1233 1016 l 1
 1003 1016 l 1
 1003 193 l 1
 777 193 l 1
 777 1016 l 1
 547 1016 l 1
 547 193 l 1
 322 193 l 1
 322 1016 l 1
 89 1016 l 1
 89 0 l 1
 1117 0 l 1
 1131 -295 l 1
EndSplineSet
EndChar

StartChar: afii10092
Encoding: 1098 1098 227
Width: 1042
VWidth: 0
GlyphClass: 2
Flags: W
LayerCount: 2
Fore
SplineSet
435 188 m 1
 435 467 l 1
 649 467 l 2
 743 467 789 399 789 333 c 0
 789 259 741 188 655 188 c 2
 435 188 l 1
190 0 m 1
 669 0 l 2
 878 0 1014 133 1014 329 c 0
 1014 539 849 647 656 647 c 2
 434 647 l 1
 434 1016 l 1
 -2 1016 l 1
 -2 823 l 1
 190 823 l 1
 190 0 l 1
EndSplineSet
EndChar

StartChar: afii10094
Encoding: 1100 1100 228
Width: 927
VWidth: 0
GlyphClass: 2
Flags: W
LayerCount: 2
Fore
SplineSet
336 470 m 1
 336 188 l 1
 541 188 l 2
 626 188 673 261 673 336 c 0
 673 405 629 470 536 470 c 2
 336 470 l 1
335 1017 m 1
 335 652 l 1
 542 652 l 2
 734 652 899 543 899 332 c 0
 899 136 762 0 554 0 c 2
 89 0 l 1
 89 1017 l 1
 335 1017 l 1
EndSplineSet
EndChar

StartChar: afii10095
Encoding: 1101 1101 229
Width: 868
VWidth: 0
GlyphClass: 2
Flags: W
LayerCount: 2
Fore
SplineSet
338 -19 m 0
 216 -19 127 12 48 67 c 1
 105 241 l 1
 165 201 240 168 325 168 c 0
 462 168 557 244 585 420 c 1
 153 420 l 1
 153 602 l 1
 585 602 l 1
 560 772 465 844 329 844 c 0
 244 844 151 804 109 774 c 1
 56 946 l 1
 132 1005 226 1034 351 1034 c 0
 606 1034 831 859 831 523 c 0
 831 178 629 -19 338 -19 c 0
EndSplineSet
EndChar

StartChar: afii10096
Encoding: 1102 1102 230
Width: 1360
VWidth: 0
GlyphClass: 2
Flags: W
LayerCount: 2
Fore
SplineSet
885 168 m 0
 1029 168 1084 326 1084 509 c 0
 1084 703 1034 847 885 847 c 0
 746 847 677 693 677 508 c 0
 677 325 743 168 885 168 c 0
885 -18 m 0
 621 -18 478 175 445 410 c 1
 336 410 l 1
 336 0 l 1
 89 0 l 1
 89 1016 l 1
 336 1016 l 1
 336 610 l 1
 445 610 l 1
 479 850 624 1034 885 1034 c 0
 1178 1034 1325 802 1325 511 c 0
 1325 227 1171 -18 885 -18 c 0
EndSplineSet
EndChar

StartChar: afii10097
Encoding: 1103 1103 231
Width: 992
VWidth: 0
GlyphClass: 2
Flags: W
LayerCount: 2
Fore
SplineSet
460 588 m 2
 367 588 327 705 327 705 c 1
 327 764 368 813 460 813 c 2
 680 813 l 1
 680 588 l 1
 460 588 l 2
63 0 m 1
 338 0 l 1
 524 392 l 1
 680 392 l 1
 680 0 l 1
 926 0 l 1
 926 1016 l 1
 438 1016 l 2
 231 1016 83 898 83 705 c 0
 83 570 170 475 284 430 c 1
 63 0 l 1
EndSplineSet
EndChar

StartChar: afii10099
Encoding: 1106 1106 232
Width: 974
VWidth: 0
GlyphClass: 2
Flags: W
LayerCount: 2
Fore
SplineSet
539 -252 m 1
 527 -106 l 1
 574 -106 l 2
 721 -106 734 -86 734 104 c 2
 734 340 l 2
 734 562 706 664 550 664 c 0
 407 664 290 542 266 453 c 1
 266 0 l 1
 96 0 l 1
 96 995 l 1
 13 995 l 1
 13 1119 l 1
 96 1119 l 1
 96 1382 l 1
 266 1382 l 1
 266 1119 l 1
 628 1119 l 1
 628 994 l 1
 266 994 l 1
 266 682 l 1
 340 770 439 824 564 824 c 0
 798 824 902 676 902 414 c 2
 902 155 l 2
 902 -120 879 -252 609 -252 c 2
 539 -252 l 1
EndSplineSet
EndChar

StartChar: afii10101
Encoding: 1108 1108 234
Width: 868
VWidth: 0
GlyphClass: 2
Flags: W
LayerCount: 2
Fore
SplineSet
825 946 m 1
 830 942 l 1
 783 767 l 1
 772 774 l 1
 711 816 631 845 551 845 c 0
 423 845 321 773 295 609 c 1
 728 609 l 1
 728 428 l 1
 296 428 l 1
 324 256 429 168 560 168 c 0
 631 168 704 192 774 241 c 1
 786 249 l 1
 839 71 l 1
 833 67 l 1
 754 12 664 -19 543 -19 c 0
 252 -19 49 178 49 523 c 0
 49 859 275 1039 529 1039 c 0
 654 1039 749 1004 825 946 c 1
EndSplineSet
EndChar

StartChar: afii10102
Encoding: 1109 1109 235
Width: 860
VWidth: 0
GlyphClass: 2
Flags: W
LayerCount: 2
Fore
SplineSet
426 -17 m 0
 280 -17 163 9 78 57 c 1
 73 61 l 1
 99 257 l 1
 111 250 l 1
 181 212 318 167 418 167 c 0
 513 167 566 204 568 275 c 1
 568 340 510 361 389 421 c 1
 388 421 l 1
 378 427 348 442 336 448 c 1
 336 447 l 1
 167 526 77 586 76 748 c 1
 76 940 223 1041 449 1041 c 0
 572 1041 681 1017 777 969 c 2
 785 965 l 1
 720 785 l 1
 711 790 l 1
 637 825 541 854 452 854 c 0
 365 854 317 827 317 768 c 0
 317 709 364 694 491 637 c 0
 508 630 528 620 546 612 c 0
 717 540 811 466 811 306 c 0
 811 99 667 -17 426 -17 c 0
EndSplineSet
EndChar

StartChar: afii10103
Encoding: 1110 1110 236
Width: 447
VWidth: 0
GlyphClass: 2
Flags: W
LayerCount: 2
Fore
SplineSet
384 0 m 1
 130 0 l 1
 130 1017 l 1
 384 1017 l 1
 384 0 l 1
130 1139 m 1
 130 1357 l 1
 384 1357 l 1
 384 1139 l 1
 130 1139 l 1
EndSplineSet
EndChar

StartChar: afii10105
Encoding: 1112 1112 238
Width: 461
VWidth: 0
GlyphClass: 2
Flags: W
LayerCount: 2
Fore
SplineSet
24 -379 m 2
 -36 -379 l 1
 -65 -187 l 1
 -3 -187 l 2
 138 -187 151 -149 151 -4 c 2
 151 1017 l 1
 404 1017 l 1
 404 40 l 2
 404 -240 342 -379 24 -379 c 2
404 1139 m 1
 151 1139 l 1
 151 1357 l 1
 404 1357 l 1
 404 1139 l 1
EndSplineSet
EndChar

StartChar: afii10107
Encoding: 1114 1114 239
Width: 1486
VWidth: 0
GlyphClass: 2
Flags: W
LayerCount: 2
Fore
SplineSet
940 463 m 1
 940 191 l 1
 1100 191 l 2
 1195 191 1246 255 1246 333 c 0
 1246 406 1193 463 1099 463 c 2
 940 463 l 1
696 642 m 1
 696 1016 l 1
 940 1016 l 1
 940 643 l 1
 1111 643 l 2
 1318 643 1457 544 1457 328 c 0
 1457 138 1315 0 1110 0 c 2
 696 0 l 1
 696 437 l 1
 336 437 l 1
 336 0 l 1
 89 0 l 1
 89 1016 l 1
 336 1016 l 1
 336 642 l 1
 696 642 l 1
EndSplineSet
EndChar

StartChar: afii10108
Encoding: 1115 1115 240
Width: 974
VWidth: 0
GlyphClass: 2
Flags: W
LayerCount: 2
Fore
SplineSet
266 0 m 1
 266 453 l 1
 290 542 407 664 550 664 c 0
 706 664 734 563 734 340 c 2
 734 0 l 1
 902 0 l 1
 902 412 l 2
 902 675 798 824 564 824 c 0
 439 824 340 770 266 682 c 1
 266 995 l 1
 628 995 l 1
 628 1120 l 1
 266 1120 l 1
 266 1382 l 1
 96 1382 l 1
 96 1120 l 1
 13 1120 l 1
 13 996 l 1
 96 996 l 1
 96 0 l 1
 266 0 l 1
EndSplineSet
EndChar

StartChar: afii10193
Encoding: 1119 1119 243
Width: 1017
VWidth: 0
GlyphClass: 2
Flags: W
LayerCount: 2
Fore
SplineSet
336 1016 m 1
 336 193 l 1
 696 193 l 1
 696 1016 l 1
 943 1016 l 1
 943 0 l 1
 642 0 l 1
 630 -304 l 1
 424 -304 l 1
 415 0 l 1
 89 0 l 1
 89 1016 l 1
 336 1016 l 1
EndSplineSet
EndChar

StartChar: afii57929
Encoding: 700 700 244
Width: 334
VWidth: 0
GlyphClass: 2
Flags: W
LayerCount: 2
Fore
SplineSet
91 877 m 1
 85 1357 l 1
 287 1357 l 1
 236 877 l 1
 91 877 l 1
EndSplineSet
EndChar

StartChar: afii61352
Encoding: 8470 8470 245
Width: 2438
VWidth: 0
GlyphClass: 2
Flags: W
LayerCount: 2
Fore
SplineSet
1015 384 m 1
 1014 461 996 793 996 801 c 2
 996 1342 l 1
 1282 1342 l 1
 1282 0 l 1
 975 0 l 1
 387 945 l 1
 387 945 415 430 415 409 c 2
 415 0 l 1
 130 0 l 1
 130 1342 l 1
 426 1342 l 1
 1015 384 l 1
1916 844 m 0
 2067 844 2141 730 2141 512 c 0
 2141 296 2067 178 1917 178 c 0
 1766 178 1691 296 1691 511 c 0
 1691 729 1767 844 1916 844 c 0
1912 -18 m 0
 2220 -18 2394 195 2394 512 c 0
 2394 825 2218 1041 1921 1041 c 0
 1613 1041 1439 833 1439 512 c 0
 1439 200 1617 -18 1912 -18 c 0
EndSplineSet
EndChar

StartChar: alpha
Encoding: 945 945 247
Width: 407
VWidth: 0
GlyphClass: 2
Flags: W
LayerCount: 2
Fore
SplineSet
215 483 m 0
 131 483 87 547 87 610 c 0
 87 673 131 737 215 737 c 0
 300 737 342 673 342 610 c 0
 342 547 300 483 215 483 c 0
EndSplineSet
EndChar

StartChar: alphatonos
Encoding: 940 940 248
Width: 407
VWidth: 0
GlyphClass: 2
Flags: W
LayerCount: 2
Fore
SplineSet
215 483 m 0
 131 483 87 547 87 610 c 0
 87 673 131 737 215 737 c 0
 300 737 342 673 342 610 c 0
 342 547 300 483 215 483 c 0
EndSplineSet
EndChar

StartChar: ampersand
Encoding: 38 38 250
Width: 1331
VWidth: 0
GlyphClass: 2
Flags: W
PickledData: "(dp1
S'com.typemytype.robofont.layerData'
p2
(dp3
s."
LayerCount: 2
Fore
SplineSet
581 863 m 1
 524 924 483 984 483 1061 c 0
 483 1150 538 1189 621 1189 c 0
 698 1189 754 1151 754 1067 c 0
 754 968 668 911 581 863 c 1
592 178 m 0
 450 178 340 247 340 399 c 0
 340 518 422 574 522 630 c 1
 569 578 805 320 854 266 c 1
 782 210 687 178 592 178 c 0
587 -1 m 0
 733 -1 872 49 987 134 c 1
 1111 4 l 1
 1319 57 l 1
 1130 256 l 1
 1189 322 1246 409 1286 488 c 1
 1117 597 l 1
 1083 533 1034 456 989 403 c 1
 697 725 l 1
 835 795 973 898 973 1068 c 0
 973 1275 782 1359 614 1359 c 0
 433 1359 268 1263 268 1052 c 0
 268 936 341 851 409 772 c 1
 256 688 115 585 115 389 c 0
 115 111 344 -1 587 -1 c 0
EndSplineSet
EndChar

StartChar: approxequal
Encoding: 8776 8776 252
Width: 1151
VWidth: 0
GlyphClass: 2
Flags: W
LayerCount: 2
Fore
SplineSet
212 472 m 1
 244 544 295 602 375 602 c 0
 438 602 485 581 543 551 c 1
 633 507 699 478 788 478 c 0
 928 478 1044 573 1087 673 c 1
 998 789 l 1
 926 700 871 667 803 667 c 0
 752 667 699 685 622 723 c 1
 546 759 462 789 382 789 c 0
 240 789 157 703 114 594 c 1
 212 472 l 1
212 104 m 1
 245 176 295 234 376 234 c 0
 439 234 485 213 543 183 c 1
 634 139 700 110 789 110 c 0
 929 110 1044 206 1087 305 c 1
 999 421 l 1
 925 333 871 299 803 299 c 0
 753 299 695 321 620 357 c 1
 548 390 464 421 383 421 c 0
 241 421 158 335 114 226 c 1
 212 104 l 1
EndSplineSet
EndChar

StartChar: asciicircum
Encoding: 94 94 255
Width: 1081
VWidth: 0
GlyphClass: 2
Flags: W
PickledData: "(dp1
S'com.typemytype.robofont.layerData'
p2
(dp3
s."
LayerCount: 2
Fore
SplineSet
46 491 m 1
 465 1347 l 1
 590 1347 l 1
 1035 491 l 1
 826 491 l 1
 529 1075 l 1
 255 491 l 1
 46 491 l 1
EndSplineSet
EndChar

StartChar: asciitilde
Encoding: 126 126 256
Width: 1139
VWidth: 0
GlyphClass: 2
Flags: W
LayerCount: 2
Fore
SplineSet
196 433 m 1
 112 571 l 1
 159 667 237 750 375 750 c 0
 453 750 534 724 610 691 c 0
 689 656 747 635 797 635 c 0
 864 635 925 670 999 753 c 1
 1077 620 l 1
 1029 530 915 443 783 443 c 0
 696 443 632 470 547 508 c 1
 482 539 431 561 367 561 c 0
 289 561 232 500 196 433 c 1
EndSplineSet
EndChar

StartChar: asterisk
Encoding: 42 42 257
Width: 1093
VWidth: 0
GlyphClass: 2
Flags: W
PickledData: "(dp1
S'com.typemytype.robofont.layerData'
p2
(dp3
s."
LayerCount: 2
Fore
SplineSet
167 1117 m 1
 466 993 l 1
 435 1336 l 1
 656 1336 l 1
 627 993 l 1
 929 1117 l 1
 990 904 l 1
 683 836 l 1
 721 788 896 568 896 568 c 1
 700 456 l 1
 545 741 l 1
 397 458 l 1
 196 568 l 1
 409 836 l 1
 103 904 l 1
 167 1117 l 1
EndSplineSet
EndChar

StartChar: at
Encoding: 64 64 258
Width: 1742
VWidth: 0
GlyphClass: 2
Flags: W
PickledData: "(dp1
S'com.typemytype.robofont.layerData'
p2
(dp3
s."
LayerCount: 2
Fore
SplineSet
813 360 m 0
 949 360 994 487 1016 664 c 0
 1025 732 1033 803 1040 872 c 1
 1005.09 884.322 972.219 889.984 941.604 889.984 c 0
 775.144 889.984 675.296 722.608 675.296 548.574 c 0
 675.296 445.922 717.575 360 813 360 c 0
855 -119 m 0
 434 -119 132 157 132 596 c 0
 132 1034 466 1358 915 1358 c 0
 1304 1358 1610 1106 1610 713 c 0
 1610 400.104 1419.86 242.983 1264.8 242.983 c 0
 1164.64 242.983 1074.94 308.534 1051 440 c 1
 1029 352 914 244 796 244 c 0
 603.461 244 514.497 390.087 514.497 553.824 c 0
 514.497 762.568 659.089 1000 918 1000 c 0
 1004 1000 1144 975 1221 930 c 1
 1196 750 1162 586 1162 476 c 0
 1162 409.794 1208.92 367.948 1265.55 367.948 c 0
 1351.77 367.948 1460.51 464.935 1460.51 720.599 c 0
 1460.51 959.575 1316.62 1225 907 1225 c 0
 506.785 1225 299.692 902.323 299.692 590.233 c 0
 299.692 297.975 481.305 15 856 15 c 0
 1003 15 1164 50 1283 118 c 1
 1325 -3 l 1
 1210 -80 1026 -119 855 -119 c 0
EndSplineSet
EndChar

StartChar: b
Encoding: 98 98 260
Width: 1218
VWidth: 0
GlyphClass: 2
Flags: W
PickledData: "(dp1
S'com.typemytype.robofont.layerData'
p2
(dp3
s."
LayerCount: 2
Fore
SplineSet
632 179 m 0
 490 179 410 277 410 527 c 1
 412 757 500 845 635 845 c 0
 760 845 844 744 844 516 c 0
 844 290 757 179 632 179 c 0
689 -18 m 0
 942 -18 1100 202 1100 519 c 0
 1100 819 952 1041 693 1041 c 0
 549 1041 460 969 409 908 c 1
 411 974 415 1028 415 1079 c 2
 415 1393 l 1
 159 1376 l 1
 159 1 l 1
 380 1 l 1
 400 127 l 1
 454 50 556 -18 689 -18 c 0
EndSplineSet
EndChar

StartChar: backslash
Encoding: 92 92 261
Width: 843
VWidth: 0
GlyphClass: 2
Flags: W
PickledData: "(dp1
S'com.typemytype.robofont.layerData'
p2
(dp3
s."
LayerCount: 2
Fore
SplineSet
539 0 m 1
 98 1336 l 1
 329 1336 l 1
 765 0 l 1
 539 0 l 1
EndSplineSet
EndChar

StartChar: bar
Encoding: 124 124 262
Width: 605
VWidth: 0
GlyphClass: 2
Flags: W
PickledData: "(dp1
S'com.typemytype.robofont.layerData'
p2
(dp3
s."
LayerCount: 2
Fore
SplineSet
213 -256 m 1
 213 1456 l 1
 414 1456 l 1
 414 -256 l 1
 213 -256 l 1
EndSplineSet
EndChar

StartChar: beta
Encoding: 946 946 263
Width: 407
VWidth: 0
GlyphClass: 2
Flags: W
LayerCount: 2
Fore
SplineSet
215 483 m 0
 131 483 87 547 87 610 c 0
 87 673 131 737 215 737 c 0
 300 737 342 673 342 610 c 0
 342 547 300 483 215 483 c 0
EndSplineSet
EndChar

StartChar: braceleft
Encoding: 123 123 264
Width: 691
VWidth: 0
GlyphClass: 2
Flags: W
LayerCount: 2
Fore
SplineSet
240 277 m 2
 240 413 204 458 49 458 c 2
 39 458 l 1
 39 671 l 1
 49 671 l 1
 211 672 240 711 240 849 c 2
 240 1112 l 2
 240 1325 377 1383 630 1383 c 2
 640 1383 l 1
 640 1183 l 1
 630 1183 l 1
 504 1181 485 1150 485 1037 c 2
 485 796 l 1
 483 676 432 613 318 564 c 1
 424 533 485 461 485 340 c 2
 485 97 l 2
 485 -16 503 -45 630 -47 c 1
 640 -47 l 1
 640 -245 l 1
 630 -245 l 2
 373 -245 240 -186 240 30 c 2
 240 277 l 2
EndSplineSet
EndChar

StartChar: braceright
Encoding: 125 125 265
Width: 691
VWidth: 0
GlyphClass: 2
Flags: W
LayerCount: 2
Fore
SplineSet
80 -245 m 1
 80 -47 l 1
 206 -45 224 -17 224 97 c 2
 224 340 l 2
 224 462 282 525 392 564 c 1
 281 605 226 675 224 796 c 1
 224 1037 l 2
 224 1151 207 1181 80 1183 c 1
 80 1383 l 1
 336 1383 469 1326 469 1104 c 2
 469 848 l 2
 469 712 500 672 661 671 c 1
 661 458 l 1
 506 458 469 416 469 277 c 2
 469 22 l 2
 469 -189 339 -245 80 -245 c 1
EndSplineSet
EndChar

StartChar: bracketleft
Encoding: 91 91 266
Width: 756
VWidth: 0
GlyphClass: 2
Flags: W
PickledData: "(dp1
S'com.typemytype.robofont.layerData'
p2
(dp3
s."
LayerCount: 2
Fore
SplineSet
443 1254 m 1
 443 73 l 1
 630 73 l 1
 630 -108 l 1
 198 -108 l 1
 198 1434 l 1
 630 1434 l 1
 630 1254 l 1
 443 1254 l 1
EndSplineSet
EndChar

StartChar: bracketright
Encoding: 93 93 267
Width: 756
VWidth: 0
GlyphClass: 2
Flags: W
PickledData: "(dp1
S'com.typemytype.robofont.layerData'
p2
(dp3
s."
LayerCount: 2
Fore
SplineSet
313 72 m 1
 313 1253 l 1
 126 1253 l 1
 126 1434 l 1
 558 1434 l 1
 558 -108 l 1
 126 -108 l 1
 126 72 l 1
 313 72 l 1
EndSplineSet
EndChar

StartChar: breve
Encoding: 728 728 268
Width: 622
VWidth: 0
GlyphClass: 2
Flags: W
LayerCount: 2
Fore
SplineSet
586 1345 m 1
 417 1345 l 1
 417 1284 390 1260 316 1260 c 0
 242 1260 216 1284 216 1345 c 1
 48 1345 l 1
 48 1180 164 1102 316 1102 c 0
 469 1102 586 1179 586 1345 c 1
EndSplineSet
EndChar

StartChar: brokenbar
Encoding: 166 166 269
Width: 718
VWidth: 0
GlyphClass: 2
Flags: W
LayerCount: 2
Fore
SplineSet
266 739 m 1
 266 1406 l 1
 467 1406 l 1
 467 739 l 1
 266 739 l 1
266 -337 m 1
 266 331 l 1
 467 331 l 1
 467 -337 l 1
 266 -337 l 1
EndSplineSet
EndChar

StartChar: bullet
Encoding: 8226 8226 270
Width: 871
VWidth: 0
GlyphClass: 2
Flags: W
LayerCount: 2
Fore
SplineSet
443 324 m 0
 258 324 121 457 121 635 c 0
 121 813 264 950 448 950 c 0
 631 950 769 819 769 641 c 0
 769 462 628 324 443 324 c 0
EndSplineSet
EndChar

StartChar: c
Encoding: 99 99 271
Width: 993
VWidth: 0
GlyphClass: 2
Flags: W
PickledData: "(dp1
S'com.typemytype.robofont.layerData'
p2
(dp3
s."
LayerCount: 2
Fore
SplineSet
601 -18 m 0
 306 -18 119 170 119 516 c 0
 119 856 327 1041 604 1041 c 0
 722 1041 819 1013 905 959 c 1
 845 781 l 1
 807 797 768 840 634 840 c 1
 490 833 375 735 375 513 c 0
 375 292 482 190 627 183 c 0
 717 178 791 207 862 247 c 1
 895 64 l 1
 859 45 792 -18 601 -18 c 0
EndSplineSet
EndChar

StartChar: caron
Encoding: 711 711 273
Width: 679
VWidth: 0
GlyphClass: 2
Flags: W
LayerCount: 2
Fore
SplineSet
271 1076 m 1
 23 1413 l 1
 224 1413 l 1
 354 1242 l 1
 504 1413 l 1
 709 1413 l 1
 461 1076 l 1
 271 1076 l 1
EndSplineSet
EndChar

StartChar: cedilla
Encoding: 184 184 278
Width: 514
VWidth: 0
GlyphClass: 2
Flags: W
LayerCount: 2
Fore
SplineSet
46 -297 m 1
 162 60 l 1
 309 60 l 1
 255 -297 l 1
 46 -297 l 1
EndSplineSet
EndChar

StartChar: cent
Encoding: 162 162 279
Width: 945
VWidth: 0
GlyphClass: 2
Flags: W
LayerCount: 2
Fore
SplineSet
500 250 m 1
 382 280 307 384 307 576 c 0
 307 766 390 861 500 885 c 1
 500 250 l 1
500 -183 m 1
 605 -183 l 1
 605 47 l 1
 700 55 774 84 842 132 c 1
 784 304 l 1
 739 272 675 243 605 235 c 1
 605 880 l 1
 676 870 743 842 781 815 c 1
 833 985 l 1
 772 1031 698 1059 605 1068 c 1
 605 1266 l 1
 500 1266 l 1
 500 1070 l 1
 262 1051 68 880 67 574 c 1
 67 258 244 71 500 47 c 1
 500 -183 l 1
EndSplineSet
EndChar

StartChar: chi
Encoding: 967 967 280
Width: 1015
VWidth: 0
GlyphClass: 2
Flags: W
LayerCount: 2
Fore
SplineSet
540 688 m 1
 756 1017 l 1
 1040 1017 l 1
 701 521 l 1
 1051 0 l 1
 760 0 l 1
 540 355 l 1
 315 0 l 1
 28 0 l 1
 381 520 l 1
 45 1017 l 1
 333 1017 l 1
 540 688 l 1
EndSplineSet
EndChar

StartChar: circumflex
Encoding: 710 710 281
Width: 680
VWidth: 0
GlyphClass: 2
Flags: W
LayerCount: 2
Fore
SplineSet
31 1045 m 1
 266 1413 l 1
 462 1413 l 1
 698 1045 l 1
 512 1045 l 1
 354 1239 l 1
 212 1045 l 1
 31 1045 l 1
EndSplineSet
EndChar

StartChar: colon
Encoding: 58 58 282
Width: 638
VWidth: 0
GlyphClass: 2
Flags: W
PickledData: "(dp1
S'com.typemytype.robofont.layerData'
p2
(dp3
s."
LayerCount: 2
Fore
SplineSet
191 761 m 1
 191 1016 l 1
 447 1016 l 1
 447 761 l 1
 191 761 l 1
191 0 m 1
 191 266 l 1
 447 266 l 1
 447 0 l 1
 191 0 l 1
EndSplineSet
EndChar

StartChar: comma
Encoding: 44 44 283
Width: 528
VWidth: 0
GlyphClass: 2
Flags: W
PickledData: "(dp1
S'com.typemytype.robofont.layerData'
p2
(dp3
s."
LayerCount: 2
Fore
SplineSet
310 -233 m 1
 133 -233 l 1
 221 245 l 1
 458 245 l 1
 453 190 l 1
 310 -233 l 1
EndSplineSet
EndChar

StartChar: copyright
Encoding: 169 169 284
Width: 1533
VWidth: 0
GlyphClass: 2
Flags: W
LayerCount: 2
Fore
SplineSet
771 0 m 0
 1150 0 1472 285 1472 688 c 0
 1472 1090 1148 1377 770 1377 c 0
 395 1377 72 1091 72 688 c 0
 72 285 396 0 771 0 c 0
771 108 m 0
 439 108 195 367 195 688 c 0
 195 1007 439 1268 770 1268 c 0
 1106 1268 1350 1007 1350 687 c 0
 1350 367 1107 108 771 108 c 0
759 236 m 0
 868 236 963 263 1035 310 c 1
 986 419 l 1
 923 381 838 361 772 361 c 0
 600 361 491 487 491 679 c 0
 491 874 599 1003 769 1003 c 0
 835 1003 917 984 981 946 c 1
 1034 1054 l 1
 960 1104 867 1129 758 1129 c 0
 511 1129 342 929 342 679 c 0
 342 422 519 236 759 236 c 0
EndSplineSet
EndChar

StartChar: currency
Encoding: 164 164 285
Width: 1017
VWidth: 0
GlyphClass: 2
Flags: W
LayerCount: 2
Fore
SplineSet
519 434 m 0
 651 434 757 541 757 675 c 0
 757 809 650 917 519 917 c 0
 389 917 283 808 283 675 c 0
 283 541 389 434 519 434 c 0
999 308 m 1
 906 210 l 1
 739 366 l 1
 677 320 602 291 519 291 c 0
 434 291 359 317 296 365 c 1
 136 211 l 1
 38 306 l 1
 203 464 l 1
 164 525 139 597 139 675 c 0
 139 752 162 822 203 887 c 1
 37 1046 l 1
 136 1142 l 1
 298 987 l 1
 359 1032 437 1060 519 1060 c 0
 603 1060 675 1034 739 985 c 1
 906 1142 l 1
 1000 1045 l 1
 835 887 l 1
 874 826 899 753 899 675 c 0
 899 597 877 528 836 464 c 1
 999 308 l 1
EndSplineSet
EndChar

StartChar: d
Encoding: 100 100 286
Width: 1218
VWidth: 0
GlyphClass: 2
Flags: W
PickledData: "(dp1
S'com.typemytype.robofont.layerData'
p2
(dp3
s."
LayerCount: 2
Fore
SplineSet
590 179 m 0
 462 179 374 285 374 512 c 0
 374 742 463 843 588 843 c 0
 733 843 814 748 814 497 c 1
 812 267 729 179 590 179 c 0
534 -17 m 0
 703 -17 775 55 815 117 c 1
 839 0 l 1
 1059 0 l 1
 1059 1393 l 1
 803 1376 l 1
 803 1052 l 2
 803 1017 807 963 811 920 c 1
 767 978 686 1041 534 1041 c 0
 272 1041 118 826 118 517 c 0
 118 200 273 -17 534 -17 c 0
EndSplineSet
EndChar

StartChar: dagger
Encoding: 8224 8224 287
Width: 856
VWidth: 0
GlyphClass: 2
Flags: W
LayerCount: 2
Fore
SplineSet
335 1052 m 1
 335 1360 l 1
 526 1360 l 1
 526 1052 l 1
 822 1052 l 1
 822 872 l 1
 518 872 l 1
 518 102 l 1
 335 102 l 1
 335 872 l 1
 54 872 l 1
 54 1052 l 1
 335 1052 l 1
EndSplineSet
EndChar

StartChar: daggerdbl
Encoding: 8225 8225 288
Width: 870
VWidth: 0
GlyphClass: 2
Flags: W
LayerCount: 2
Fore
SplineSet
352 498 m 1
 352 863 l 1
 109 863 l 1
 109 1037 l 1
 352 1037 l 1
 352 1354 l 1
 543 1354 l 1
 543 1037 l 1
 788 1037 l 1
 788 863 l 1
 543 863 l 1
 544 498 l 1
 785 498 l 1
 785 335 l 1
 544 335 l 1
 544 -23 l 1
 352 -23 l 1
 352 335 l 1
 107 335 l 1
 107 498 l 1
 352 498 l 1
EndSplineSet
EndChar

StartChar: degree
Encoding: 176 176 290
Width: 748
VWidth: 0
GlyphClass: 2
Flags: W
LayerCount: 2
Fore
SplineSet
384 774 m 0
 197 774 93 913 93 1057 c 0
 93 1204 200 1332 384 1332 c 0
 565 1332 673 1204 673 1057 c 0
 673 914 570 774 384 774 c 0
384 908 m 0
 454 908 519 961 519 1052 c 0
 519 1141 454 1191 385 1191 c 0
 314 1191 247 1141 247 1052 c 0
 247 961 314 908 384 908 c 0
EndSplineSet
EndChar

StartChar: delta
Encoding: 948 948 291
Width: 407
VWidth: 0
GlyphClass: 2
Flags: W
LayerCount: 2
Fore
SplineSet
215 483 m 0
 131 483 87 547 87 610 c 0
 87 673 131 737 215 737 c 0
 300 737 342 673 342 610 c 0
 342 547 300 483 215 483 c 0
EndSplineSet
EndChar

StartChar: dieresis
Encoding: 168 168 292
Width: 679
VWidth: 0
GlyphClass: 2
Flags: W
LayerCount: 2
Fore
SplineSet
439 1119 m 1
 439 1364 l 1
 632 1364 l 1
 632 1119 l 1
 439 1119 l 1
63 1119 m 1
 63 1364 l 1
 257 1364 l 1
 257 1119 l 1
 63 1119 l 1
EndSplineSet
EndChar

StartChar: dieresistonos
Encoding: 901 901 293
Width: 407
VWidth: 0
GlyphClass: 2
Flags: W
LayerCount: 2
Fore
SplineSet
215 483 m 0
 131 483 87 547 87 610 c 0
 87 673 131 737 215 737 c 0
 300 737 342 673 342 610 c 0
 342 547 300 483 215 483 c 0
EndSplineSet
EndChar

StartChar: divide
Encoding: 247 247 294
Width: 1282
VWidth: 0
GlyphClass: 2
Flags: W
LayerCount: 2
Fore
SplineSet
519 797 m 1
 519 1047 l 1
 787 1047 l 1
 787 797 l 1
 519 797 l 1
154 444 m 1
 154 630 l 1
 1142 630 l 1
 1142 444 l 1
 154 444 l 1
519 18 m 1
 519 279 l 1
 779 279 l 1
 779 18 l 1
 519 18 l 1
EndSplineSet
EndChar

StartChar: dollar
Encoding: 36 36 295
Width: 1174
VWidth: 0
GlyphClass: 2
Flags: W
PickledData: "(dp1
S'com.typemytype.robofont.layerData'
p2
(dp3
s."
LayerCount: 2
Fore
SplineSet
663 -148 m 1
 544 -148 l 1
 544 -17 l 1
 376 -15 237 18 125 82 c 1
 190 300 l 1
 266 254 417 216 544 211 c 1
 544 572 l 1
 406 617 l 2
 244 670 140 785 140 975 c 0
 140 1207 308 1337 544 1356 c 1
 544 1480 l 1
 663 1480 l 1
 663 1356 l 1
 798 1349 914 1315 1020 1255 c 1
 939 1048 l 1
 859 1083 764 1118 663 1126 c 1
 663 801 l 1
 715 783 l 1
 950 705 1055 598 1055 381 c 0
 1055 151 897 18 663 -11 c 1
 663 -148 l 1
663 220 m 1
 666 220 l 1
 744 241 782 293 782 385 c 0
 782 454 739 500 663 532 c 1
 663 220 l 1
544 841 m 1
 544 1123 l 1
 457 1109 409 1066 409 980 c 0
 409 915 446 873 507 853 c 2
 544 841 l 1
EndSplineSet
EndChar

StartChar: dotaccent
Encoding: 729 729 296
Width: 473
VWidth: 0
GlyphClass: 2
Flags: W
LayerCount: 2
Fore
SplineSet
135 1129 m 1
 135 1342 l 1
 333 1342 l 1
 333 1129 l 1
 135 1129 l 1
EndSplineSet
EndChar

StartChar: dotlessi
Encoding: 305 305 297
Width: 480
VWidth: 0
GlyphClass: 2
Flags: W
LayerCount: 2
Fore
SplineSet
109 0 m 1
 109 1016 l 1
 356 1016 l 1
 356 0 l 1
 109 0 l 1
EndSplineSet
EndChar

StartChar: e
Encoding: 101 101 298
Width: 1119
VWidth: 0
GlyphClass: 2
Flags: W
PickledData: "(dp1
S'com.typemytype.robofont.layerData'
p2
(dp3
s."
LayerCount: 2
Fore
SplineSet
623 -18 m 0
 779 -18 883 2 979 63 c 1
 944 243 l 1
 902 224 810 174 647 174 c 0
 474 174 391 273 378 448 c 1
 1011 448 l 1
 1011 448 1018 543 1018 558 c 0
 1018 840 865 1041 586 1041 c 0
 297 1040 119 830 119 512 c 0
 119 183 308 -18 623 -18 c 0
384 613 m 1
 403 774 484 854 587 854 c 0
 704 854 774 760 778 613 c 1
 384 613 l 1
EndSplineSet
EndChar

StartChar: eight
Encoding: 56 56 306
Width: 1261
VWidth: 0
GlyphClass: 2
Flags: W
PickledData: "(dp1
S'com.typemytype.robofont.layerData'
p2
(dp3
s."
LayerCount: 2
Fore
SplineSet
633 775 m 1
 765 806 845 885 845 1010 c 0
 845 1112 756 1178 633 1178 c 0
 510 1178 418 1112 418 1010 c 0
 418 885 500 806 633 775 c 1
633 154 m 0
 776 154 857 230 857 356 c 0
 857 487 762 573 633 608 c 1
 503 573 407 488 407 355 c 0
 407 230 491 154 633 154 c 0
633 -18 m 0
 384 -18 168 116 168 362 c 0
 168 527 256 641 385 705 c 1
 274 764 193 859 193 1011 c 0
 193 1243 394 1357 632 1357 c 0
 872 1357 1069 1243 1069 1011 c 0
 1069 862 996 766 890 705 c 1
 1011 640 1093 525 1093 361 c 0
 1093 114 880 -18 633 -18 c 0
EndSplineSet
EndChar

StartChar: emdash
Encoding: 8212 8212 308
Width: 1894
VWidth: 0
GlyphClass: 2
Flags: W
LayerCount: 2
Fore
SplineSet
19 419 m 1
 19 603 l 1
 1886 603 l 1
 1886 419 l 1
 19 419 l 1
EndSplineSet
EndChar

StartChar: endash
Encoding: 8211 8211 309
Width: 1113
VWidth: 0
GlyphClass: 2
Flags: W
LayerCount: 2
Fore
SplineSet
72 419 m 1
 72 603 l 1
 1063 603 l 1
 1063 419 l 1
 72 419 l 1
EndSplineSet
EndChar

StartChar: eng
Encoding: 331 331 310
Width: 1041
VWidth: 0
GlyphClass: 2
Flags: W
LayerCount: 2
Fore
SplineSet
646 -332 m 2
 963 -332 1023 -185 1024 101 c 1
 1024 640 l 2
 1024 891 911 1041 676 1041 c 0
 535 1041 435 979 355 902 c 1
 331 1016 l 1
 123 1016 l 1
 123 0 l 1
 379 0 l 1
 379 496 l 2
 379 582 382 656 395 713 c 1
 431 789 513 844 611 844 c 0
 737 844 767 761 768 612 c 1
 768 54 l 2
 768 -109 753 -141 617 -141 c 2
 557 -141 l 1
 583 -332 l 1
 646 -332 l 2
EndSplineSet
EndChar

StartChar: epsilon
Encoding: 949 949 312
Width: 407
VWidth: 0
GlyphClass: 2
Flags: W
LayerCount: 2
Fore
SplineSet
215 483 m 0
 131 483 87 547 87 610 c 0
 87 673 131 737 215 737 c 0
 300 737 342 673 342 610 c 0
 342 547 300 483 215 483 c 0
EndSplineSet
EndChar

StartChar: epsilontonos
Encoding: 941 941 313
Width: 407
VWidth: 0
GlyphClass: 2
Flags: W
LayerCount: 2
Fore
SplineSet
215 483 m 0
 131 483 87 547 87 610 c 0
 87 673 131 737 215 737 c 0
 300 737 342 673 342 610 c 0
 342 547 300 483 215 483 c 0
EndSplineSet
EndChar

StartChar: equal
Encoding: 61 61 314
Width: 1179
VWidth: 0
GlyphClass: 2
Flags: W
PickledData: "(dp1
S'com.typemytype.robofont.layerData'
p2
(dp3
s."
LayerCount: 2
Fore
SplineSet
130 680 m 1
 1049 680 l 1
 1049 881 l 1
 130 881 l 1
 130 680 l 1
130 326 m 1
 1049 326 l 1
 1049 518 l 1
 130 518 l 1
 130 326 l 1
EndSplineSet
EndChar

StartChar: eta
Encoding: 951 951 315
Width: 407
VWidth: 0
GlyphClass: 2
Flags: W
LayerCount: 2
Fore
SplineSet
215 483 m 0
 131 483 87 547 87 610 c 0
 87 673 131 737 215 737 c 0
 300 737 342 673 342 610 c 0
 342 547 300 483 215 483 c 0
EndSplineSet
EndChar

StartChar: etatonos
Encoding: 942 942 316
Width: 407
VWidth: 0
GlyphClass: 2
Flags: W
LayerCount: 2
Fore
SplineSet
215 483 m 0
 131 483 87 547 87 610 c 0
 87 673 131 737 215 737 c 0
 300 737 342 673 342 610 c 0
 342 547 300 483 215 483 c 0
EndSplineSet
EndChar

StartChar: eth
Encoding: 240 240 317
Width: 1075
VWidth: 0
GlyphClass: 2
Flags: W
LayerCount: 2
Fore
SplineSet
564 179 m 0
 726 179 818 278 818 430 c 0
 818 582 723 688 558 688 c 0
 393 688 302 589 302 434 c 0
 302 285 399 179 564 179 c 0
557 -17 m 0
 267 -17 69 167 69 433 c 0
 69 691 247 862 515 862 c 0
 552 862 599 852 633 842 c 1
 595 890 508 990 476 1025 c 1
 253 936 l 1
 192 1105 l 1
 350 1169 l 1
 165 1377 l 1
 454 1377 l 1
 558 1255 l 1
 798 1353 l 1
 861 1183 l 1
 680 1110 l 1
 780 996 875 889 947 770 c 1
 1003 675 1040 557 1041 424 c 1
 1041 146 851 -17 557 -17 c 0
EndSplineSet
EndChar

StartChar: exclam
Encoding: 33 33 318
Width: 629
VWidth: 0
GlyphClass: 2
Flags: W
PickledData: "(dp1
S'com.typemytype.robofont.layerData'
p2
(dp3
s."
LayerCount: 2
Fore
SplineSet
321 -7 m 0
 237 -7 174 61 174 139 c 0
 174 218 237 286 321 286 c 0
 404 286 467 218 467 139 c 0
 467 61 404 -7 321 -7 c 0
442 1127 m 1
 385 418 l 1
 272 418 l 1
 208 1127 l 1
 208 1335 l 1
 442 1335 l 1
 442 1127 l 1
EndSplineSet
EndChar

StartChar: exclamdown
Encoding: 161 161 319
Width: 386
VWidth: 0
GlyphClass: 2
Flags: W
LayerCount: 2
Fore
SplineSet
202 1046 m 0
 118 1046 55 1114 55 1193 c 0
 55 1273 119 1338 202 1338 c 0
 285 1338 348 1272 348 1193 c 0
 348 1114 285 1046 202 1046 c 0
324 203 m 1
 324 -4 l 1
 89 -4 l 1
 89 203 l 1
 152 913 l 1
 266 913 l 1
 324 203 l 1
EndSplineSet
EndChar

StartChar: f
Encoding: 102 102 320
Width: 794
VWidth: 0
GlyphClass: 2
Flags: W
PickledData: "(dp1
S'com.fontlab.hintData'
p2
(dp3
S'vhints'
p4
((dp5
S'position'
p6
I228
sS'width'
p7
I256
stp8
sS'hhints'
p9
((dp10
g6
I839
sg7
I159
s(dp11
g6
I1219
sg7
I201
stp12
ssS'com.typemytype.robofont.layerData'
p13
(dp14
s."
HStem: 839 159<82 82 82 223 82 223> 1219 201<569 593.5 466.5 630>
VStem: 228 256
LayerCount: 2
Fore
SplineSet
223 0 m 1
 479 0 l 1
 479 839 l 1
 707 839 l 1
 707 1016 l 1
 479 1016 l 1
 479 1074 l 2
 479 1201 528 1219 610 1219 c 0
 650 1219 699 1213 729 1208 c 1
 752 1401 l 1
 685 1414 623 1420 564 1420 c 0
 369 1420 223 1350 223 1061 c 2
 223 1015 l 1
 82 998 l 1
 77 839 l 1
 223 839 l 1
 223 0 l 1
EndSplineSet
EndChar

StartChar: five
Encoding: 53 53 321
Width: 1222
VWidth: 0
GlyphClass: 2
Flags: W
PickledData: "(dp1
S'com.typemytype.robofont.layerData'
p2
(dp3
s."
LayerCount: 2
Fore
SplineSet
589 -18 m 0
 382 -18 194 91 172 110 c 1
 261 292 l 1
 276 281 412 189 563 189 c 0
 737 189 814 292 814 430 c 0
 814 569 728 654 609 654 c 0
 542 654 471 625 411 561 c 1
 227 590 l 1
 264 1336 l 1
 1028 1336 l 1
 1011 1129 l 1
 502 1129 l 1
 500 1081 480 862 478 799 c 1
 528 822 596 855 648 855 c 0
 904 855 1078 679 1078 428 c 0
 1078 165 901 -18 589 -18 c 0
EndSplineSet
EndChar

StartChar: fj
Encoding: 65537 -1 322
Width: 903
VWidth: 0
GlyphClass: 2
Flags: W
LayerCount: 2
Fore
SplineSet
823 1175 m 1
 655 1175 l 1
 655 1370 l 1
 823 1370 l 1
 823 1175 l 1
655 -96 m 2
 655 885 l 1
 321 885 l 1
 321 4 l 1
 154 4 l 1
 154 885 l 1
 12 885 l 1
 12 1011 l 1
 154 1011 l 1
 156 1322 237 1405 478 1405 c 2
 548 1405 l 1
 570 1272 l 1
 477 1272 l 2
 329 1272 321 1220 321 1013 c 1
 823 1013 l 1
 823 -111 l 2
 823 -355 766 -446 519 -446 c 2
 466 -446 l 1
 444 -293 l 1
 500 -293 l 2
 654 -293 655 -244 655 -96 c 2
EndSplineSet
EndChar

StartChar: florin
Encoding: 402 402 323
Width: 923
VWidth: 0
GlyphClass: 2
Flags: W
LayerCount: 2
Fore
SplineSet
39 -89 m 1
 51 -92 l 2
 56 -94 120 -114 133 -114 c 0
 199 -114 228 -45 249 43 c 0
 302 255 338 486 381 710 c 1
 243 710 l 1
 258 893 l 1
 414 893 l 1
 429 1002 l 2
 454 1179 534 1343 754 1343 c 0
 801 1343 889 1324 901 1321 c 1
 909 1318 l 1
 897 1120 l 1
 885 1125 l 2
 878 1128 801 1152 775 1152 c 0
 692 1152 672 1118 657 1037 c 2
 632 897 l 1
 802 897 l 1
 789 712 l 1
 599 712 l 1
 489 127 l 1
 451 -65 395 -299 144 -299 c 0
 113 -299 41 -282 31 -278 c 1
 24 -276 l 1
 39 -89 l 1
EndSplineSet
EndChar

StartChar: four
Encoding: 52 52 324
Width: 1246
VWidth: 0
GlyphClass: 2
Flags: W
PickledData: "(dp1
S'com.typemytype.robofont.layerData'
p2
(dp3
s."
LayerCount: 2
Fore
SplineSet
722 494 m 1
 722 1055 l 1
 397 494 l 1
 722 494 l 1
666 1336 m 1
 976 1336 l 1
 976 498 l 1
 1137 498 l 1
 1123 296 l 1
 976 296 l 1
 976 0 l 1
 722 0 l 1
 722 296 l 1
 138 296 l 1
 138 473 l 1
 666 1336 l 1
EndSplineSet
EndChar

StartChar: fraction
Encoding: 8260 8260 325
Width: 1033
VWidth: 0
GlyphClass: 2
Flags: W
LayerCount: 2
Fore
SplineSet
25 0 m 1
 831 1347 l 1
 1029 1347 l 1
 226 0 l 1
 25 0 l 1
EndSplineSet
EndChar

StartChar: g
Encoding: 103 103 326
Width: 1212
VWidth: 0
GlyphClass: 2
Flags: W
PickledData: "(dp1
S'com.fontlab.hintData'
p2
(dp3
S'vhints'
p4
((dp5
S'position'
p6
I111
sS'width'
p7
I256
s(dp8
g6
I815
sg7
I245
stp9
sS'hhints'
p10
((dp11
g6
I-439
sg7
I202
s(dp12
g6
I0
sg7
I195
s(dp13
g6
I843
sg7
I198
stp14
ssS'com.typemytype.robofont.layerData'
p15
(dp16
s."
HStem: -439 202<451.5 609 449 715> 0 195<523.5 606> 843 198<528 611>
VStem: 111 256 815 245
LayerCount: 2
Fore
SplineSet
525 -439 m 0
 905 -439 1056 -166 1056 185 c 2
 1056 1017 l 1
 829 1017 l 1
 816 893 l 1
 760 1005 678 1041 546 1041 c 0
 311 1041 119 854 119 519 c 0
 119 213 277 0 537 0 c 0
 675 0 767 70 805 156 c 1
 807 139 808 103 808 87 c 0
 808 -85 718 -237 500 -237 c 0
 398 -237 346 -215 289 -207 c 1
 273 -402 l 1
 281 -405 378 -439 525 -439 c 0
598 195 m 0
 449 195 375 343 375 526 c 0
 375 716 445 843 611 843 c 1
 754 841 811 733 811 536 c 2
 811 508 l 1
 809 323 768 195 598 195 c 0
EndSplineSet
EndChar

StartChar: gamma
Encoding: 947 947 327
Width: 407
VWidth: 0
GlyphClass: 2
Flags: W
LayerCount: 2
Fore
SplineSet
215 483 m 0
 131 483 87 547 87 610 c 0
 87 673 131 737 215 737 c 0
 300 737 342 673 342 610 c 0
 342 547 300 483 215 483 c 0
EndSplineSet
EndChar

StartChar: gcommaaccent
Encoding: 291 291 331
Width: 1120
VWidth: 0
GlyphClass: 2
Flags: W
LayerCount: 2
Fore
SplineSet
516 -439 m 0
 369 -439 256 -405 255 -405 c 2
 248 -402 l 1
 264 -207 l 1
 275 -209 l 1
 275 -209 393 -237 491 -237 c 0
 709 -237 786 -85 786 87 c 0
 786 103 785 119 783 136 c 1
 745 68 661 0 523 0 c 0
 263 0 72 213 72 519 c 0
 72 854 276 1041 511 1041 c 0
 643 1041 737 991 793 903 c 1
 807 1017 l 1
 1034 1017 l 1
 1034 185 l 2
 1034 -166 896 -439 516 -439 c 0
559 195 m 0
 729 195 787 323 789 508 c 1
 789 536 l 2
 789 733 715 841 572 843 c 1
 406 843 327 716 327 526 c 0
 327 343 410 195 559 195 c 0
707 1577 m 1
 606 1098 l 1
 388 1098 l 1
 540 1577 l 1
 707 1577 l 1
EndSplineSet
EndChar

StartChar: germandbls
Encoding: 223 223 333
Width: 1104
VWidth: 0
GlyphClass: 2
Flags: W
LayerCount: 2
Fore
SplineSet
462 172 m 1
 463 180 l 1
 680 180 l 2
 775 180 825 233 825 320 c 0
 825 459 649 518 520 600 c 0
 483 623 438 661 438 722 c 0
 438 772 472 808 505 835 c 1
 589 899 687 946 687 1046 c 0
 687 1127 619 1175 519 1175 c 0
 369 1175 338 1083 338 929 c 2
 338 0 l 1
 89 0 l 1
 89 934 l 2
 89 1202 242 1363 519 1363 c 0
 734 1363 927 1261 927 1046 c 0
 927 884 798 802 690 733 c 1
 842 646 1076 545 1076 320 c 0
 1076 100 912 0 704 0 c 2
 445 0 l 1
 439 11 l 1
 440 13 l 1
 443 26 462 172 462 172 c 1
EndSplineSet
EndChar

StartChar: grave
Encoding: 96 96 334
Width: 447
VWidth: 0
GlyphClass: 2
Flags: W
LayerCount: 2
Fore
SplineSet
291 1081 m 1
 -20 1442 l 1
 279 1442 l 1
 456 1081 l 1
 291 1081 l 1
EndSplineSet
EndChar

StartChar: greater
Encoding: 62 62 335
Width: 1105
VWidth: 0
GlyphClass: 2
Flags: W
PickledData: "(dp1
S'com.typemytype.robofont.layerData'
p2
(dp3
s."
LayerCount: 2
Fore
SplineSet
136 1158 m 1
 1009 709 l 1
 1009 588 l 1
 136 171 l 1
 136 386 l 1
 740 654 l 1
 136 953 l 1
 136 1158 l 1
EndSplineSet
EndChar

StartChar: greaterequal
Encoding: 8805 8805 336
Width: 1074
VWidth: 0
GlyphClass: 2
Flags: W
LayerCount: 2
Fore
SplineSet
123 2 m 1
 123 160 l 1
 979 159 l 1
 979 2 l 1
 123 2 l 1
130 1177 m 1
 975 738 l 1
 975 624 l 1
 129 195 l 1
 129 394 l 1
 729 680 l 1
 130 980 l 1
 130 1177 l 1
EndSplineSet
EndChar

StartChar: guillemotleft
Encoding: 171 171 337
Width: 948
VWidth: 0
GlyphClass: 2
Flags: W
LayerCount: 2
Fore
SplineSet
669 519 m 1
 914 173 l 1
 715 120 l 1
 424 516 l 1
 717 918 l 1
 918 866 l 1
 669 519 l 1
547 866 m 1
 299 519 l 1
 544 173 l 1
 344 120 l 1
 59 504 l 1
 70 547 l 1
 347 918 l 1
 547 866 l 1
EndSplineSet
EndChar

StartChar: guillemotright
Encoding: 187 187 338
Width: 1025
VWidth: 0
GlyphClass: 2
Flags: W
LayerCount: 2
Fore
SplineSet
674 918 m 1
 966 522 l 1
 671 120 l 1
 473 173 l 1
 719 519 l 1
 477 866 l 1
 674 918 l 1
292 918 m 1
 584 522 l 1
 291 120 l 1
 91 173 l 1
 340 519 l 1
 93 866 l 1
 292 918 l 1
EndSplineSet
EndChar

StartChar: guilsinglleft
Encoding: 8249 8249 339
Width: 511
VWidth: 0
GlyphClass: 2
Flags: W
LayerCount: 2
Fore
SplineSet
254 524 m 1
 487 155 l 1
 285 155 l 1
 41 524 l 1
 291 898 l 1
 493 898 l 1
 254 524 l 1
EndSplineSet
EndChar

StartChar: guilsinglright
Encoding: 8250 8250 340
Width: 511
VWidth: 0
GlyphClass: 2
Flags: W
LayerCount: 2
Fore
SplineSet
493 525 m 1
 240 155 l 1
 38 155 l 1
 276 525 l 1
 44 898 l 1
 246 898 l 1
 493 525 l 1
EndSplineSet
EndChar

StartChar: h
Encoding: 104 104 341
Width: 1200
VWidth: 0
GlyphClass: 2
Flags: W
PickledData: "(dp1
S'com.fontlab.hintData'
p2
(dp3
S'vhints'
p4
((dp5
S'position'
p6
I131
sS'width'
p7
I253
s(dp8
g6
I773
sg7
I256
stp9
sS'hhints'
p10
((dp11
g6
I844
sg7
I197
stp12
ssS'com.typemytype.robofont.layerData'
p13
(dp14
s."
HStem: 844 197<632 705.5>
VStem: 131 253 773 256
LayerCount: 2
Fore
SplineSet
159 1376 m 1
 159 0 l 1
 412 0 l 1
 412 491 l 2
 412 699.135 459.085 844 648 844 c 0
 763 844 801 775 801 618 c 2
 801 0 l 1
 1057 0 l 1
 1057 641 l 2
 1057 918 918 1041 704 1041 c 0
 560 1041 466 979 408 918 c 1
 410 970 415 1074 415 1102 c 2
 415 1393 l 1
 159 1376 l 1
EndSplineSet
EndChar

StartChar: hbar
Encoding: 295 295 342
Width: 1042
VWidth: 0
GlyphClass: 2
Flags: W
LayerCount: 2
Fore
SplineSet
89 1249 m 1
 89 1369 l 1
 335 1387 l 1
 335 1249 l 1
 595 1249 l 1
 595 1108 l 1
 335 1108 l 1
 335 918 l 1
 413 993 517 1034 641 1034 c 0
 832 1034 980 922 980 615 c 2
 980 0 l 1
 734 0 l 1
 734 605 l 2
 734 772 707 844 586 844 c 0
 473 844 377 771 335 686 c 1
 335 0 l 1
 89 0 l 1
 89 1108 l 1
 -1 1108 l 1
 -1 1249 l 1
 89 1249 l 1
EndSplineSet
EndChar

StartChar: hungarumlaut
Encoding: 733 733 344
Width: 867
VWidth: 0
GlyphClass: 2
Flags: W
LayerCount: 2
Fore
SplineSet
397 1046 m 1
 634 1386 l 1
 863 1386 l 1
 538 1046 l 1
 397 1046 l 1
123 1046 m 1
 355 1386 l 1
 581 1386 l 1
 266 1046 l 1
 123 1046 l 1
EndSplineSet
EndChar

StartChar: hyphen
Encoding: 45 45 345
Width: 594
VWidth: 0
GlyphClass: 2
Flags: W
LayerCount: 2
Fore
SplineSet
57 406 m 1
 57 606 l 1
 553 606 l 1
 553 406 l 1
 57 406 l 1
EndSplineSet
EndChar

StartChar: i
Encoding: 105 105 346
Width: 574
VWidth: 0
GlyphClass: 2
Flags: W
PickledData: "(dp1
S'com.fontlab.hintData'
p2
(dp3
S'vhints'
p4
((dp5
S'position'
p6
I170
sS'width'
p7
I256
stp8
sS'hhints'
p9
((dp10
g6
I0
sg7
I21
s(dp11
g6
I996
sg7
I20
s(dp12
g6
I1139
sg7
I218
stp13
ssS'com.typemytype.robofont.layerData'
p14
(dp15
s."
HStem: 0 21<159 159 159 415> 996 20<159 415 415 415> 1139 218
VStem: 170 256
LayerCount: 2
Fore
SplineSet
159 1157 m 1
 159 1375 l 1
 415 1375 l 1
 415 1157 l 1
 159 1157 l 1
159 0 m 1
 159 1016 l 1
 415 1016 l 1
 415 0 l 1
 159 0 l 1
EndSplineSet
EndChar

StartChar: ij
Encoding: 307 307 352
Width: 908
VWidth: 0
GlyphClass: 2
Flags: W
LayerCount: 2
Fore
SplineSet
130 0 m 1
 130 1017 l 1
 384 1017 l 1
 384 0 l 1
 130 0 l 1
471 -379 m 2
 411 -379 l 1
 382 -187 l 1
 444 -187 l 2
 585 -187 598 -149 598 -4 c 2
 598 1017 l 1
 851 1017 l 1
 851 40 l 2
 851 -240 789 -379 471 -379 c 2
130 1139 m 1
 130 1357 l 1
 384 1357 l 1
 384 1139 l 1
 130 1139 l 1
851 1139 m 1
 598 1139 l 1
 598 1357 l 1
 851 1357 l 1
 851 1139 l 1
EndSplineSet
EndChar

StartChar: iota
Encoding: 953 953 355
Width: 407
VWidth: 0
GlyphClass: 2
Flags: W
LayerCount: 2
Fore
SplineSet
215 483 m 0
 131 483 87 547 87 610 c 0
 87 673 131 737 215 737 c 0
 300 737 342 673 342 610 c 0
 342 547 300 483 215 483 c 0
EndSplineSet
EndChar

StartChar: iotadieresis
Encoding: 970 970 356
Width: 407
VWidth: 0
GlyphClass: 2
Flags: W
LayerCount: 2
Fore
SplineSet
491 1364 m 1
 491 1119 l 1
 298 1119 l 1
 298 1364 l 1
 491 1364 l 1
116 1364 m 1
 116 1119 l 1
 -78 1119 l 1
 -78 1364 l 1
 116 1364 l 1
215 483 m 0
 131 483 87 547 87 610 c 0
 87 673 131 737 215 737 c 0
 300 737 342 673 342 610 c 0
 342 547 300 483 215 483 c 0
EndSplineSet
EndChar

StartChar: iotadieresistonos
Encoding: 912 912 357
Width: 407
VWidth: 0
GlyphClass: 2
Flags: W
LayerCount: 2
Fore
SplineSet
215 483 m 0
 131 483 87 547 87 610 c 0
 87 673 131 737 215 737 c 0
 300 737 342 673 342 610 c 0
 342 547 300 483 215 483 c 0
217 1602 m 0
 133 1602 89 1666 89 1729 c 0
 89 1792 133 1856 217 1856 c 0
 302 1856 344 1792 344 1729 c 0
 344 1666 302 1602 217 1602 c 0
EndSplineSet
EndChar

StartChar: iotatonos
Encoding: 943 943 358
Width: 407
VWidth: 0
GlyphClass: 2
Flags: W
LayerCount: 2
Fore
SplineSet
215 483 m 0
 131 483 87 547 87 610 c 0
 87 673 131 737 215 737 c 0
 300 737 342 673 342 610 c 0
 342 547 300 483 215 483 c 0
EndSplineSet
EndChar

StartChar: j
Encoding: 106 106 360
Width: 629
VWidth: 0
GlyphClass: 2
Flags: W
PickledData: "(dp1
S'com.fontlab.hintData'
p2
(dp3
S'vhints'
p4
((dp5
S'position'
p6
I202
sS'width'
p7
I253
stp8
sS'hhints'
p9
((dp10
g6
I-379
sg7
I192
stp11
ssS'com.typemytype.robofont.layerData'
p12
(dp13
s."
HStem: -379 192<30 63 1 90 1 249>
VStem: 202 253
LayerCount: 2
Fore
SplineSet
30 -379 m 1
 90 -379 l 2
 408 -379 470 -240 470 40 c 2
 470 1017 l 1
 217 1017 l 1
 217 -4 l 2
 217 -149 204 -187 63 -187 c 2
 1 -187 l 1
 30 -379 l 1
217 1157 m 1
 470 1157 l 1
 470 1375 l 1
 217 1375 l 1
 217 1157 l 1
EndSplineSet
EndChar

StartChar: k
Encoding: 107 107 362
Width: 1158
VWidth: 0
GlyphClass: 2
Flags: W
PickledData: "(dp1
S'com.typemytype.robofont.layerData'
p2
(dp3
s."
LayerCount: 2
Fore
SplineSet
159 1376 m 1
 415 1392 l 1
 415 785 l 1
 410 582 l 1
 772 1016 l 1
 1095 1016 l 1
 706 555 l 1
 1119 0 l 1
 818 0 l 1
 499 432 l 1
 415 354 l 1
 415 0 l 1
 159 0 l 1
 159 1376 l 1
EndSplineSet
EndChar

StartChar: l
Encoding: 108 108 366
Width: 729
VWidth: 0
GlyphClass: 2
Flags: W
PickledData: "(dp1
S'com.fontlab.hintData'
p2
(dp3
S'vhints'
p4
((dp5
S'position'
p6
I155
sS'width'
p7
I256
stp8
sS'hhints'
p9
((dp10
g6
I-13
sg7
I191
stp11
ssS'com.typemytype.robofont.layerData'
p12
(dp13
s."
HStem: -13 191<492.5 536.5>
VStem: 155 256
LayerCount: 2
Fore
SplineSet
499 -13 m 0
 574 -13 642 4 649 7 c 1
 618 187 l 1
 597.25 184.75 564 178 535 178 c 0
 450 178 415 205 415 404 c 2
 415 1393 l 1
 159 1376 l 1
 159 401 l 2
 159 124 222 -13 499 -13 c 0
EndSplineSet
EndChar

StartChar: lambda
Encoding: 955 955 368
Width: 407
VWidth: 0
GlyphClass: 2
Flags: W
LayerCount: 2
Fore
SplineSet
215 483 m 0
 131 483 87 547 87 610 c 0
 87 673 131 737 215 737 c 0
 300 737 342 673 342 610 c 0
 342 547 300 483 215 483 c 0
EndSplineSet
EndChar

StartChar: less
Encoding: 60 60 371
Width: 1105
VWidth: 0
GlyphClass: 2
Flags: W
PickledData: "(dp1
S'com.typemytype.robofont.layerData'
p2
(dp3
s."
LayerCount: 2
Fore
SplineSet
969 952 m 1
 364 654 l 1
 967 384 l 2
 968 383 969 169 969 169 c 1
 96 588 l 1
 96 710 l 1
 969 1157 l 1
 969 952 l 1
EndSplineSet
EndChar

StartChar: lessequal
Encoding: 8804 8804 372
Width: 1074
VWidth: 0
GlyphClass: 2
Flags: W
LayerCount: 2
Fore
SplineSet
117 2 m 1
 117 159 l 1
 975 160 l 1
 975 2 l 1
 117 2 l 1
970 982 m 1
 369 681 l 1
 970 394 l 1
 970 194 l 1
 123 623 l 1
 123 738 l 1
 970 1176 l 1
 970 982 l 1
EndSplineSet
EndChar

StartChar: logicalnot
Encoding: 172 172 373
Width: 1129
VWidth: 0
GlyphClass: 2
Flags: W
LayerCount: 2
Fore
SplineSet
1031 771 m 1
 1031 229 l 1
 841 229 l 1
 841 580 l 1
 112 580 l 1
 112 771 l 1
 1031 771 l 1
EndSplineSet
EndChar

StartChar: lozenge
Encoding: 9674 9674 374
Width: 1077
VWidth: 0
GlyphClass: 2
Flags: W
LayerCount: 2
Fore
SplineSet
544 168 m 1
 635 337 730 502 820 667 c 1
 733 832 640 998 553 1165 c 1
 463 998 369 833 279 668 c 1
 366 503 455 335 544 168 c 1
1019 667 m 1
 606 -41 l 1
 483 -41 l 1
 81 666 l 1
 490 1377 l 1
 615 1377 l 1
 1019 667 l 1
EndSplineSet
EndChar

StartChar: lslash
Encoding: 322 322 375
Width: 597
VWidth: 0
GlyphClass: 2
Flags: W
LayerCount: 2
Fore
SplineSet
21 559 m 1
 21 747 l 1
 120 807 l 1
 120 1368 l 1
 365 1387 l 1
 366 1386 366 1385 367 1384 c 1
 367 963 l 1
 507 1049 l 1
 507 859 l 1
 367 771 l 1
 367 404 l 2
 367 226 372 181 505 181 c 0
 515 181 584 187 595 188 c 2
 605 189 l 1
 621 0 l 1
 612 -1 l 2
 601 -2 506 -13 464 -13 c 0
 174 -13 120 131 120 424 c 2
 120 619 l 1
 21 559 l 1
EndSplineSet
EndChar

StartChar: m
Encoding: 109 109 376
Width: 1806
VWidth: 0
GlyphClass: 2
Flags: W
PickledData: "(dp1
S'com.typemytype.robofont.layerData'
p2
(dp3
s."
LayerCount: 2
Fore
SplineSet
415 494 m 2
 415 694.342 447.556 844 632 844 c 0
 749 844 781 754 781 590 c 2
 781 0 l 1
 1037 0 l 1
 1037 596 l 1
 1053.76 738.461 1108.9 844 1250 844 c 0
 1365 844 1407 762 1407 579 c 2
 1407 0 l 1
 1663 0 l 1
 1663 646 l 2
 1663 897 1544 1041 1310 1041 c 0
 1176 1041 1065 986 993 892 c 1
 955 962 872 1041 709 1041 c 0
 530 1041 441 962 391 903 c 1
 367 1016 l 1
 159 1016 l 1
 159 0 l 1
 415 0 l 1
 415 494 l 2
EndSplineSet
EndChar

StartChar: macron
Encoding: 175 175 377
Width: 801
VWidth: 0
GlyphClass: 2
Flags: W
LayerCount: 2
Fore
SplineSet
89 1239 m 1
 89 1398 l 1
 738 1398 l 1
 738 1239 l 1
 89 1239 l 1
EndSplineSet
EndChar

StartChar: minus
Encoding: 8722 8722 378
Width: 1240
VWidth: 0
GlyphClass: 2
Flags: W
LayerCount: 2
Fore
SplineSet
152 425 m 1
 152 609 l 1
 1106 609 l 1
 1106 425 l 1
 152 425 l 1
EndSplineSet
EndChar

StartChar: multiply
Encoding: 215 215 379
Width: 1230
VWidth: 0
GlyphClass: 2
Flags: W
LayerCount: 2
Fore
SplineSet
499 538 m 1
 241 810 l 1
 373 947 l 1
 639 678 l 1
 902 947 l 1
 1038 809 l 1
 777 538 l 1
 842 473 1038 272 1038 272 c 1
 903 130 l 1
 639 397 l 1
 373 130 l 1
 241 271 l 1
 499 538 l 1
EndSplineSet
EndChar

StartChar: n
Encoding: 110 110 380
Width: 1203
VWidth: 0
GlyphClass: 2
Flags: W
PickledData: "(dp1
S'com.typemytype.robofont.layerData'
p2
(dp3
s."
LayerCount: 2
Fore
SplineSet
159 0 m 1
 415 0 l 1
 415 496 l 2
 415 708.946 451.961 844 647 844 c 0
 773 844 803 761 804 612 c 1
 804 0 l 1
 1060 0 l 1
 1060 640 l 2
 1060 891 947 1041 712 1041 c 0
 571 1041 471 979 391 902 c 1
 367 1016 l 1
 159 1016 l 1
 159 0 l 1
EndSplineSet
EndChar

StartChar: nine
Encoding: 57 57 384
Width: 1221
VWidth: 0
GlyphClass: 2
Flags: W
PickledData: "(dp1
S'com.typemytype.robofont.layerData'
p2
(dp3
s."
LayerCount: 2
Fore
SplineSet
621 681 m 0
 785 681 849 783 849 928 c 0
 849 1068 773 1160 625 1160 c 0
 473 1160 386 1065 386 924 c 0
 386 777 460 681 621 681 c 0
570 0 m 1
 257 0 l 1
 648 509 l 1
 625 502 601 496 571 496 c 0
 315 496 123 665 123 918 c 0
 123 1184 334 1357 613 1357 c 0
 902 1357 1109 1184 1109 916 c 0
 1109 744 1028 620 939 497 c 0
 918 469 570 0 570 0 c 1
EndSplineSet
EndChar

StartChar: notequal
Encoding: 8800 8800 385
Width: 1154
VWidth: 0
GlyphClass: 2
Flags: W
LayerCount: 2
Fore
SplineSet
122 456 m 1
 445 456 l 1
 542 652 l 1
 132 652 l 1
 120 831 l 1
 620 831 l 1
 740 1065 l 1
 906 1043 l 1
 801 831 l 1
 1044 831 l 1
 1057 651 l 1
 722 651 l 1
 623 455 l 1
 1045 455 l 1
 1057 288 l 1
 543 288 l 1
 420 38 l 1
 256 63 l 1
 364 288 l 1
 132 288 l 1
 122 456 l 1
EndSplineSet
EndChar

StartChar: nu
Encoding: 957 957 387
Width: 407
VWidth: 0
GlyphClass: 2
Flags: W
LayerCount: 2
Fore
SplineSet
215 483 m 0
 131 483 87 547 87 610 c 0
 87 673 131 737 215 737 c 0
 300 737 342 673 342 610 c 0
 342 547 300 483 215 483 c 0
EndSplineSet
EndChar

StartChar: numbersign
Encoding: 35 35 388
Width: 1212
VWidth: 0
GlyphClass: 2
Flags: W
PickledData: "(dp1
S'com.typemytype.robofont.layerData'
p2
(dp3
s."
LayerCount: 2
Fore
SplineSet
538 547 m 1
 688 547 l 1
 736 809 l 1
 588 809 l 1
 538 547 l 1
350 547 m 1
 395 808 l 1
 209 808 l 1
 216 990 l 1
 427 990 l 1
 497 1336 l 1
 688 1336 l 1
 622 990 l 1
 770 990 l 1
 835 1336 l 1
 1023 1336 l 1
 957 990 l 1
 1118 990 l 1
 1106 809 l 1
 923 809 l 1
 874 547 l 1
 1047 547 l 1
 1038 369 l 1
 845 369 l 1
 774 -13 l 1
 583 -13 l 1
 652 369 l 1
 506 369 l 1
 436 -13 l 1
 249 -13 l 1
 316 369 l 1
 138 369 l 1
 147 547 l 1
 350 547 l 1
EndSplineSet
EndChar

StartChar: o
Encoding: 111 111 389
Width: 1198
VWidth: 0
GlyphClass: 2
Flags: W
PickledData: "(dp1
S'com.typemytype.robofont.layerData'
p2
(dp3
s."
LayerCount: 2
Fore
SplineSet
599 178 m 0
 448 178 375 290 375 511 c 0
 375 729 450 844 599 844 c 0
 750 844 823 730 823 512 c 0
 823 289 749 178 599 178 c 0
599 -18 m 0
 907 -18 1079 185 1079 512 c 0
 1079 835 896 1041 599 1041 c 0
 291 1041 119 843 119 512 c 0
 119 190 304 -18 599 -18 c 0
EndSplineSet
EndChar

StartChar: oe
Encoding: 339 339 394
Width: 1657
VWidth: 0
GlyphClass: 2
Flags: W
LayerCount: 2
Fore
SplineSet
531 159 m 0
 672 159 768 288 768 511 c 0
 768 742 675 856 530 856 c 0
 386 856 295 733 295 510 c 0
 295 292 388 159 531 159 c 0
1000 614 m 1
 1399 614 l 1
 1398 781 1333 857 1211 857 c 0
 1119 857 1018 804 1000 614 c 1
882 872 m 1
 949 977 1068 1033 1225 1034 c 1
 1511 1034 1626 816 1626 540 c 0
 1626 517 1625 466 1625 461 c 2
 1625 451 l 1
 997 451 l 1
 1004 266 1096 161 1257 161 c 0
 1379 161 1462 204 1522 249 c 1
 1532 256 l 1
 1604 100 l 1
 1598 95 l 1
 1513 30 1414 -18 1252 -18 c 0
 1076 -18 951 39 880 148 c 1
 815 52 694 -18 531 -18 c 0
 208 -18 55 224 55 511 c 0
 55 806 208 1034 532 1034 c 0
 694 1034 810 973 882 872 c 1
EndSplineSet
EndChar

StartChar: ogonek
Encoding: 731 731 395
Width: 504
VWidth: 0
GlyphClass: 2
Flags: W
LayerCount: 2
Fore
SplineSet
290 -340 m 0
 186 -340 95 -286 95 -172 c 0
 95 -49 198 26 269 67 c 1
 376 51 l 1
 302 -6 270 -70 270 -125 c 0
 270 -159 296 -194 334 -194 c 0
 386 -194 445 -168 457 -163 c 0
 458 -163 465 -304 465 -304 c 1
 410 -325 349 -340 290 -340 c 0
EndSplineSet
EndChar

StartChar: omega
Encoding: 969 969 400
Width: 407
VWidth: 0
GlyphClass: 2
Flags: W
LayerCount: 2
Fore
SplineSet
215 483 m 0
 131 483 87 547 87 610 c 0
 87 673 131 737 215 737 c 0
 300 737 342 673 342 610 c 0
 342 547 300 483 215 483 c 0
EndSplineSet
EndChar

StartChar: omegatonos
Encoding: 974 974 401
Width: 407
VWidth: 0
GlyphClass: 2
Flags: W
LayerCount: 2
Fore
SplineSet
215 483 m 0
 131 483 87 547 87 610 c 0
 87 673 131 737 215 737 c 0
 300 737 342 673 342 610 c 0
 342 547 300 483 215 483 c 0
EndSplineSet
EndChar

StartChar: omicron
Encoding: 959 959 402
Width: 1071
VWidth: 0
GlyphClass: 2
Flags: W
LayerCount: 2
Fore
SplineSet
549 844 m 0
 700 844 774 730 774 512 c 0
 774 296 700 178 550 178 c 0
 399 178 324 296 324 511 c 0
 324 729 400 844 549 844 c 0
545 -18 m 0
 853 -18 1027 195 1027 512 c 0
 1027 825 851 1041 554 1041 c 0
 246 1041 72 833 72 512 c 0
 72 200 250 -18 545 -18 c 0
EndSplineSet
EndChar

StartChar: omicrontonos
Encoding: 972 972 403
Width: 407
VWidth: 0
GlyphClass: 2
Flags: W
LayerCount: 2
Fore
SplineSet
215 483 m 0
 131 483 87 547 87 610 c 0
 87 673 131 737 215 737 c 0
 300 737 342 673 342 610 c 0
 342 547 300 483 215 483 c 0
EndSplineSet
EndChar

StartChar: one
Encoding: 49 49 404
Width: 1117
VWidth: 0
GlyphClass: 2
Flags: W
PickledData: "(dp1
S'com.typemytype.robofont.layerData'
p2
(dp3
s."
LayerCount: 2
Fore
SplineSet
997 0 m 1
 196 0 l 1
 196 200 l 1
 484 200 l 1
 484 1096 l 1
 444 1068 335 1021 196 999 c 1
 196 1200 l 1
 313 1232 441 1280 519 1336 c 1
 740 1336 l 1
 740 200 l 1
 997 200 l 1
 997 0 l 1
EndSplineSet
EndChar

StartChar: onehalf
Encoding: 189 189 405
Width: 1593
VWidth: 0
GlyphClass: 2
Flags: W
LayerCount: 2
Fore
SplineSet
1514 -26 m 1
 1002 -26 l 1
 1003 113 l 1
 1006 115 l 1
 1182 268 1360 388 1360 510 c 0
 1360 579 1302 618 1246 618 c 0
 1183 618 1109 591 1068 535 c 2
 1059 523 l 1
 991 646 l 1
 994 651 l 1
 1050 733 1150 772 1265 772 c 0
 1402 772 1531 678 1531 515 c 0
 1531 342 1411 249 1250 114 c 1
 1531 114 l 1
 1514 -26 l 1
464 19 m 1
 262 19 l 1
 1178 1347 l 1
 1378 1347 l 1
 464 19 l 1
232 1186 m 1
 199 1167 111 1116 102 1112 c 2
 89 1105 l 1
 89 1258 l 1
 94 1261 l 1
 106 1267 248 1350 254 1356 c 2
 257 1359 l 1
 421 1358 l 1
 421 691 l 1
 545 691 l 1
 545 553 l 1
 106 553 l 1
 106 691 l 1
 232 691 l 1
 232 1186 l 1
EndSplineSet
EndChar

StartChar: onequarter
Encoding: 188 188 406
Width: 1525
VWidth: 0
GlyphClass: 2
Flags: W
LayerCount: 2
Fore
SplineSet
1064 301 m 1
 1221 301 l 1
 1221 560 l 1
 1064 301 l 1
1382 9 m 1
 1223 9 l 1
 1223 161 l 1
 866 161 l 1
 866 305 l 1
 1213 798 l 1
 1384 798 l 1
 1384 301 l 1
 1485 301 l 1
 1488 161 l 1
 1383 161 l 1
 1382 9 l 1
459 0 m 1
 258 0 l 1
 1174 1347 l 1
 1370 1347 l 1
 459 0 l 1
87 544 m 1
 87 696 l 1
 214 696 l 1
 214 1171 l 1
 180 1155 91 1114 85 1111 c 2
 70 1103 l 1
 70 1257 l 1
 75 1260 l 2
 87 1267 242 1342 258 1354 c 1
 261 1359 l 1
 402 1358 l 1
 402 696 l 1
 527 696 l 1
 527 544 l 1
 87 544 l 1
EndSplineSet
EndChar

StartChar: ordfeminine
Encoding: 170 170 407
Width: 664
VWidth: 0
GlyphClass: 2
Flags: W
LayerCount: 2
Fore
SplineSet
286 813 m 0
 248 813 219 834 219 883 c 0
 219 958 302 977 443 996 c 1
 443 909 l 1
 399 846 341 813 286 813 c 0
94 486 m 1
 613 486 l 1
 613 611 l 1
 94 611 l 1
 94 486 l 1
269 686 m 0
 337 686 417 717 459 762 c 1
 472 698 l 1
 611 698 l 1
 611 698 609 810 609 813 c 2
 609 1156 l 2
 609 1325 493 1384 358 1384 c 0
 264 1384 163 1359 79 1315 c 1
 125 1200 l 1
 213 1236 286 1250 343 1250 c 0
 413 1250 442 1222 443 1134 c 1
 443 1114 l 1
 280 1096 60 1079 60 885 c 0
 60 754 157 686 269 686 c 0
EndSplineSet
EndChar

StartChar: oslash
Encoding: 248 248 408
Width: 1039
VWidth: 0
GlyphClass: 2
Flags: W
LayerCount: 2
Fore
SplineSet
531 164 m 0
 683 164 766 291 766 500 c 0
 766 615 743 705 695 765 c 1
 443 181 l 1
 468 170 498 164 531 164 c 0
372 248 m 1
 624 834 l 1
 597 847 567 853 530 853 c 0
 379 853 293 729 293 516 c 0
 293 400 319 307 372 248 c 1
276 -203 m 1
 203 -165 l 1
 291 43 l 1
 136 128 54 299 54 510 c 0
 54 815 221 1034 533 1034 c 0
 596 1034 648 1026 700 1010 c 1
 785 1177 l 1
 865 1152 l 1
 779 975 l 1
 928 889 1006 721 1006 510 c 0
 1006 212 840 -14 529 -14 c 0
 469 -14 416 -6 367 9 c 1
 276 -203 l 1
EndSplineSet
EndChar

StartChar: p
Encoding: 112 112 411
Width: 1222
VWidth: 0
GlyphClass: 2
Flags: W
PickledData: "(dp1
S'com.typemytype.robofont.layerData'
p2
(dp3
s."
LayerCount: 2
Fore
SplineSet
638 179 m 0
 764 179 848 291 848 515 c 0
 848 746 761 844 634 844 c 0
 498 844 415 755 413 530 c 1
 413 277 494 179 638 179 c 0
159 1016 m 1
 380 1016 l 1
 402 906 l 1
 461 976 579 1041 707 1041 c 0
 955 1041 1104 806 1104 513 c 0
 1104 207 946 -18 686 -18 c 0
 571 -18 477 28 410 99 c 1
 413 54 415 13 415 -15 c 2
 415 -395 l 1
 159 -408 l 1
 159 1016 l 1
EndSplineSet
EndChar

StartChar: paragraph
Encoding: 182 182 412
Width: 1054
VWidth: 0
GlyphClass: 2
Flags: W
LayerCount: 2
Fore
SplineSet
555 -134 m 1
 367 -134 l 1
 367 705 l 1
 186 724 64 861 64 1036 c 0
 64 1276 278 1360 541 1360 c 2
 920 1360 l 1
 920 1188 l 1
 847 1188 l 1
 847 -134 l 1
 679 -134 l 1
 679 1188 l 1
 555 1188 l 1
 555 -134 l 1
EndSplineSet
EndChar

StartChar: parenleft
Encoding: 40 40 413
Width: 721
VWidth: 0
GlyphClass: 2
Flags: W
PickledData: "(dp1
S'com.typemytype.robofont.layerData'
p2
(dp3
S'b'
(dp4
S'name'
p5
S'parenleft'
p6
sS'lib'
p7
(dp8
sS'unicodes'
p9
(tsS'width'
p10
I721
sS'contours'
p11
((dp12
S'points'
p13
((dp14
S'segmentType'
p15
S'line'
p16
sS'x'
F654
sS'smooth'
p17
I00
sS'y'
F-180
s(dp18
g15
S'line'
p19
sS'x'
F422
sg17
I00
sS'y'
F-180
s(dp20
g15
S'line'
p21
sS'x'
F419
sg17
I00
sS'y'
F-172
s(dp22
S'y'
F36
sS'x'
F269
sg17
I00
s(dp23
S'y'
F299
sS'x'
F165
sg17
I00
s(dp24
g15
S'curve'
p25
sS'x'
F165
sg17
I01
sS'y'
F615
s(dp26
S'y'
F934
sS'x'
F165
sg17
I00
s(dp27
S'y'
F1204
sS'x'
F266
sg17
I00
s(dp28
g15
S'curve'
p29
sS'x'
F418
sg17
I00
sS'y'
F1419
s(dp30
g15
S'line'
p31
sS'x'
F421
sg17
I00
sS'y'
F1427
s(dp32
g15
S'line'
p33
sS'x'
F655
sg17
I00
sS'y'
F1427
s(dp34
g15
S'line'
p35
sS'x'
F645
sg17
I00
sS'y'
F1408
s(dp36
S'y'
F1266
sS'x'
F546
sg17
I00
s(dp37
S'y'
F933
sS'x'
F406
sg17
I00
s(dp38
g15
S'curve'
p39
sS'x'
F406
sg17
I01
sS'y'
F617
s(dp40
S'y'
F303
sS'x'
F406
sg17
I00
s(dp41
S'y'
F-25
sS'x'
F549
sg17
I00
s(dp42
g15
S'curve'
p43
sS'x'
F644
sg17
I00
sS'y'
F-161
stp44
stp45
sS'components'
p46
(tsS'anchors'
p47
(tsss."
LayerCount: 2
Fore
SplineSet
658 -140 m 1
 426 -140 l 1
 273 76 169 319 169 635 c 0
 169 954 284 1238 425 1427 c 1
 659 1427 l 1
 555 1276 410 953 410 637 c 0
 410 341 520 94 658 -140 c 1
EndSplineSet
EndChar

StartChar: parenright
Encoding: 41 41 414
Width: 732
VWidth: 0
GlyphClass: 2
Flags: W
PickledData: "(dp1
S'com.typemytype.robofont.layerData'
p2
(dp3
s."
LayerCount: 2
Fore
SplineSet
89 1427 m 1
 321 1427 l 1
 474 1211 578 968 578 652 c 0
 578 333 463 49 322 -140 c 1
 88 -140 l 1
 192 11 337 334 337 650 c 0
 337 946 227 1193 89 1427 c 1
EndSplineSet
EndChar

StartChar: period
Encoding: 46 46 415
Width: 549
VWidth: 0
GlyphClass: 2
Flags: W
PickledData: "(dp1
S'com.typemytype.robofont.layerData'
p2
(dp3
s."
LayerCount: 2
Fore
SplineSet
281 3 m 0
 198 3 133 69 133 148 c 0
 133 227 197 295 281 295 c 0
 364 295 427 227 427 148 c 0
 427 70 364 3 281 3 c 0
EndSplineSet
EndChar

StartChar: phi
Encoding: 966 966 416
Width: 407
VWidth: 0
GlyphClass: 2
Flags: W
LayerCount: 2
Fore
SplineSet
215 483 m 0
 131 483 87 547 87 610 c 0
 87 673 131 737 215 737 c 0
 300 737 342 673 342 610 c 0
 342 547 300 483 215 483 c 0
EndSplineSet
EndChar

StartChar: pi
Encoding: 960 960 417
Width: 1247
VWidth: 0
GlyphClass: 2
Flags: W
LayerCount: 2
Fore
SplineSet
514 825 m 1
 502 531 470 191 374 6 c 1
 371 1 l 1
 161 1 l 1
 167 14 l 1
 256 199 295 740 300 846 c 1
 207 839 146 817 83 779 c 1
 71 772 l 1
 45 950 l 1
 50 954 l 1
 133 1017 227 1024 381 1024 c 2
 1181 1024 l 1
 1181 841 l 1
 1007 841 l 1
 1007 298 l 2
 1007 222 1013 191 1060 191 c 0
 1087 191 1121 204 1150 213 c 1
 1163 216 l 1
 1162 203 l 1
 1160 160 1151 16 1151 14 c 2
 1151 7 l 1
 1143 6 l 1
 1103 -1 1065 -6 1023 -6 c 0
 844 -6 805 121 805 288 c 2
 808 825 l 1
 514 825 l 1
EndSplineSet
EndChar

StartChar: plus
Encoding: 43 43 418
Width: 1035
VWidth: 0
GlyphClass: 2
Flags: W
LayerCount: 2
Fore
SplineSet
430 692 m 1
 430 1065 l 1
 623 1065 l 1
 623 692 l 1
 983 692 l 1
 983 502 l 1
 622 502 l 1
 622 130 l 1
 429 130 l 1
 429 502 l 1
 68 502 l 1
 68 692 l 1
 430 692 l 1
EndSplineSet
EndChar

StartChar: plusminus
Encoding: 177 177 419
Width: 1131
VWidth: 0
GlyphClass: 2
Flags: W
LayerCount: 2
Fore
SplineSet
142 0 m 1
 142 177 l 1
 1006 177 l 1
 1006 0 l 1
 142 0 l 1
477 775 m 1
 477 1101 l 1
 670 1101 l 1
 670 775 l 1
 1006 775 l 1
 1006 575 l 1
 671 575 l 1
 671 241 l 1
 477 241 l 1
 477 575 l 1
 142 575 l 1
 142 775 l 1
 477 775 l 1
EndSplineSet
EndChar

StartChar: psi
Encoding: 968 968 420
Width: 407
VWidth: 0
GlyphClass: 2
Flags: W
LayerCount: 2
Fore
SplineSet
215 483 m 0
 131 483 87 547 87 610 c 0
 87 673 131 737 215 737 c 0
 300 737 342 673 342 610 c 0
 342 547 300 483 215 483 c 0
EndSplineSet
EndChar

StartChar: q
Encoding: 113 113 421
Width: 1223
VWidth: 0
GlyphClass: 2
Flags: W
PickledData: "(dp1
S'com.typemytype.robofont.layerData'
p2
(dp3
s."
LayerCount: 2
Fore
SplineSet
595 177 m 0
 462 177 374 283 374 511 c 0
 374 744 465 843 592 843 c 0
 737 843 818 746 818 495 c 1
 815 263 734 177 595 177 c 0
1064 1016 m 1
 839 1016 l 1
 823 907 l 1
 773 973 687 1041 545 1041 c 0
 273 1041 118 817 118 513 c 0
 118 202 290 -18 549 -18 c 0
 695 -18 773 54 811 107 c 1
 809 71 808 46 808 16 c 2
 808 -408 l 1
 1064 -393 l 1
 1064 1016 l 1
EndSplineSet
EndChar

StartChar: question
Encoding: 63 63 422
Width: 969
VWidth: 0
GlyphClass: 2
Flags: W
PickledData: "(dp1
S'com.typemytype.robofont.layerData'
p2
(dp3
s."
LayerCount: 2
Fore
SplineSet
458 -7 m 0
 377 -7 311 60 311 139 c 0
 311 218 376 286 458 286 c 0
 538 286 598 218 598 139 c 0
 598 61 538 -7 458 -7 c 0
515 423 m 1
 403 429 l 1
 436 688 647 861 647 1019 c 1
 646 1116 584 1177 477 1177 c 0
 362 1177 289 1135 237 1103 c 1
 165 1267 l 1
 255 1327 355 1363 501 1363 c 0
 663 1363 852 1265 852 1050 c 0
 852 830 648 691 515 423 c 1
EndSplineSet
EndChar

StartChar: questiondown
Encoding: 191 191 423
Width: 901
VWidth: 0
GlyphClass: 2
Flags: W
LayerCount: 2
Fore
SplineSet
491 139 m 0
 606 139 679 181 731 213 c 1
 740 218 l 1
 810 53 l 1
 803 49 l 1
 713 -11 613 -47 467 -47 c 0
 305 -47 116 51 116 266 c 0
 116 486 320 625 453 893 c 1
 456 898 l 1
 567 898 l 1
 565 887 l 1
 532 628 321 455 321 297 c 1
 322 200 384 139 491 139 c 0
370 1177 m 0
 370 1255 430 1323 510 1323 c 0
 591 1323 657 1256 657 1177 c 0
 657 1098 592 1030 510 1030 c 0
 430 1030 370 1098 370 1177 c 0
EndSplineSet
EndChar

StartChar: quotedbl
Encoding: 34 34 424
Width: 762
VWidth: 0
GlyphClass: 2
Flags: W
PickledData: "(dp1
S'com.typemytype.robofont.layerData'
p2
(dp3
s."
LayerCount: 2
Fore
SplineSet
516 837 m 1
 677 837 l 1
 705 1336 l 1
 484 1336 l 1
 516 837 l 1
138 837 m 1
 299 837 l 1
 327 1336 l 1
 106 1336 l 1
 138 837 l 1
EndSplineSet
EndChar

StartChar: quotedblbase
Encoding: 8222 8222 425
Width: 880
VWidth: 0
GlyphClass: 2
Flags: W
LayerCount: 2
Fore
SplineSet
444 -230 m 1
 551 227 l 1
 773 227 l 1
 621 -230 l 1
 444 -230 l 1
135 -230 m 1
 237 227 l 1
 461 227 l 1
 307 -230 l 1
 135 -230 l 1
EndSplineSet
EndChar

StartChar: quotedblleft
Encoding: 8220 8220 426
Width: 649
VWidth: 0
GlyphClass: 2
Flags: W
LayerCount: 2
Fore
SplineSet
317 1271 m 1
 517 1381 l 1
 623 1009 l 1
 463 897 l 1
 317 1271 l 1
44 1271 m 1
 252 1380 l 1
 353 1009 l 1
 199 897 l 1
 44 1271 l 1
EndSplineSet
EndChar

StartChar: quotedblright
Encoding: 8221 8221 427
Width: 841
VWidth: 0
GlyphClass: 2
Flags: W
LayerCount: 2
Fore
SplineSet
418 900 m 1
 510 1378 l 1
 726 1378 l 1
 578 900 l 1
 418 900 l 1
150 908 m 1
 251 1378 l 1
 458 1378 l 1
 320 908 l 1
 150 908 l 1
EndSplineSet
EndChar

StartChar: quoteleft
Encoding: 8216 8216 428
Width: 384
VWidth: 0
GlyphClass: 2
Flags: W
LayerCount: 2
Fore
SplineSet
44 1271 m 1
 251 1380 l 1
 359 1009 l 1
 199 898 l 1
 44 1271 l 1
EndSplineSet
EndChar

StartChar: quoteright
Encoding: 8217 8217 429
Width: 383
VWidth: 0
GlyphClass: 2
Flags: W
LayerCount: 2
Fore
SplineSet
46 920 m 1
 145 1378 l 1
 362 1378 l 1
 214 920 l 1
 46 920 l 1
EndSplineSet
EndChar

StartChar: quotesinglbase
Encoding: 8218 8218 430
Width: 488
VWidth: 0
GlyphClass: 2
Flags: W
LayerCount: 2
Fore
SplineSet
96 -230 m 1
 196 227 l 1
 414 227 l 1
 266 -230 l 1
 96 -230 l 1
EndSplineSet
EndChar

StartChar: quotesingle
Encoding: 39 39 431
Width: 514
VWidth: 0
GlyphClass: 2
Flags: W
LayerCount: 2
Fore
SplineSet
184 833 m 1
 152 1341 l 1
 362 1341 l 1
 337 833 l 1
 184 833 l 1
EndSplineSet
EndChar

StartChar: r
Encoding: 114 114 432
Width: 796
VWidth: 0
GlyphClass: 2
Flags: W
PickledData: "(dp1
S'com.typemytype.robofont.layerData'
p2
(dp3
s."
LayerCount: 2
Fore
SplineSet
159 1016 m 1
 375 1016 l 1
 403 860 l 1
 466 950 569 1021 687 1021 c 0
 710 1021 731 1021 758 1015 c 1
 754 799 l 1
 721 805 696 807 670 807 c 0
 498 807 415 707 415 551 c 2
 415 0 l 1
 159 0 l 1
 159 1016 l 1
EndSplineSet
EndChar

StartChar: registered
Encoding: 174 174 436
Width: 1526
VWidth: 0
GlyphClass: 2
Flags: W
LayerCount: 2
Fore
SplineSet
770 0 m 0
 1147 0 1469 285 1469 688 c 0
 1469 1090 1146 1377 769 1377 c 0
 394 1377 72 1091 72 688 c 0
 72 285 395 0 770 0 c 0
770 108 m 0
 439 108 195 367 195 688 c 0
 195 1007 438 1268 769 1268 c 0
 1104 1268 1346 1007 1346 687 c 0
 1346 367 1104 108 770 108 c 0
636 988 m 1
 736 988 l 2
 873 988 935 984 935 875 c 0
 935 768 868 752 744 752 c 2
 636 752 l 1
 636 988 l 1
487 251 m 1
 637 251 l 1
 637 620 l 1
 758 620 l 1
 788 590 959 251 959 251 c 1
 1128 251 l 1
 1128 251 958 569 904 641 c 1
 1038 675 1086 750 1086 877 c 0
 1086 1052 958 1119 774 1119 c 2
 487 1119 l 1
 487 251 l 1
EndSplineSet
EndChar

StartChar: rho
Encoding: 961 961 437
Width: 1101
VWidth: 0
GlyphClass: 2
Flags: W
LayerCount: 2
Fore
SplineSet
607 179 m 0
 733 179 817 291 817 515 c 0
 817 746 730 844 603 844 c 0
 467 844 384 755 382 530 c 1
 382 277 463 179 607 179 c 0
130 1017 m 1
 349 1017 l 1
 371 906 l 1
 430 976 548 1041 676 1041 c 0
 924 1041 1070 806 1070 513 c 0
 1070 207 915 -18 655 -18 c 0
 540 -18 446 28 379 99 c 1
 382 54 384 13 384 -15 c 2
 384 -395 l 1
 130 -408 l 1
 130 1017 l 1
EndSplineSet
EndChar

StartChar: ring
Encoding: 730 730 438
Width: 581
VWidth: 0
GlyphClass: 2
Flags: W
LayerCount: 2
Fore
SplineSet
297 1039 m 0
 168 1039 91 1132 91 1235 c 0
 91 1338 167 1430 297 1430 c 0
 428 1430 503 1337 503 1235 c 0
 503 1132 426 1039 297 1039 c 0
297 1140 m 0
 352 1140 383 1184 383 1235 c 0
 383 1284 352 1330 297 1330 c 0
 244 1330 212 1283 212 1235 c 0
 212 1183 240 1140 297 1140 c 0
EndSplineSet
EndChar

StartChar: s
Encoding: 115 115 439
Width: 1005
VWidth: 0
GlyphClass: 2
Flags: W
PickledData: "(dp1
S'com.fontlab.hintData'
p2
(dp3
S'vhints'
p4
((dp5
S'position'
p6
I125
sS'width'
p7
I231
s(dp8
g6
I617
sg7
I246
stp9
sS'hhints'
p10
((dp11
g6
I-17
sg7
I184
s(dp12
g6
I854
sg7
I187
stp13
ssS'com.typemytype.robofont.layerData'
p14
(dp15
s."
HStem: -17 184<518 518> 854 187<492 581>
VStem: 125 231 617 246
LayerCount: 2
Fore
SplineSet
518 -17 m 0
 320 -17 172 83 152 99 c 1
 198 277 l 1
 274 227 417 164 518 167 c 0
 616 170 652 204 654 275 c 1
 654 340 588 361 466 421 c 2
 413 447 l 1
 242 526 163 586 162 748 c 1
 162 940 299 1041 527 1041 c 0
 651 1041 763 1005 868 953 c 1
 809 781 l 1
 733 818 626 854 536 854 c 0
 448 854 393 827 393 768 c 0
 393 709 441 694 569 637 c 2
 625 612 l 2
 796 536 900 466 900 306 c 0
 900 99 761 -17 518 -17 c 0
EndSplineSet
EndChar

StartChar: semicolon
Encoding: 59 59 445
Width: 636
VWidth: 0
GlyphClass: 2
Flags: W
PickledData: "(dp1
S'com.typemytype.robofont.layerData'
p2
(dp3
s."
LayerCount: 2
Fore
SplineSet
207 767 m 1
 207 1022 l 1
 462 1022 l 1
 462 767 l 1
 207 767 l 1
191 -287 m 1
 241 248 l 1
 465 248 l 1
 349 -287 l 1
 191 -287 l 1
EndSplineSet
EndChar

StartChar: seven
Encoding: 55 55 446
Width: 1057
VWidth: 0
GlyphClass: 2
Flags: W
PickledData: "(dp1
S'com.typemytype.robofont.layerData'
p2
(dp3
s."
LayerCount: 2
Fore
SplineSet
949 1336 m 1
 949 1172 l 1
 523 0 l 1
 241 0 l 1
 660 1132 l 1
 100 1132 l 1
 112 1336 l 1
 949 1336 l 1
EndSplineSet
EndChar

StartChar: sigma
Encoding: 963 963 447
Width: 407
VWidth: 0
GlyphClass: 2
Flags: W
LayerCount: 2
Fore
SplineSet
215 483 m 0
 131 483 87 547 87 610 c 0
 87 673 131 737 215 737 c 0
 300 737 342 673 342 610 c 0
 342 547 300 483 215 483 c 0
EndSplineSet
EndChar

StartChar: sigma1
Encoding: 962 962 448
Width: 407
VWidth: 0
GlyphClass: 2
Flags: W
LayerCount: 2
Fore
SplineSet
215 483 m 0
 131 483 87 547 87 610 c 0
 87 673 131 737 215 737 c 0
 300 737 342 673 342 610 c 0
 342 547 300 483 215 483 c 0
EndSplineSet
EndChar

StartChar: six
Encoding: 54 54 449
Width: 1256
VWidth: 0
GlyphClass: 2
Flags: W
PickledData: "(dp1
S'com.typemytype.robofont.layerData'
p2
(dp3
s."
LayerCount: 2
Fore
SplineSet
618 180 m 0
 770 180 854 274 854 413 c 0
 854 557 782 650 621 650 c 0
 456 650 393 552 393 411 c 0
 393 272 470 180 618 180 c 0
628 -18 m 0
 339 -18 132 156 132 422 c 0
 132 598 216 723 314 853 c 0
 332 876 666 1336 666 1336 c 1
 982 1336 l 1
 592 826 l 1
 614 832 639 838 669 838 c 0
 925 838 1118 667 1118 417 c 0
 1118 154 906 -18 628 -18 c 0
EndSplineSet
EndChar

StartChar: slash
Encoding: 47 47 450
Width: 881
VWidth: 0
GlyphClass: 2
Flags: W
PickledData: "(dp1
S'com.typemytype.robofont.layerData'
p2
(dp3
s."
LayerCount: 2
Fore
SplineSet
56 -167 m 1
 609 1364 l 1
 823 1364 l 1
 267 -167 l 1
 56 -167 l 1
EndSplineSet
EndChar

StartChar: sterling
Encoding: 163 163 452
Width: 1006
VWidth: 0
GlyphClass: 2
Flags: W
LayerCount: 2
Fore
SplineSet
71 19 m 1
 983 19 l 1
 989 230 l 1
 442 230 l 2
 438 230 397 229 374 229 c 1
 436 293 457 377 457 481 c 2
 457 606 l 1
 800 606 l 1
 800 785 l 1
 457 785 l 1
 457 934 l 2
 457 1075 507 1155 633 1155 c 0
 720 1155 790 1122 867 1069 c 1
 971 1234 l 1
 880 1311 763 1361 623 1361 c 0
 329 1361 218 1153 218 869 c 2
 218 785 l 1
 53 785 l 1
 53 605 l 1
 218 605 l 1
 218 446 l 2
 218 311 177 256 62 208 c 1
 71 19 l 1
EndSplineSet
EndChar

StartChar: summation
Encoding: 8721 8721 453
Width: 1113
VWidth: 0
GlyphClass: 2
Flags: W
LayerCount: 2
Fore
SplineSet
65 1335 m 1
 1056 1335 l 1
 1056 1147 l 1
 362 1147 l 1
 828 530 l 1
 338 -105 l 1
 1095 -105 l 1
 1095 -298 l 1
 47 -298 l 1
 47 -175 l 1
 585 523 l 1
 65 1207 l 1
 65 1335 l 1
EndSplineSet
EndChar

StartChar: t
Encoding: 116 116 454
Width: 816
VWidth: 0
GlyphClass: 2
Flags: W
PickledData: "(dp1
S'com.typemytype.robofont.layerData'
p2
(dp3
s."
LayerCount: 2
Fore
SplineSet
565 -13 m 0
 298 -13 202 126 201 392 c 1
 201 853 l 1
 40 853 l 1
 54 1004 l 1
 217 1016 l 1
 275 1268 l 1
 457 1268 l 1
 457 1016 l 1
 732 1016 l 1
 732 852 l 1
 457 852 l 1
 457 386 l 2
 457 222 519 172 618 172 c 0
 677 172 736 188 741 191 c 1
 774 20 l 1
 766 17 669 -13 565 -13 c 0
EndSplineSet
EndChar

StartChar: tau
Encoding: 964 964 455
Width: 407
VWidth: 0
GlyphClass: 2
Flags: W
LayerCount: 2
Fore
SplineSet
215 483 m 0
 131 483 87 547 87 610 c 0
 87 673 131 737 215 737 c 0
 300 737 342 673 342 610 c 0
 342 547 300 483 215 483 c 0
EndSplineSet
EndChar

StartChar: theta
Encoding: 952 952 458
Width: 407
VWidth: 0
GlyphClass: 2
Flags: W
LayerCount: 2
Fore
SplineSet
215 483 m 0
 131 483 87 547 87 610 c 0
 87 673 131 737 215 737 c 0
 300 737 342 673 342 610 c 0
 342 547 300 483 215 483 c 0
EndSplineSet
EndChar

StartChar: three
Encoding: 51 51 460
Width: 1188
VWidth: 0
GlyphClass: 2
Flags: W
PickledData: "(dp1
S'com.typemytype.robofont.layerData'
p2
(dp3
s."
LayerCount: 2
Fore
SplineSet
755 379 m 0
 755 558 626 594 415 599 c 1
 355 599 l 1
 355 799 l 1
 415 799 l 1
 602 800 731 827 731 975 c 0
 731 1065 665 1153 528 1153 c 0
 414 1153 312 1119 238 1071 c 1
 164 1258 l 1
 266 1321 385 1357 550 1357 c 0
 797 1357 977 1209 977 994 c 0
 977 857 911 760 786 707 c 1
 932 663 1013 522 1013 367 c 0
 1013 116 799 -18 543 -18 c 0
 391 -18 244 24 162 94 c 1
 239 278 l 1
 302 226 426 187 544 187 c 0
 674 187 755 267 755 379 c 0
EndSplineSet
EndChar

StartChar: threequarters
Encoding: 190 190 461
Width: 1482
VWidth: 0
GlyphClass: 2
Flags: W
LayerCount: 2
Fore
SplineSet
1019 318 m 1
 1177 575 l 1
 1177 318 l 1
 1019 318 l 1
235 19 m 1
 439 19 l 1
 1347 1347 l 1
 1149 1347 l 1
 235 19 l 1
1179 19 m 1
 1338 19 l 1
 1339 179 l 1
 1444 179 l 1
 1442 318 l 1
 1340 318 l 1
 1340 820 l 1
 1169 820 l 1
 823 317 l 1
 823 179 l 1
 1179 179 l 1
 1179 19 l 1
310 562 m 0
 456 562 594 644 594 808 c 0
 594 889 542 954 483 986 c 1
 567 1027 576 1114 576 1132 c 0
 576 1280 448 1346 321 1346 c 0
 228 1346 132 1314 69 1261 c 1
 136 1151 l 1
 172 1177 245 1201 308 1201 c 0
 374 1201 402 1170 402 1126 c 0
 402 1077 371 1043 273 1043 c 2
 193 1043 l 1
 193 902 l 1
 272 903 l 1
 371 903 423 874 423 810 c 0
 423 739 377 706 303 706 c 0
 247 706 171 725 133 759 c 1
 77 636 l 1
 144 587 229 562 310 562 c 0
EndSplineSet
EndChar

StartChar: tilde
Encoding: 732 732 462
Width: 690
VWidth: 0
GlyphClass: 2
Flags: W
LayerCount: 2
Fore
SplineSet
35 1113 m 1
 182 1103 l 1
 182 1103 196 1193 217 1193 c 0
 274 1193 407 1103 508 1103 c 0
 656 1103 666 1345 666 1345 c 1
 516 1345 l 1
 516 1345 504 1261 484 1260 c 1
 453 1260 318 1345 197 1345 c 0
 49 1345 35 1207 35 1113 c 1
EndSplineSet
EndChar

StartChar: tonos
Encoding: 900 900 463
Width: 407
VWidth: 0
GlyphClass: 2
Flags: W
LayerCount: 2
Fore
SplineSet
215 483 m 0
 131 483 87 547 87 610 c 0
 87 673 131 737 215 737 c 0
 300 737 342 673 342 610 c 0
 342 547 300 483 215 483 c 0
EndSplineSet
EndChar

StartChar: trademark
Encoding: 8482 8482 464
Width: 1605
VWidth: 0
GlyphClass: 2
Flags: W
LayerCount: 2
Fore
SplineSet
281 595 m 1
 447 595 l 1
 447 1189 l 1
 665 1189 l 1
 665 1346 l 1
 56 1346 l 1
 57 1189 l 1
 281 1189 l 1
 281 595 l 1
703 595 m 1
 868 595 l 1
 868 1037 l 1
 1037 610 l 1
 1143 610 l 1
 1322 1046 l 1
 1322 595 l 1
 1484 595 l 1
 1484 1346 l 1
 1290 1346 l 1
 1096 862 l 1
 911 1346 l 1
 703 1346 l 1
 703 595 l 1
EndSplineSet
EndChar

StartChar: two
Encoding: 50 50 465
Width: 1141
VWidth: 0
GlyphClass: 2
Flags: W
PickledData: "(dp1
S'com.typemytype.robofont.layerData'
p2
(dp3
s."
LayerCount: 2
Fore
SplineSet
167 0 m 1
 161 207 l 1
 578 674 l 1
 659 763 719 879 719 964 c 0
 719 1071 638 1152 528 1152 c 0
 405 1152 281 1069 244 1040 c 1
 169 1226 l 1
 246 1293 378 1357 541 1357 c 0
 788 1357 978 1214 978 966 c 0
 978 807 843 608 729 488 c 1
 464 200 l 1
 970 200 l 1
 953 0 l 1
 167 0 l 1
EndSplineSet
EndChar

StartChar: u
Encoding: 117 117 466
Width: 1198
VWidth: 0
GlyphClass: 2
Flags: W
PickledData: "(dp1
S'com.typemytype.robofont.layerData'
p2
(dp3
s."
LayerCount: 2
Fore
SplineSet
1039 1016 m 1
 783 1016 l 1
 783 520 l 2
 783 305.482 752.524 172 556 172 c 0
 430 172 399 253 399 404 c 2
 399 1016 l 1
 143 1016 l 1
 143 377 l 2
 143 126 256 -24 491 -24 c 0
 632 -24 735 40 811 125 c 1
 835 0 l 1
 1039 0 l 1
 1039 1016 l 1
EndSplineSet
EndChar

StartChar: underscore
Encoding: 95 95 475
Width: 1012
VWidth: 0
GlyphClass: 2
Flags: W
PickledData: "(dp1
S'com.typemytype.robofont.layerData'
p2
(dp3
s."
LayerCount: 2
Fore
SplineSet
49 -175 m 1
 49 0 l 1
 963 0 l 1
 963 -175 l 1
 49 -175 l 1
EndSplineSet
EndChar

StartChar: uni00AD
Encoding: 173 173 478
Width: 652
VWidth: 0
GlyphClass: 2
Flags: W
LayerCount: 2
Fore
SplineSet
61 349 m 1
 61 551 l 1
 608 551 l 1
 608 349 l 1
 61 349 l 1
EndSplineSet
EndChar

StartChar: uni00B3
Encoding: 179 179 479
Width: 704
VWidth: 0
GlyphClass: 2
Flags: W
LayerCount: 2
Fore
SplineSet
155 747 m 1
 165 738 l 1
 204 701 286 677 342 677 c 0
 416 677 463 713 463 789 c 0
 463 859 405 894 305 894 c 1
 226 893 l 1
 226 1033 l 1
 307 1033 l 2
 405 1033 436 1068 436 1120 c 0
 436 1168 409 1204 344 1204 c 0
 281 1204 206 1177 170 1151 c 1
 161 1143 l 1
 110 1259 l 1
 115 1264 l 1
 178 1315 262 1346 353 1346 c 0
 484 1346 606 1279 606 1122 c 1
 604 1058 576 1003 508 971 c 1
 568 938 623 872 623 788 c 0
 623 622 491 536 343 536 c 0
 262 536 178 562 110 611 c 1
 104 615 l 1
 155 747 l 1
EndSplineSet
EndChar

StartChar: uni00B9
Encoding: 185 185 480
Width: 655
VWidth: 0
GlyphClass: 2
Flags: W
LayerCount: 2
Fore
SplineSet
129 534 m 1
 129 686 l 1
 255 686 l 1
 255 1163 l 1
 221 1147 132 1105 126 1102 c 2
 112 1095 l 1
 112 1257 l 1
 117 1260 l 1
 130 1266 283 1343 299 1354 c 1
 302 1359 l 1
 445 1358 l 1
 445 686 l 1
 570 686 l 1
 570 534 l 1
 129 534 l 1
EndSplineSet
EndChar

StartChar: uni018F
Encoding: 399 399 481
Width: 1277
VWidth: 0
GlyphClass: 2
Flags: W
LayerCount: 2
Fore
SplineSet
590 190 m 0
 782 190 894 328 928 529 c 1
 296 529 l 1
 314 331 400 190 590 190 c 0
54 733 m 1
 940 733 l 1
 920 997 779 1152 529 1152 c 0
 392 1152 281 1111 192 1059 c 1
 184 1054 l 1
 101 1231 l 1
 107 1236 l 1
 222 1326 362 1363 540 1363 c 0
 964 1363 1204 1061 1204 677 c 0
 1204 257 945 -18 581 -18 c 0
 259 -18 67 205 53 646 c 0
 52 672 54 707 54 723 c 2
 54 733 l 1
EndSplineSet
EndChar

StartChar: uni0237
Encoding: 567 567 567
Width: 461
VWidth: 0
GlyphClass: 2
Flags: W
LayerCount: 2
Fore
SplineSet
-39 -322 m 1
 6 -322 l 2
 310 -322 379 -183 379 99 c 2
 379 988 l 1
 148 988 l 1
 148 61 l 2
 148 -88 137 -127 -3 -127 c 2
 -44 -127 l 1
 -39 -322 l 1
EndSplineSet
EndChar

StartChar: uni0307
Encoding: 775 775 569
Width: 451
VWidth: 0
GlyphClass: 2
Flags: W
LayerCount: 2
Fore
SplineSet
135 1095 m 1
 135 1307 l 1
 333 1307 l 1
 333 1095 l 1
 135 1095 l 1
EndSplineSet
EndChar

StartChar: uni030F
Encoding: 783 783 570
Width: 866
VWidth: 0
GlyphClass: 2
Flags: W
LayerCount: 2
Fore
SplineSet
610 1083 m 1
 323 1405 l 1
 585 1405 l 1
 801 1083 l 1
 610 1083 l 1
282 1083 m 1
 -13 1405 l 1
 259 1405 l 1
 454 1083 l 1
 282 1083 l 1
EndSplineSet
EndChar

StartChar: uni0311
Encoding: 785 785 571
Width: 625
VWidth: 0
GlyphClass: 2
Flags: W
LayerCount: 2
Fore
SplineSet
217 1122 m 1
 49 1122 l 1
 49 1272 186 1344 320 1344 c 0
 452 1344 587 1273 587 1122 c 1
 418 1122 l 1
 418 1181 368 1207 316 1207 c 0
 265 1207 217 1180 217 1122 c 1
EndSplineSet
EndChar

StartChar: uni031B
Encoding: 795 795 572
Width: 516
VWidth: 0
GlyphClass: 2
Flags: W
LayerCount: 2
Fore
SplineSet
111 266 m 1
 120 266 l 2
 134 266 150 265 164 265 c 0
 208 265 222 296 222 343 c 0
 222 384 209 435 196 471 c 2
 191 484 l 1
 316 484 l 1
 317 478 l 1
 335 434 346 386 346 342 c 0
 346 246 299 158 202 158 c 0
 175 158 147 161 119 164 c 2
 111 165 l 1
 111 266 l 1
EndSplineSet
EndChar

StartChar: uni0326
Encoding: 806 806 573
Width: 490
VWidth: 0
GlyphClass: 2
Flags: W
LayerCount: 2
Fore
SplineSet
69 -599 m 1
 170 -120 l 1
 392 -120 l 1
 237 -599 l 1
 69 -599 l 1
EndSplineSet
EndChar

StartChar: uni0400
Encoding: 1024 1024 574
Width: 1108
VWidth: 0
GlyphClass: 2
Flags: W
LayerCount: 2
Fore
SplineSet
690 1452 m 1
 525 1452 l 1
 214 1813 l 1
 513 1813 l 1
 690 1452 l 1
EndSplineSet
EndChar

StartChar: uni2074
Encoding: 8308 8308 596
Width: 763
VWidth: 0
GlyphClass: 2
Flags: W
LayerCount: 2
Fore
SplineSet
380 1042 m 1
 274 868 l 1
 380 868 l 1
 380 1042 l 1
386 1317 m 1
 544 1317 l 1
 544 868 l 1
 634 868 l 1
 648 711 l 1
 543 711 l 1
 542 557 l 1
 382 557 l 1
 382 711 l 1
 69 711 l 1
 69 832 l 1
 386 1317 l 1
EndSplineSet
EndChar

StartChar: uniFB01
Encoding: 64257 64257 597
Width: 1038
VWidth: 0
GlyphClass: 2
Flags: W
LayerCount: 2
Fore
SplineSet
706 1139 m 1
 706 1357 l 1
 953 1357 l 1
 953 1139 l 1
 706 1139 l 1
3 853 m 1
 3 1016 l 1
 157 1016 l 1
 157 1035 l 1
 159 1282 205 1412 514 1412 c 2
 581 1412 l 1
 602 1224 l 1
 530 1224 l 2
 413 1224 401 1187 401 1067 c 2
 401 1016 l 1
 953 1016 l 1
 953 0 l 1
 706 0 l 1
 706 837 l 1
 401 837 l 1
 401 0 l 1
 157 0 l 1
 157 853 l 1
 3 853 l 1
EndSplineSet
EndChar

StartChar: uniFB02
Encoding: 64258 64258 598
Width: 1227
VWidth: 0
GlyphClass: 2
Flags: W
LayerCount: 2
Fore
SplineSet
579 1222 m 0
 432 1222 403 1181 402 1067 c 1
 402 1016 l 1
 611 1016 l 1
 611 853 l 1
 402 853 l 1
 402 0 l 1
 157 0 l 1
 157 853 l 1
 3 853 l 1
 3 1016 l 1
 157 1016 l 1
 157 1047 l 1
 159 1295 274 1408 543 1408 c 0
 702 1408 927 1375 1008 1370 c 1
 1017 1369 l 1
 1017 390 l 2
 1017 227 1024 180 1156 180 c 0
 1197 180 1199 183 1212 184 c 2
 1222 185 l 1
 1235 2 l 1
 1226 1 l 2
 1206 -2 1164 -12 1096 -12 c 0
 811 -12 772 162 772 428 c 2
 772 1209 l 1
 730 1213 650 1222 579 1222 c 0
EndSplineSet
EndChar

StartChar: upsilon
Encoding: 965 965 600
Width: 407
VWidth: 0
GlyphClass: 2
Flags: W
LayerCount: 2
Fore
SplineSet
215 483 m 0
 131 483 87 547 87 610 c 0
 87 673 131 737 215 737 c 0
 300 737 342 673 342 610 c 0
 342 547 300 483 215 483 c 0
EndSplineSet
EndChar

StartChar: upsilondieresis
Encoding: 971 971 601
Width: 407
VWidth: 0
GlyphClass: 2
Flags: W
LayerCount: 2
Fore
SplineSet
215 483 m 0
 131 483 87 547 87 610 c 0
 87 673 131 737 215 737 c 0
 300 737 342 673 342 610 c 0
 342 547 300 483 215 483 c 0
EndSplineSet
EndChar

StartChar: upsilondieresistonos
Encoding: 944 944 602
Width: 407
VWidth: 0
GlyphClass: 2
Flags: W
LayerCount: 2
Fore
SplineSet
215 483 m 0
 131 483 87 547 87 610 c 0
 87 673 131 737 215 737 c 0
 300 737 342 673 342 610 c 0
 342 547 300 483 215 483 c 0
EndSplineSet
EndChar

StartChar: upsilontonos
Encoding: 973 973 603
Width: 407
VWidth: 0
GlyphClass: 2
Flags: W
LayerCount: 2
Fore
SplineSet
215 483 m 0
 131 483 87 547 87 610 c 0
 87 673 131 737 215 737 c 0
 300 737 342 673 342 610 c 0
 342 547 300 483 215 483 c 0
EndSplineSet
EndChar

StartChar: v
Encoding: 118 118 606
Width: 1072
VWidth: 0
GlyphClass: 2
Flags: W
PickledData: "(dp1
S'com.typemytype.robofont.layerData'
p2
(dp3
s."
LayerCount: 2
Fore
SplineSet
425 0 m 1
 671 0 l 1
 1046 1016 l 1
 778 1016 l 1
 602 471 l 1
 595 453 565 331 551 275 c 1
 532 338 495 455 489 472 c 2
 299 1016 l 1
 28 1016 l 1
 425 0 l 1
EndSplineSet
EndChar

StartChar: w
Encoding: 119 119 607
Width: 1608
VWidth: 0
GlyphClass: 2
Flags: W
PickledData: "(dp1
S'com.typemytype.robofont.layerData'
p2
(dp3
s."
LayerCount: 2
Fore
SplineSet
57 1016 m 1
 306 1016 l 1
 485 298 l 1
 684 1016 l 1
 938 1016 l 1
 938 1004 1087 446 1127 300 c 1
 1312 1016 l 1
 1558 1016 l 1
 1255 0 l 1
 1009 0 l 1
 990 74 849 599 807 749 c 1
 592 0 l 1
 348 0 l 1
 57 1016 l 1
EndSplineSet
EndChar

StartChar: x
Encoding: 120 120 612
Width: 1133
VWidth: 0
GlyphClass: 2
Flags: W
PickledData: "(dp1
S'com.typemytype.robofont.layerData'
p2
(dp3
s."
LayerCount: 2
Fore
SplineSet
569 688 m 1
 785 1017 l 1
 1069 1017 l 1
 730 521 l 1
 1080 0 l 1
 789 0 l 1
 569 355 l 1
 344 0 l 1
 57 0 l 1
 410 520 l 1
 74 1017 l 1
 362 1017 l 1
 569 688 l 1
EndSplineSet
EndChar

StartChar: xi
Encoding: 958 958 613
Width: 407
VWidth: 0
GlyphClass: 2
Flags: W
LayerCount: 2
Fore
SplineSet
215 483 m 0
 131 483 87 547 87 610 c 0
 87 673 131 737 215 737 c 0
 300 737 342 673 342 610 c 0
 342 547 300 483 215 483 c 0
EndSplineSet
EndChar

StartChar: y
Encoding: 121 121 614
Width: 1103
VWidth: 0
GlyphClass: 2
Flags: W
PickledData: "(dp1
S'com.typemytype.robofont.layerData'
p2
(dp3
s."
LayerCount: 2
Fore
SplineSet
123 -392 m 1
 170 -398 212 -404 252 -404 c 0
 449 -404 557 -323 641 -99 c 0
 645 -90 1042 1002 1046 1016 c 1
 780 1016 l 1
 566 297 l 1
 325 1016 l 1
 60 1016 l 1
 446 28 l 1
 433 -11 417 -39 406 -68 c 0
 364 -178 323 -209 223 -209 c 0
 189 -209 141 -205 111 -201 c 1
 123 -392 l 1
EndSplineSet
EndChar

StartChar: yen
Encoding: 165 165 618
Width: 1046
VWidth: 0
GlyphClass: 2
Flags: W
LayerCount: 2
Fore
SplineSet
413 422 m 1
 413 527 l 1
 108 527 l 1
 108 683 l 1
 337 683 l 1
 -51 1336 l 1
 226 1336 l 1
 537 784 l 1
 847 1336 l 1
 1119 1336 l 1
 738 683 l 1
 975 683 l 1
 975 527 l 1
 666 527 l 1
 666 422 l 1
 975 422 l 1
 975 257 l 1
 666 257 l 1
 666 0 l 1
 413 0 l 1
 413 257 l 1
 108 257 l 1
 108 422 l 1
 413 422 l 1
EndSplineSet
EndChar

StartChar: z
Encoding: 122 122 620
Width: 995
VWidth: 0
GlyphClass: 2
Flags: W
PickledData: "(dp1
S'com.typemytype.robofont.layerData'
p2
(dp3
s."
LayerCount: 2
Fore
SplineSet
134 1016 m 1
 866 1016 l 1
 866 840 l 1
 424 192 l 1
 882 192 l 1
 882 0 l 1
 112 0 l 1
 112 158 l 1
 579 832 l 1
 134 832 l 1
 134 1016 l 1
EndSplineSet
EndChar

StartChar: zero
Encoding: 48 48 624
Width: 1255
VWidth: 0
GlyphClass: 2
Flags: W
PickledData: "(dp1
S'com.typemytype.robofont.layerData'
p2
(dp3
s."
LayerCount: 2
Fore
SplineSet
627 -18 m 0
 259 -18 132 314 132 667 c 0
 132 1028 263 1357 627 1357 c 0
 993 1357 1123 1025 1123 667 c 0
 1123 314 996 -18 627 -18 c 0
627 187 m 0
 812 187 861 425 861 674 c 0
 861 920 812 1153 627 1153 c 0
 444 1153 394 922 392 677 c 1
 392 427 442 187 627 187 c 0
EndSplineSet
EndChar

StartChar: zeta
Encoding: 950 950 625
Width: 407
VWidth: 0
GlyphClass: 2
Flags: W
LayerCount: 2
Fore
SplineSet
215 483 m 0
 131 483 87 547 87 610 c 0
 87 673 131 737 215 737 c 0
 300 737 342 673 342 610 c 0
 342 547 300 483 215 483 c 0
EndSplineSet
EndChar
